<?xml version="1.0" encoding="UTF-8" standalone="no"?>
<!DOCTYPE svg PUBLIC "-//W3C//DTD SVG 20010904//EN"
              "http://www.w3.org/TR/2001/REC-SVG-20010904/DTD/svg10.dtd">

<svg xmlns="http://www.w3.org/2000/svg"
     width="135.45mm" height="135.45mm"
     viewBox="0 0 512 512">
  <path id="filter-icon"
        fill="none" stroke="black" stroke-width="1"
        d="M 113.11,1.02
           C 117.71,-0.57 122.75,-0.41 124.49,5.04
             125.21,7.29 125.00,13.36 125.00,16.00
             125.00,16.00 125.00,38.00 125.00,38.00
             124.82,51.18 114.26,49.99 110.74,45.61
             108.98,43.42 109.04,40.66 109.00,38.00
             109.00,38.00 109.00,12.00 109.00,12.00
             109.03,6.71 108.75,4.55 113.11,1.02 Z
           M 267.02,16.75
           C 272.29,15.74 276.29,17.42 277.80,23.02
             277.80,23.02 277.80,53.00 277.80,53.00
             277.97,55.23 277.96,57.87 277.11,59.96
             275.55,63.78 272.00,65.38 268.02,64.76
             261.53,63.75 262.01,58.08 262.00,53.00
             262.00,53.00 262.00,28.00 262.00,28.00
             262.01,22.23 261.51,19.82 267.02,16.75 Z
           M 21.02,27.75
           C 25.55,26.90 29.40,28.03 30.84,33.02
             30.84,33.02 30.84,66.00 30.84,66.00
             30.96,68.56 31.02,71.50 29.26,73.57
             26.24,77.12 19.48,76.58 16.85,72.85
             15.07,70.32 15.04,66.96 15.00,64.00
             14.94,58.53 14.41,36.77 15.89,33.02
             17.10,29.94 18.30,29.25 21.02,27.75 Z
           M 194.00,48.46
           C 204.92,46.99 214.99,51.26 220.64,61.00
             229.24,75.82 221.40,96.24 204.00,99.53
             195.73,101.10 186.48,99.35 180.18,93.53
             168.85,83.07 169.55,64.18 181.02,54.21
             185.12,50.64 188.85,49.61 194.00,48.46 Z
           M 212.00,175.00
           C 210.41,170.11 209.40,166.22 210.33,161.00
             211.12,156.55 222.48,136.21 225.42,131.00
             229.84,123.19 233.03,116.42 243.00,115.18
             251.41,114.14 255.00,117.08 262.00,120.75
             264.61,122.11 269.10,125.12 272.00,124.41
             274.17,123.88 279.81,119.00 282.00,117.38
             287.23,113.48 296.09,108.03 302.00,105.31
             305.26,103.80 313.19,101.39 314.98,98.61
             316.49,96.26 315.97,89.02 316.00,86.00
             316.05,82.27 316.63,76.45 317.99,73.00
             321.53,64.01 328.22,62.01 337.00,62.00
             337.00,62.00 369.00,62.00 369.00,62.00
             371.53,62.00 374.56,61.92 377.00,62.56
             390.63,66.13 389.98,78.95 390.00,90.00
             390.01,93.39 389.62,96.94 392.31,99.49
             392.31,99.49 412.00,109.31 412.00,109.31
             422.45,114.98 428.54,121.14 432.00,123.19
             437.62,126.51 442.99,121.38 448.00,118.78
             457.29,113.96 466.94,112.75 474.79,121.10
             477.36,123.84 482.34,133.28 484.24,137.00
             489.66,147.58 500.28,160.71 495.01,173.00
             491.80,180.49 485.49,182.75 479.00,186.42
             476.73,187.71 472.28,189.91 471.11,192.21
             469.62,195.13 472.12,209.69 471.71,214.00
             471.52,218.16 469.29,230.61 471.71,233.61
             473.24,235.71 478.49,237.95 481.00,239.31
             489.36,243.84 495.60,247.63 496.66,258.00
             497.29,264.17 493.07,271.71 490.14,277.00
             490.14,277.00 481.86,292.00 481.86,292.00
             476.42,301.81 472.32,310.94 459.00,309.81
             450.81,309.12 441.98,301.61 437.00,300.44
             432.57,299.40 426.51,305.76 423.00,308.37
             417.65,312.35 412.00,315.82 406.00,318.74
             395.17,324.02 390.08,322.52 390.00,334.00
             389.94,342.52 391.33,351.02 384.67,357.67
             380.03,362.31 375.19,362.97 369.00,363.00
             369.00,363.00 338.00,363.00 338.00,363.00
             335.01,363.00 331.89,363.10 329.00,362.20
             315.80,358.06 316.07,344.20 316.00,333.00
             315.99,330.90 316.12,328.11 314.98,326.27
             313.21,323.42 304.17,319.65 301.00,320.99
             298.04,322.23 294.09,327.51 291.83,330.00
             291.83,330.00 277.17,345.00 277.17,345.00
             277.17,345.00 259.04,364.00 259.04,364.00
             259.04,364.00 246.00,378.00 246.00,378.00
             239.66,384.34 233.16,388.49 233.00,398.00
             233.00,398.00 233.00,423.00 233.00,423.00
             232.98,426.27 233.10,429.88 230.99,432.61
             227.73,436.83 220.87,436.56 218.17,431.87
             216.79,429.46 217.00,425.73 217.00,423.00
             217.00,423.00 217.00,396.00 217.00,396.00
             217.02,380.24 224.55,375.57 235.00,365.00
             235.00,365.00 251.00,348.00 251.00,348.00
             251.00,348.00 284.09,313.00 284.09,313.00
             284.09,313.00 297.91,299.00 297.91,299.00
             297.91,299.00 345.00,249.00 345.00,249.00
             345.00,249.00 42.00,249.00 42.00,249.00
             42.00,249.00 100.09,310.00 100.09,310.00
             100.09,310.00 139.17,351.00 139.17,351.00
             139.17,351.00 159.09,372.00 159.09,372.00
             162.47,375.64 165.90,378.41 168.08,383.00
             170.55,388.21 170.99,394.33 171.00,400.00
             171.00,400.00 171.00,460.00 171.00,460.00
             171.02,469.44 171.34,468.16 184.00,475.42
             184.00,475.42 217.00,494.00 217.00,494.00
             217.00,494.00 217.00,465.00 217.00,465.00
             217.13,458.20 221.86,452.08 228.89,456.02
             233.36,458.53 232.99,463.61 233.00,468.00
             233.00,468.00 233.00,497.00 233.00,497.00
             232.89,504.86 229.74,511.46 221.00,511.96
             212.73,512.43 207.92,508.21 201.00,504.28
             201.00,504.28 173.00,488.42 173.00,488.42
             161.92,482.07 155.02,481.11 155.00,467.00
             155.00,467.00 155.00,402.00 155.00,402.00
             154.98,388.61 151.17,388.89 142.58,379.00
             142.58,379.00 128.01,364.00 128.01,364.00
             128.01,364.00 118.96,354.00 118.96,354.00
             118.96,354.00 106.09,341.00 106.09,341.00
             106.09,341.00 79.96,313.00 79.96,313.00
             79.96,313.00 67.09,300.00 67.09,300.00
             67.09,300.00 38.99,270.00 38.99,270.00
             38.99,270.00 22.83,253.00 22.83,253.00
             20.33,250.21 17.25,247.57 15.89,244.00
             14.87,241.33 15.00,237.85 15.00,235.00
             15.00,235.00 15.00,195.00 15.00,195.00
             15.10,187.13 17.18,180.17 25.00,176.65
             29.93,174.43 38.49,175.00 44.00,175.00
             44.00,175.00 79.00,175.00 79.00,175.00
             82.18,175.02 86.08,174.90 88.81,176.85
             92.85,179.81 92.90,186.38 88.81,189.40
             86.35,191.27 82.96,190.99 80.00,191.00
             80.00,191.00 47.00,191.00 47.00,191.00
             43.97,191.00 35.58,190.51 33.31,192.02
             30.73,193.75 31.02,197.27 31.00,200.00
             31.00,200.00 31.00,234.00 31.00,234.00
             31.00,234.00 356.00,234.00 356.00,234.00
             356.00,234.00 356.00,191.00 356.00,191.00
             356.00,191.00 123.00,191.00 123.00,191.00
             119.81,190.99 115.91,191.29 113.23,189.26
             108.82,185.93 109.62,179.18 114.21,176.45
             117.01,174.79 120.85,175.01 124.00,175.00
             124.00,175.00 212.00,175.00 212.00,175.00 Z
           M 197.00,64.43
           C 182.58,68.12 188.19,84.78 199.00,83.75
             210.70,82.63 211.30,64.71 197.00,64.43 Z
           M 76.00,68.53
           C 79.05,68.03 80.91,67.94 84.00,68.01
             87.99,68.11 90.36,68.60 94.00,70.33
             119.66,82.52 109.16,121.96 81.00,119.82
             51.27,117.56 47.89,76.84 76.00,68.53 Z
           M 462.00,294.00
           C 462.00,294.00 475.86,269.00 475.86,269.00
             477.18,266.63 480.40,261.92 479.87,259.21
             479.36,256.55 475.17,254.81 473.00,253.58
             467.68,250.55 461.50,248.01 457.80,242.96
             450.62,233.18 456.49,221.85 455.68,211.00
             454.94,201.13 451.55,189.38 458.39,181.04
             462.70,175.80 469.34,173.50 474.99,170.12
             477.95,168.35 480.50,166.85 479.50,162.99
             479.50,162.99 467.26,140.00 467.26,140.00
             466.05,137.66 464.24,133.27 461.79,132.13
             458.65,130.67 452.94,134.75 450.00,136.24
             441.82,140.40 436.06,144.31 427.00,139.60
             427.00,139.60 403.00,122.86 403.00,122.86
             394.43,118.08 383.37,115.90 377.57,108.00
             372.89,101.64 374.05,93.42 374.00,86.00
             373.98,83.87 374.26,80.49 372.40,79.02
             370.81,77.77 366.99,78.00 365.00,78.00
             365.00,78.00 333.00,78.00 333.00,78.00
             331.48,86.46 333.03,100.60 330.31,106.00
             326.05,114.49 317.87,115.94 310.00,119.44
             303.03,122.53 294.93,127.82 289.00,132.61
             283.64,136.94 279.32,141.35 272.00,141.79
             265.46,142.18 258.57,137.29 253.00,134.31
             250.75,133.10 246.93,130.82 244.39,132.13
             242.33,133.18 237.32,143.37 235.86,146.00
             234.07,149.23 226.60,162.12 226.70,164.90
             226.81,167.86 229.78,169.05 232.00,170.30
             239.49,174.53 239.37,174.99 248.00,175.00
             248.00,175.00 289.00,175.00 289.00,175.00
             290.83,175.00 294.05,175.14 295.68,174.43
             297.83,173.49 300.39,169.83 302.09,168.00
             306.33,163.42 310.75,159.10 316.00,155.70
             335.29,143.21 357.67,140.81 379.00,149.45
             402.76,159.08 420.88,184.14 421.00,210.00
             421.00,210.00 421.00,216.00 421.00,216.00
             420.91,223.80 417.22,243.37 408.98,246.24
             404.21,247.91 399.57,243.48 399.44,239.00
             399.36,236.53 402.38,230.11 403.25,227.00
             405.09,220.46 405.07,216.66 405.00,210.00
             404.70,184.67 384.56,164.32 360.00,160.87
             357.07,160.46 355.02,159.97 352.00,160.18
             348.14,160.46 341.72,161.61 338.00,162.72
             330.49,164.97 322.91,168.76 318.00,175.00
             318.00,175.00 352.00,175.00 352.00,175.00
             359.99,175.10 367.71,177.97 370.85,186.00
             372.48,190.15 372.00,198.31 372.00,203.00
             372.00,203.00 372.00,236.00 372.00,236.00
             372.00,238.45 372.13,241.72 371.26,244.00
             369.44,248.77 358.21,258.12 354.00,264.00
             361.61,263.99 364.73,263.69 372.00,260.94
             375.31,259.68 380.63,256.52 384.00,256.90
             389.77,257.54 392.68,264.09 389.26,268.79
             387.43,271.32 382.85,273.40 380.00,274.69
             372.16,278.22 363.57,279.99 355.00,279.88
             355.00,279.88 340.00,279.88 340.00,279.88
             336.67,280.69 334.09,284.51 331.83,287.00
             326.44,292.95 317.28,300.05 314.00,307.00
             321.49,310.00 328.29,312.54 331.15,321.00
             332.47,324.90 331.94,333.52 332.00,338.00
             332.04,340.70 331.92,344.25 334.43,345.98
             336.24,347.22 339.84,347.00 342.00,347.00
             342.00,347.00 367.00,347.00 367.00,347.00
             368.95,346.96 371.63,347.10 372.98,345.40
             374.57,343.38 373.99,333.02 374.00,330.00
             374.08,313.61 381.29,312.03 394.00,306.23
             400.64,303.20 405.98,300.49 412.00,296.28
             419.14,291.28 425.84,283.08 435.00,283.08
             444.04,283.08 452.11,291.18 462.00,294.00 Z
           M 80.00,84.43
           C 66.80,89.74 74.38,106.15 85.00,103.31
             96.16,100.33 94.49,82.59 80.00,84.43 Z
           M 146.04,106.74
           C 150.89,105.67 155.06,106.66 156.78,112.02
             156.78,112.02 156.78,144.00 156.78,144.00
             156.94,148.26 156.59,152.61 151.96,154.40
             147.35,156.17 142.72,153.64 141.14,149.00
             140.97,147.33 141.01,144.76 141.14,143.00
             141.14,143.00 141.14,118.00 141.14,118.00
             141.03,112.37 140.79,109.79 146.04,106.74 Z" />
</svg>
