<?xml version="1.0" encoding="UTF-8" standalone="no"?>
<!DOCTYPE svg PUBLIC "-//W3C//DTD SVG 20010904//EN"
              "http://www.w3.org/TR/2001/REC-SVG-20010904/DTD/svg10.dtd">

<svg xmlns="http://www.w3.org/2000/svg"
     width="144.51mm" height="144.51mm"
     viewBox="0 0 512 512">
  <path id="filter-store"
        fill="none" stroke="black" stroke-width="1"
        d="M 35.00,425.00
           C 35.00,425.00 35.00,227.00 35.00,227.00
             35.00,224.82 35.22,221.27 33.98,219.43
             32.44,217.16 28.48,216.54 26.00,215.53
             22.43,214.06 17.95,211.16 15.00,208.68
             5.24,200.45 0.15,188.66 0.00,176.00
             0.00,176.00 0.00,151.00 0.00,151.00
             0.02,140.19 4.03,135.45 8.75,126.00
             8.75,126.00 24.42,95.00 24.42,95.00
             29.55,85.92 33.98,79.65 34.00,69.00
             34.00,69.00 34.00,52.00 34.00,52.00
             34.00,41.07 32.75,30.62 46.00,26.79
             48.52,26.06 50.43,26.03 53.00,26.00
             53.00,26.00 82.00,26.00 82.00,26.00
             95.63,26.19 94.66,36.74 90.58,40.11
             87.96,42.29 84.21,41.99 81.00,42.00
             81.00,42.00 50.00,42.00 50.00,42.00
             50.00,42.00 50.00,71.00 50.00,71.00
             50.00,71.00 462.00,71.00 462.00,71.00
             462.00,71.00 462.00,42.00 462.00,42.00
             462.00,42.00 329.00,42.00 329.00,42.00
             329.00,42.00 240.00,42.00 240.00,42.00
             240.00,42.00 125.00,42.00 125.00,42.00
             122.19,41.99 118.69,42.22 116.18,40.69
             111.67,37.87 111.67,30.97 116.18,27.74
             118.93,25.72 122.73,26.01 126.00,26.00
             126.00,26.00 396.00,26.00 396.00,26.00
             396.00,26.00 459.00,26.00 459.00,26.00
             472.84,26.17 477.98,32.74 478.00,46.00
             478.00,46.00 478.00,71.00 478.00,71.00
             478.12,79.71 483.40,87.60 487.58,95.00
             487.58,95.00 504.25,128.00 504.25,128.00
             507.80,135.11 511.89,140.89 512.00,149.00
             512.21,165.29 514.30,186.15 504.78,200.00
             500.80,205.79 496.07,210.02 490.00,213.54
             484.08,216.97 479.87,216.69 478.02,219.43
             476.78,221.27 477.00,224.82 477.00,227.00
             477.00,227.00 477.00,425.00 477.00,425.00
             489.45,425.00 501.86,424.68 509.05,437.00
             513.56,444.75 512.12,462.67 512.00,472.00
             511.94,475.77 511.79,478.64 509.20,481.66
             505.39,486.10 499.34,485.99 494.00,486.00
             494.00,486.00 116.00,486.00 116.00,486.00
             116.00,486.00 17.00,486.00 17.00,486.00
             4.43,485.94 0.02,482.91 0.00,470.00
             0.00,470.00 0.00,449.00 0.00,449.00
             0.27,427.21 17.82,425.00 35.00,425.00 Z
           M 91.00,87.00
           C 91.00,87.00 55.00,87.00 55.00,87.00
             45.49,87.02 46.64,87.22 39.75,101.00
             39.75,101.00 21.00,139.00 21.00,139.00
             21.00,139.00 65.00,139.00 65.00,139.00
             65.00,139.00 73.01,137.43 73.01,137.43
             73.01,137.43 78.42,124.00 78.42,124.00
             78.42,124.00 91.00,87.00 91.00,87.00 Z
           M 154.00,87.00
           C 154.00,87.00 117.00,87.00 117.00,87.00
             117.00,87.00 108.81,88.60 108.81,88.60
             108.81,88.60 102.81,103.00 102.81,103.00
             102.81,103.00 90.00,139.00 90.00,139.00
             90.00,139.00 135.00,139.00 135.00,139.00
             135.00,139.00 142.84,137.43 142.84,137.43
             142.84,137.43 146.60,123.00 146.60,123.00
             146.60,123.00 154.00,87.00 154.00,87.00 Z
           M 217.00,87.00
           C 217.00,87.00 179.00,87.00 179.00,87.00
             179.00,87.00 170.98,88.60 170.98,88.60
             170.98,88.60 167.20,103.00 167.20,103.00
             167.20,103.00 160.00,139.00 160.00,139.00
             160.00,139.00 213.00,139.00 213.00,139.00
             213.00,139.00 213.91,130.00 213.91,130.00
             213.91,130.00 217.00,87.00 217.00,87.00 Z
           M 279.00,87.00
           C 279.00,87.00 233.00,87.00 233.00,87.00
             233.00,87.00 229.91,130.00 229.91,130.00
             229.91,130.00 229.00,139.00 229.00,139.00
             229.00,139.00 283.00,139.00 283.00,139.00
             283.00,139.00 282.09,130.00 282.09,130.00
             282.09,130.00 279.00,87.00 279.00,87.00 Z
           M 352.00,139.00
           C 352.00,139.00 344.80,103.00 344.80,103.00
             344.80,103.00 341.02,88.60 341.02,88.60
             341.02,88.60 333.00,87.00 333.00,87.00
             333.00,87.00 295.00,87.00 295.00,87.00
             295.00,87.00 298.09,130.00 298.09,130.00
             298.09,130.00 299.00,139.00 299.00,139.00
             299.00,139.00 352.00,139.00 352.00,139.00 Z
           M 422.00,139.00
           C 422.00,139.00 409.19,103.00 409.19,103.00
             409.19,103.00 403.19,88.60 403.19,88.60
             403.19,88.60 395.00,87.00 395.00,87.00
             395.00,87.00 358.00,87.00 358.00,87.00
             358.00,87.00 365.40,123.00 365.40,123.00
             365.40,123.00 369.16,137.43 369.16,137.43
             369.16,137.43 377.00,139.00 377.00,139.00
             377.00,139.00 422.00,139.00 422.00,139.00 Z
           M 491.00,139.00
           C 491.00,139.00 472.25,101.00 472.25,101.00
             465.36,87.22 466.51,87.02 457.00,87.00
             457.00,87.00 421.00,87.00 421.00,87.00
             421.00,87.00 433.58,124.00 433.58,124.00
             433.58,124.00 438.99,137.43 438.99,137.43
             438.99,137.43 447.00,139.00 447.00,139.00
             447.00,139.00 491.00,139.00 491.00,139.00 Z
           M 71.00,155.00
           C 71.00,155.00 16.00,155.00 16.00,155.00
             16.00,164.84 14.56,179.33 18.99,188.00
             28.24,206.06 54.55,208.05 65.89,191.00
             72.58,180.95 71.00,166.63 71.00,155.00 Z
           M 142.00,155.00
           C 142.00,155.00 87.00,155.00 87.00,155.00
             87.00,165.28 85.47,179.98 90.41,189.00
             100.41,207.23 126.51,207.14 137.44,190.00
             143.29,180.82 142.00,165.67 142.00,155.00 Z
           M 213.00,155.00
           C 213.00,155.00 158.00,155.00 158.00,155.00
             158.00,155.00 158.00,175.00 158.00,175.00
             158.12,199.20 185.33,211.40 202.83,196.32
             214.99,185.84 213.00,169.46 213.00,155.00 Z
           M 283.00,155.00
           C 283.00,155.00 229.00,155.00 229.00,155.00
             229.00,169.53 226.00,185.49 238.17,196.18
             255.56,211.45 282.72,199.06 283.00,176.00
             283.00,176.00 283.00,155.00 283.00,155.00 Z
           M 354.00,155.00
           C 354.00,155.00 299.00,155.00 299.00,155.00
             299.00,169.46 297.01,185.84 309.17,196.32
             326.58,211.32 353.72,198.91 354.00,176.00
             354.00,176.00 354.00,155.00 354.00,155.00 Z
           M 425.00,155.00
           C 425.00,155.00 370.00,155.00 370.00,155.00
             370.00,165.67 368.71,180.82 374.56,190.00
             385.49,207.14 411.59,207.23 421.59,189.00
             426.53,179.98 425.00,165.28 425.00,155.00 Z
           M 496.00,155.00
           C 496.00,155.00 441.00,155.00 441.00,155.00
             441.00,166.63 439.42,180.95 446.11,191.00
             457.45,208.05 483.76,206.06 493.01,188.00
             497.44,179.33 496.00,164.84 496.00,155.00 Z
           M 79.00,201.00
           C 67.97,210.06 66.32,214.50 51.00,218.00
             51.00,218.00 51.00,425.00 51.00,425.00
             51.00,425.00 64.00,425.00 64.00,425.00
             64.00,425.00 64.00,287.00 64.00,287.00
             64.00,281.38 63.43,258.75 64.70,255.00
             66.15,250.73 69.76,247.29 74.00,245.85
             76.87,244.88 80.01,245.00 83.00,245.00
             83.00,245.00 161.00,245.00 161.00,245.00
             174.15,245.02 178.98,249.85 179.00,263.00
             179.00,263.00 179.00,425.00 179.00,425.00
             179.00,425.00 461.00,425.00 461.00,425.00
             461.00,425.00 461.00,218.00 461.00,218.00
             445.68,214.50 444.03,210.06 433.00,201.00
             427.31,206.69 423.46,211.19 416.00,214.68
             396.87,223.63 375.67,217.69 363.00,201.00
             357.14,205.20 353.54,210.16 347.00,213.68
             333.06,221.16 317.38,220.44 304.00,212.05
             297.93,208.25 295.97,205.08 291.00,201.00
             288.69,203.49 286.51,206.14 283.91,208.33
             270.44,219.71 252.80,222.11 237.00,214.19
             227.45,209.40 226.89,206.15 220.00,201.00
             206.50,217.29 186.74,223.92 167.00,214.68
             158.48,210.69 156.08,206.07 149.00,201.00
             136.33,217.69 115.13,223.63 96.00,214.68
             88.54,211.19 84.69,206.69 79.00,201.00 Z
           M 425.00,261.00
           C 425.00,261.00 386.00,261.00 386.00,261.00
             386.00,261.00 342.00,261.00 342.00,261.00
             338.10,260.99 332.67,261.21 329.65,258.30
             326.04,254.82 326.70,248.50 331.11,246.02
             333.27,244.81 336.56,245.00 339.00,245.00
             339.00,245.00 423.00,245.00 423.00,245.00
             436.79,245.02 440.98,249.21 441.00,263.00
             441.00,263.00 441.00,362.00 441.00,362.00
             441.00,372.68 444.17,389.07 431.00,393.20
             428.12,394.10 424.99,394.00 422.00,394.00
             422.00,394.00 247.00,394.00 247.00,394.00
             247.00,394.00 211.00,394.00 211.00,394.00
             205.62,393.93 201.16,393.13 197.42,388.81
             193.88,384.74 194.01,380.04 194.00,375.00
             194.00,375.00 194.00,263.00 194.00,263.00
             194.02,249.65 198.75,245.02 212.00,245.00
             212.00,245.00 295.00,245.00 295.00,245.00
             300.77,245.01 309.04,245.64 307.34,254.00
             305.90,261.06 298.65,260.99 293.00,261.00
             293.00,261.00 210.00,261.00 210.00,261.00
             210.00,261.00 210.00,378.00 210.00,378.00
             210.00,378.00 425.00,378.00 425.00,378.00
             425.00,378.00 425.00,261.00 425.00,261.00 Z
           M 163.00,261.00
           C 163.00,261.00 80.00,261.00 80.00,261.00
             80.00,261.00 80.00,425.00 80.00,425.00
             80.00,425.00 163.00,425.00 163.00,425.00
             163.00,425.00 163.00,261.00 163.00,261.00 Z
           M 140.11,326.74
           C 153.10,323.59 151.04,335.49 151.00,344.00
             150.99,346.42 151.12,349.65 149.83,351.77
             148.20,354.43 144.94,355.21 142.02,354.76
             139.94,354.44 138.30,353.61 136.96,351.77
             135.54,349.10 135.47,333.05 136.96,330.11
             137.67,327.93 138.32,327.88 140.11,326.74 Z
           M 497.00,470.00
           C 497.00,463.33 498.36,449.05 493.70,444.28
             489.08,439.54 476.41,441.00 470.00,441.00
             470.00,441.00 407.00,441.00 407.00,441.00
             407.00,441.00 117.00,441.00 117.00,441.00
             117.00,441.00 30.00,441.00 30.00,441.00
             27.43,441.01 24.43,440.95 22.00,441.89
             12.51,445.58 15.00,461.58 15.00,470.00
             15.00,470.00 497.00,470.00 497.00,470.00 Z" />
</svg>
