<svg width="156" height="37" viewBox="0 0 156 37" fill="none" xmlns="http://www.w3.org/2000/svg">
<path d="M0 18H18" stroke="black"/>
<path d="M137.5 18H155.5" stroke="black"/>
<path d="M37.8494 14.28H41.0494L34.6494 20.36L41.6894 29H38.4894L32.4094 21.544V29H29.8494V4.04H32.4094V19.464L37.8494 14.28ZM44.5831 14.28H47.1431V29H44.5831V14.28ZM44.6151 9.448C44.2738 9.08533 44.1031 8.66933 44.1031 8.2C44.1031 7.73067 44.2738 7.32533 44.6151 6.984C44.9778 6.62133 45.3938 6.44 45.8631 6.44C46.3325 6.44 46.7378 6.62133 47.0791 6.984C47.4418 7.32533 47.6231 7.73067 47.6231 8.2C47.6231 8.66933 47.4418 9.08533 47.0791 9.448C46.7378 9.78933 46.3325 9.96 45.8631 9.96C45.3938 9.96 44.9778 9.78933 44.6151 9.448ZM52.4156 4.04H54.9756V29H52.4156V4.04ZM62.5106 17.864C61.572 18.8453 61.1026 20.104 61.1026 21.64C61.1026 23.176 61.572 24.4453 62.5106 25.448C63.4706 26.4293 64.676 26.92 66.1266 26.92C67.5773 26.92 68.772 26.4293 69.7106 25.448C70.6706 24.4453 71.1506 23.176 71.1506 21.64C71.1506 20.104 70.6706 18.8453 69.7106 17.864C68.772 16.8613 67.5773 16.36 66.1266 16.36C64.676 16.36 63.4706 16.8613 62.5106 17.864ZM60.6866 27.144C59.236 25.6933 58.5106 23.8587 58.5106 21.64C58.5106 19.4213 59.236 17.5867 60.6866 16.136C62.1373 14.6853 63.9506 13.96 66.1266 13.96C68.3026 13.96 70.116 14.6853 71.5666 16.136C73.0173 17.5867 73.7426 19.4213 73.7426 21.64C73.7426 23.8587 73.0173 25.6933 71.5666 27.144C70.116 28.5947 68.3026 29.32 66.1266 29.32C63.9506 29.32 62.1373 28.5947 60.6866 27.144ZM74.5506 14.28H77.4306L81.1106 23.848L85.1106 13.16L89.3986 23.912L93.1106 14.28H95.9906L89.5906 30.12L85.1426 19.4L80.9506 30.12L74.5506 14.28ZM100.792 17.864C99.8532 18.8453 99.3839 20.104 99.3839 21.64C99.3839 23.176 99.8532 24.4453 100.792 25.448C101.752 26.4293 102.957 26.92 104.408 26.92C105.859 26.92 107.053 26.4293 107.992 25.448C108.952 24.4453 109.432 23.176 109.432 21.64C109.432 20.104 108.952 18.8453 107.992 17.864C107.053 16.8613 105.859 16.36 104.408 16.36C102.957 16.36 101.752 16.8613 100.792 17.864ZM98.9679 27.144C97.5172 25.6933 96.7919 23.8587 96.7919 21.64C96.7919 19.4213 97.5172 17.5867 98.9679 16.136C100.419 14.6853 102.232 13.96 104.408 13.96C106.584 13.96 108.397 14.6853 109.848 16.136C111.299 17.5867 112.024 19.4213 112.024 21.64C112.024 23.8587 111.299 25.6933 109.848 27.144C108.397 28.5947 106.584 29.32 104.408 29.32C102.232 29.32 100.419 28.5947 98.9679 27.144ZM118.293 17.768C117.333 18.7067 116.853 19.9973 116.853 21.64C116.853 23.2827 117.333 24.5733 118.293 25.512C119.253 26.4507 120.447 26.92 121.877 26.92C123.093 26.92 124.181 26.44 125.141 25.48C126.101 24.52 126.581 23.24 126.581 21.64C126.581 20.04 126.101 18.76 125.141 17.8C124.181 16.84 123.093 16.36 121.877 16.36C120.447 16.36 119.253 16.8293 118.293 17.768ZM116.341 27.24C114.954 25.832 114.261 23.9653 114.261 21.64C114.261 19.3147 114.954 17.4587 116.341 16.072C117.749 14.664 119.487 13.96 121.557 13.96C123.775 13.96 125.45 14.9093 126.581 16.808V14.28H129.141V28.68C129.141 31.0907 128.415 32.968 126.965 34.312C125.535 35.6773 123.829 36.36 121.845 36.36C119.69 36.36 117.93 35.7627 116.565 34.568C115.221 33.3947 114.549 31.8587 114.549 29.96H117.141C117.141 31.048 117.578 31.9867 118.453 32.776C119.327 33.5653 120.458 33.96 121.845 33.96C123.103 33.96 124.202 33.512 125.141 32.616C126.101 31.72 126.581 30.408 126.581 28.68V26.472C125.45 28.3707 123.775 29.32 121.557 29.32C119.487 29.32 117.749 28.6267 116.341 27.24Z" fill="black"/>
</svg>

