<?xml version="1.0" encoding="UTF-8" standalone="no"?>
<!DOCTYPE svg PUBLIC "-//W3C//DTD SVG 20010904//EN"
              "http://www.w3.org/TR/2001/REC-SVG-20010904/DTD/svg10.dtd">

<svg xmlns="http://www.w3.org/2000/svg"
     width="155.556mm" height="47.2663mm"
     viewBox="0 0 441 134">
  <path id="amazon"
        fill="#424656" stroke="black" stroke-width="1"
        d="M 39.84,30.00
           C 40.00,28.23 40.09,24.58 39.84,23.00
             38.02,16.41 30.29,14.16 25.13,18.43
             22.03,21.00 21.73,24.11 18.78,25.56
             16.85,26.25 13.09,25.98 11.00,25.56
             8.66,25.42 4.71,25.11 3.61,22.69
             0.64,16.14 9.70,6.71 15.00,3.99
             26.78,-2.04 49.16,-1.96 57.30,10.01
             62.28,17.34 60.96,39.61 61.00,49.00
             61.02,52.36 60.94,54.80 62.22,58.00
             63.47,61.13 66.43,64.43 65.35,67.96
             64.29,71.41 55.79,78.80 52.00,78.04
             48.24,77.28 45.66,73.09 44.00,70.00
             41.19,72.41 38.37,74.85 35.00,76.52
             28.26,79.67 16.65,80.24 10.00,76.52
             -2.96,69.45 -2.57,47.46 8.09,38.53
             15.61,32.23 30.39,30.21 39.84,30.00 Z
           M 219.00,30.00
           C 218.98,27.81 219.04,25.10 218.43,23.00
             216.83,17.49 211.31,14.47 206.02,17.18
             201.20,19.63 200.86,23.98 197.73,25.40
             194.94,26.67 182.93,25.84 181.69,22.69
             179.01,15.85 189.46,5.88 195.00,3.35
             206.30,-1.80 227.09,-1.68 235.20,9.09
             238.35,13.28 238.94,17.94 239.16,23.00
             239.16,23.00 239.16,53.00 239.16,53.00
             240.57,60.11 245.47,63.82 244.32,67.72
             243.38,70.91 234.49,78.60 231.00,78.10
             227.24,77.57 224.46,73.08 223.00,70.00
             213.45,76.60 211.31,79.28 199.00,78.99
             177.47,78.46 172.36,51.02 187.04,38.33
             194.25,32.10 209.61,30.21 219.00,30.00 Z
           M 95.00,11.00
           C 99.65,1.19 112.64,-2.20 121.96,3.36
             126.02,5.79 127.65,9.10 130.00,13.00
             134.33,0.30 152.30,-2.87 161.90,5.39
             167.57,10.27 167.99,17.08 168.00,24.00
             168.00,24.00 168.00,69.00 168.00,69.00
             168.00,70.99 168.23,74.81 166.98,76.40
             165.23,78.61 151.88,78.74 149.74,77.01
             147.62,75.30 148.00,70.50 148.00,68.00
             148.00,68.00 148.00,48.00 148.00,48.00
             148.00,48.00 148.00,31.00 148.00,31.00
             147.82,18.47 139.08,17.89 134.65,23.22
             132.21,26.15 132.05,29.39 132.00,33.00
             132.00,33.00 132.00,64.00 132.00,64.00
             132.00,66.83 132.47,74.34 130.83,76.43
             129.36,78.29 126.14,77.99 124.00,78.00
             124.00,78.00 120.00,78.00 120.00,78.00
             111.87,77.94 112.02,76.73 112.00,69.00
             112.00,69.00 112.00,49.00 112.00,49.00
             112.00,49.00 112.00,34.00 112.00,34.00
             111.95,30.16 111.71,26.32 109.30,23.11
             104.76,17.05 98.98,20.08 96.48,26.02
             93.93,32.07 95.00,55.11 95.00,63.00
             95.00,76.85 96.09,77.94 87.00,78.00
             87.00,78.00 83.00,78.00 83.00,78.00
             75.03,77.95 75.01,76.82 75.00,68.00
             75.00,68.00 75.00,12.00 75.00,12.00
             75.00,9.81 74.79,6.16 76.02,4.31
             78.04,1.29 89.72,1.05 92.43,3.17
             94.00,4.41 94.39,8.87 95.00,11.00 Z
           M 337.00,1.47
           C 344.92,0.36 353.06,0.71 360.00,5.13
             384.96,21.04 380.00,82.70 342.00,79.68
             325.03,78.33 315.41,66.29 313.15,50.00
             313.15,50.00 313.15,35.00 313.15,35.00
             313.19,19.37 321.01,5.27 337.00,1.47 Z
           M 404.00,12.00
           C 405.21,9.36 406.01,7.43 408.21,5.39
             415.03,-0.93 429.24,-0.51 435.66,6.21
             440.41,11.18 440.99,17.53 441.00,24.00
             441.00,24.00 441.00,71.00 441.00,71.00
             440.85,78.82 438.37,78.01 431.00,78.00
             428.70,78.00 424.59,78.38 423.02,76.40
             421.77,74.81 422.00,70.99 422.00,69.00
             422.00,69.00 422.00,37.00 422.00,37.00
             421.99,31.87 421.27,18.29 413.00,19.96
             404.94,21.59 404.01,33.57 404.00,40.00
             404.00,40.00 404.00,69.00 404.00,69.00
             404.00,71.30 404.38,75.41 402.40,76.98
             400.28,78.65 388.26,78.00 384.96,78.00
             384.96,78.00 384.96,65.00 384.96,65.00
             384.96,65.00 384.00,53.00 384.00,53.00
             384.00,53.00 384.00,12.00 384.00,12.00
             384.00,9.81 383.79,6.16 385.02,4.31
             386.95,1.42 398.81,0.97 401.40,3.02
             403.04,4.32 403.32,9.63 404.00,12.00 Z
           M 255.00,18.00
           C 255.00,15.10 254.46,5.58 256.02,3.60
             257.49,1.74 260.87,2.02 263.00,2.00
             263.00,2.00 296.00,2.00 296.00,2.00
             298.19,2.00 301.84,1.79 303.69,3.02
             307.27,5.41 306.11,13.65 304.59,17.00
             304.59,17.00 280.00,53.00 280.00,53.00
             286.98,53.00 301.96,53.41 305.98,60.21
             307.00,61.94 306.96,64.06 307.00,66.00
             307.04,68.54 307.63,74.22 304.69,75.30
             302.45,76.11 293.96,72.62 291.00,71.90
             281.90,69.67 277.11,69.65 268.00,71.90
             264.81,72.69 256.90,76.30 254.31,75.31
             251.25,74.14 251.97,67.72 252.00,65.00
             252.12,55.33 255.73,52.58 260.98,45.00
             260.98,45.00 280.00,18.00 280.00,18.00
             280.00,18.00 255.00,18.00 255.00,18.00 Z
           M 343.00,16.45
           C 340.12,17.18 338.82,17.52 337.00,20.13
             333.11,25.71 333.21,46.27 334.67,53.00
             335.80,58.22 338.44,64.66 344.99,63.68
             350.32,62.89 352.33,57.62 353.33,53.00
             354.07,49.60 353.99,47.41 354.00,44.00
             354.01,34.78 355.97,16.96 343.00,16.45 Z
           M 40.00,42.00
           C 36.74,42.03 34.20,42.01 31.00,42.94
             28.56,43.65 26.35,44.68 24.56,46.53
             15.78,55.55 25.89,70.52 35.78,60.77
             37.17,59.41 38.14,57.80 38.85,56.00
             39.91,53.32 39.96,50.82 40.00,48.00
             40.00,48.00 40.00,42.00 40.00,42.00 Z
           M 219.00,42.00
           C 215.35,42.01 212.54,41.88 209.00,43.11
             206.99,43.81 204.81,44.89 203.28,46.39
             194.34,55.12 204.87,71.06 214.61,60.77
             216.09,59.21 217.19,57.02 217.89,55.00
             218.91,52.09 218.96,50.02 219.00,47.00
             219.00,47.00 219.00,42.00 219.00,42.00 Z
           M 277.00,124.00
           C 277.67,117.54 281.55,110.14 283.58,103.00
             284.05,100.34 285.21,96.80 283.58,94.22
             280.36,88.02 264.98,90.68 259.00,91.28
             257.08,91.47 251.31,92.22 253.17,88.27
             254.42,85.61 259.38,83.90 262.00,83.00
             269.70,80.38 278.94,79.32 287.00,80.59
             289.68,81.01 293.37,81.37 295.26,83.51
             297.94,86.55 296.71,92.38 296.08,96.00
             294.70,103.81 289.10,118.94 281.91,122.83
             280.16,123.77 278.88,123.78 277.00,124.00 Z
           M 63.66,86.06
           C 68.39,84.58 72.93,88.51 77.00,90.69
             77.00,90.69 102.00,101.58 102.00,101.58
             129.45,111.93 158.81,116.14 188.00,116.00
             209.50,115.90 236.69,109.71 257.00,102.66
             260.64,101.39 267.55,98.19 270.98,98.16
             273.95,98.13 276.42,99.59 275.34,102.93
             274.37,105.95 269.61,108.59 267.00,110.19
             257.74,115.87 250.12,119.28 240.00,123.05
             202.47,137.03 156.61,137.76 119.00,123.58
             102.96,117.52 87.70,109.46 74.00,99.10
             70.57,96.51 61.26,90.76 63.66,86.06 Z" />
</svg>
