<?xml version="1.0" encoding="UTF-8" standalone="no"?>
<!DOCTYPE svg PUBLIC "-//W3C//DTD SVG 20010904//EN"
              "http://www.w3.org/TR/2001/REC-SVG-20010904/DTD/svg10.dtd">

<svg xmlns="http://www.w3.org/2000/svg"
     width="857.899mm" height="229.955mm"
     viewBox="0 0 3242 869">
  <path id="flipkart"
        fill="#424656" stroke="black" stroke-width="1"
        d="M 935.00,0.84
           C 935.00,0.84 944.00,0.84 944.00,0.84
             960.21,1.66 977.93,5.11 989.91,17.09
             1003.60,30.78 1004.08,48.06 1004.00,66.00
             1003.93,81.64 998.35,100.02 989.64,113.00
             971.16,140.56 940.22,147.36 909.00,147.00
             909.00,147.00 900.00,146.17 900.00,146.17
             885.22,144.75 874.30,143.54 862.01,133.71
             857.63,130.20 852.62,124.92 849.90,120.00
             846.72,114.24 844.79,105.52 843.87,99.00
             840.50,74.97 846.39,49.42 861.24,30.00
             872.06,15.84 886.46,6.77 904.00,3.46
             904.00,3.46 923.00,0.84 923.00,0.84
             923.00,0.84 935.00,0.84 935.00,0.84 Z
           M 205.00,299.00
           C 205.00,299.00 392.00,299.00 392.00,299.00
             397.19,299.01 399.96,299.08 405.00,300.75
             408.38,301.87 411.09,303.34 413.96,305.44
             419.32,309.37 424.30,315.52 426.07,322.00
             427.82,328.37 426.64,331.87 426.07,338.00
             426.07,338.00 421.59,369.00 421.59,369.00
             419.37,382.23 419.26,395.89 408.96,405.91
             398.62,415.96 390.96,413.85 378.00,414.00
             378.00,414.00 363.00,415.00 363.00,415.00
             363.00,415.00 322.00,415.00 322.00,415.00
             322.00,415.00 305.00,414.00 305.00,414.00
             305.00,414.00 237.00,414.00 237.00,414.00
             237.00,414.00 221.00,415.00 221.00,415.00
             221.00,415.00 197.00,415.00 197.00,415.00
             193.49,415.01 186.29,414.90 183.74,417.58
             181.76,419.67 181.28,426.08 180.87,429.00
             180.87,429.00 176.59,457.00 176.59,457.00
             176.59,457.00 154.59,596.00 154.59,596.00
             154.59,596.00 148.41,636.00 148.41,636.00
             147.26,643.14 146.18,652.68 142.87,659.00
             136.39,671.34 125.29,675.84 112.00,676.00
             112.00,676.00 38.00,676.00 38.00,676.00
             17.83,675.97 2.66,667.86 0.47,646.00
             0.47,646.00 4.59,616.00 4.59,616.00
             4.59,616.00 13.08,562.00 13.08,562.00
             13.08,562.00 71.92,190.00 71.92,190.00
             71.92,190.00 94.25,50.00 94.25,50.00
             97.23,32.08 98.12,14.72 119.00,8.22
             123.10,6.94 125.81,7.01 130.00,7.00
             130.00,7.00 427.00,7.00 427.00,7.00
             427.00,7.00 483.00,7.00 483.00,7.00
             500.93,7.21 515.77,18.12 516.00,37.00
             516.00,37.00 516.00,44.00 516.00,44.00
             516.00,44.00 513.15,65.00 513.15,65.00
             510.93,83.34 509.72,114.14 493.00,125.04
             484.27,130.72 474.99,128.89 465.00,129.00
             465.00,129.00 450.00,130.00 450.00,130.00
             450.00,130.00 228.00,130.00 228.00,130.00
             228.00,130.00 222.27,170.00 222.27,170.00
             222.27,170.00 210.58,249.00 210.58,249.00
             210.58,249.00 204.34,292.00 204.34,292.00
             204.34,292.00 205.00,299.00 205.00,299.00 Z
           M 626.00,7.11
           C 626.00,7.11 660.00,7.11 660.00,7.11
             660.00,7.11 683.00,7.11 683.00,7.11
             683.00,7.11 694.00,7.11 694.00,7.11
             708.85,7.07 721.98,14.35 726.90,29.00
             728.30,33.17 728.05,37.66 728.00,42.00
             728.00,42.00 723.27,76.00 723.27,76.00
             723.27,76.00 711.42,151.00 711.42,151.00
             711.42,151.00 671.73,403.00 671.73,403.00
             671.73,403.00 658.73,485.00 658.73,485.00
             658.73,485.00 654.00,523.00 654.00,523.00
             654.00,523.00 654.00,536.00 654.00,536.00
             654.09,543.40 656.06,554.24 661.33,559.70
             673.72,572.56 696.37,568.58 705.16,586.00
             706.89,589.43 707.52,593.22 707.95,597.00
             708.36,600.65 709.14,604.32 708.83,608.00
             708.83,608.00 705.15,641.00 705.15,641.00
             704.34,647.79 704.16,653.97 700.52,660.00
             695.12,668.95 684.61,674.30 675.00,677.66
             655.98,684.30 636.10,687.23 616.00,687.00
             616.00,687.00 606.00,686.09 606.00,686.09
             567.90,683.30 528.59,665.37 513.45,628.00
             505.61,608.63 505.77,591.36 506.00,571.00
             506.00,571.00 512.58,523.00 512.58,523.00
             512.58,523.00 524.73,445.00 524.73,445.00
             524.73,445.00 566.58,178.00 566.58,178.00
             566.58,178.00 583.73,69.00 583.73,69.00
             583.73,69.00 588.08,41.00 588.08,41.00
             589.40,33.02 589.95,26.77 594.93,20.00
             599.25,14.12 606.63,9.10 614.00,8.18
             614.00,8.18 626.00,7.11 626.00,7.11 Z
           M 1710.00,385.00
           C 1731.43,381.10 1750.86,378.70 1770.00,367.08
             1782.64,359.40 1790.88,348.35 1800.00,337.00
             1817.94,314.66 1830.71,294.78 1844.85,270.00
             1844.85,270.00 1863.55,232.00 1863.55,232.00
             1868.90,218.51 1873.27,197.67 1888.00,191.48
             1893.23,189.28 1897.46,189.01 1903.00,189.00
             1903.00,189.00 1979.00,189.00 1979.00,189.00
             1984.35,189.03 1990.09,189.64 1995.00,191.91
             2005.63,196.84 2013.79,210.22 2012.81,222.00
             2012.41,226.85 2009.28,236.16 2007.67,241.00
             2003.84,252.49 1997.67,267.16 1992.25,278.00
             1972.90,316.71 1948.63,353.22 1921.60,387.00
             1911.41,399.74 1900.44,412.38 1888.91,423.91
             1885.29,427.53 1874.86,435.22 1874.11,440.00
             1873.73,442.45 1877.05,451.20 1878.00,454.00
             1878.00,454.00 1890.95,489.00 1890.95,489.00
             1890.95,489.00 1933.42,598.00 1933.42,598.00
             1938.69,611.84 1949.54,633.77 1948.96,648.00
             1948.82,651.50 1948.10,654.81 1946.65,658.00
             1938.71,675.46 1920.69,677.03 1904.00,677.00
             1904.00,677.00 1889.00,676.00 1889.00,676.00
             1889.00,676.00 1865.00,676.00 1865.00,676.00
             1849.86,676.02 1833.14,680.06 1819.00,672.35
             1808.27,666.51 1804.71,654.60 1800.40,644.00
             1800.40,644.00 1775.20,581.00 1775.20,581.00
             1775.20,581.00 1747.85,513.00 1747.85,513.00
             1746.03,508.77 1741.20,495.08 1737.78,493.02
             1736.08,492.00 1733.91,492.04 1732.00,492.04
             1732.00,492.04 1709.00,492.04 1709.00,492.04
             1706.42,492.00 1698.96,491.22 1697.21,492.04
             1694.82,493.33 1692.83,497.55 1691.96,500.00
             1691.96,500.00 1687.87,525.00 1687.87,525.00
             1687.87,525.00 1672.92,620.00 1672.92,620.00
             1669.29,642.11 1669.59,675.63 1639.00,676.04
             1639.00,676.04 1625.00,676.04 1625.00,676.04
             1625.00,676.04 1615.00,677.00 1615.00,677.00
             1615.00,677.00 1568.00,677.00 1568.00,677.00
             1547.93,676.97 1531.14,669.30 1529.17,647.00
             1528.84,643.25 1530.29,634.14 1530.87,630.00
             1530.87,630.00 1536.59,594.00 1536.59,594.00
             1536.59,594.00 1552.25,496.00 1552.25,496.00
             1552.25,496.00 1611.92,120.00 1611.92,120.00
             1611.92,120.00 1621.92,57.00 1621.92,57.00
             1623.16,49.51 1625.16,32.08 1627.90,26.00
             1633.71,13.11 1645.37,7.02 1659.00,7.00
             1659.00,7.00 1733.00,7.00 1733.00,7.00
             1749.80,7.20 1763.35,20.33 1764.83,37.00
             1765.18,40.97 1763.00,53.36 1762.25,58.00
             1762.25,58.00 1756.13,96.00 1756.13,96.00
             1756.13,96.00 1731.42,251.00 1731.42,251.00
             1731.42,251.00 1717.42,339.00 1717.42,339.00
             1717.42,339.00 1710.00,385.00 1710.00,385.00 Z
           M 2990.00,298.00
           C 2973.92,298.00 2956.30,299.89 2945.64,285.00
             2937.40,273.50 2940.84,258.84 2942.73,246.00
             2945.45,227.50 2946.11,198.22 2967.00,191.10
             2971.86,189.45 2977.89,189.01 2983.00,189.00
             2983.00,189.00 3001.00,189.00 3001.00,189.00
             3003.66,189.00 3007.46,189.22 3009.78,187.83
             3012.48,186.20 3013.41,182.83 3014.28,180.00
             3014.28,180.00 3019.58,162.00 3019.58,162.00
             3019.58,162.00 3034.86,111.00 3034.86,111.00
             3037.18,102.95 3041.58,86.12 3046.39,80.00
             3056.84,66.71 3068.09,68.00 3083.00,68.00
             3083.00,68.00 3130.00,68.00 3130.00,68.00
             3147.42,68.03 3162.16,78.60 3162.96,97.00
             3163.26,103.81 3160.63,119.72 3159.41,127.00
             3157.05,141.11 3151.04,176.40 3151.00,189.00
             3151.00,189.00 3208.00,189.00 3208.00,189.00
             3225.95,189.03 3239.75,200.55 3240.79,219.00
             3241.04,223.45 3237.61,239.67 3236.61,245.00
             3232.89,264.86 3232.33,289.58 3209.00,296.56
             3204.22,297.99 3201.87,297.99 3197.00,298.00
             3197.00,298.00 3149.00,298.00 3149.00,298.00
             3145.59,298.01 3136.09,298.18 3133.74,300.60
             3131.57,302.82 3130.28,316.28 3129.73,320.00
             3129.73,320.00 3121.92,370.00 3121.92,370.00
             3121.92,370.00 3102.58,493.00 3102.58,493.00
             3100.00,509.57 3096.32,535.80 3107.39,550.00
             3119.09,565.01 3136.26,562.81 3153.00,563.00
             3156.26,563.04 3162.97,563.73 3166.00,564.63
             3168.60,565.41 3171.80,567.20 3174.00,568.79
             3192.82,582.42 3185.85,604.80 3184.07,624.00
             3183.24,632.99 3181.34,651.87 3176.35,659.00
             3169.04,669.45 3156.68,673.33 3145.00,676.58
             3120.85,683.29 3096.08,687.29 3071.00,687.00
             3058.83,686.85 3039.70,683.77 3028.00,680.28
             3017.13,677.04 3005.56,672.03 2996.00,665.95
             2966.24,647.01 2953.81,612.98 2952.99,579.00
             2952.99,579.00 2952.04,563.00 2952.04,563.00
             2952.04,563.00 2953.04,555.00 2953.04,555.00
             2953.04,555.00 2953.04,546.00 2953.04,546.00
             2953.04,546.00 2956.73,520.00 2956.73,520.00
             2956.73,520.00 2969.73,437.00 2969.73,437.00
             2969.73,437.00 2979.58,375.00 2979.58,375.00
             2979.58,375.00 2990.00,298.00 2990.00,298.00 Z
           M 1166.04,269.00
           C 1178.18,260.34 1177.04,258.85 1186.04,250.09
             1186.04,250.09 1214.00,226.88 1214.00,226.88
             1245.52,203.63 1279.90,186.22 1319.00,180.43
             1332.86,178.37 1347.01,178.84 1361.00,179.00
             1368.44,179.09 1379.69,181.29 1387.00,183.13
             1431.00,194.18 1461.47,226.09 1479.00,267.00
             1487.56,286.98 1492.63,307.49 1495.28,329.00
             1495.28,329.00 1497.00,346.00 1497.00,346.00
             1497.00,346.00 1498.00,367.00 1498.00,367.00
             1498.06,408.25 1493.21,446.39 1481.28,486.00
             1469.83,524.01 1450.94,560.65 1426.65,592.00
             1426.65,592.00 1409.91,611.91 1409.91,611.91
             1334.87,686.96 1218.50,698.73 1119.00,680.00
             1119.00,680.00 1114.15,722.00 1114.15,722.00
             1114.15,722.00 1102.25,804.00 1102.25,804.00
             1099.97,817.67 1097.23,845.58 1089.45,856.00
             1082.26,865.62 1074.98,866.29 1064.00,867.09
             1064.00,867.09 1054.00,868.00 1054.00,868.00
             1054.00,868.00 991.00,868.00 991.00,868.00
             987.28,867.99 984.67,868.07 981.00,867.07
             968.32,863.64 957.75,851.25 957.10,838.00
             957.10,838.00 962.87,799.00 962.87,799.00
             962.87,799.00 979.00,697.00 979.00,697.00
             979.00,697.00 985.58,656.00 985.58,656.00
             985.58,656.00 1001.58,555.00 1001.58,555.00
             1001.58,555.00 1040.92,306.00 1040.92,306.00
             1040.92,306.00 1051.41,240.00 1051.41,240.00
             1052.72,231.85 1054.85,213.74 1057.90,207.00
             1063.67,194.28 1074.65,189.02 1088.00,189.00
             1088.00,189.00 1137.00,189.00 1137.00,189.00
             1155.56,189.23 1166.97,203.08 1167.00,221.00
             1167.00,221.00 1167.00,242.00 1167.00,242.00
             1167.00,242.00 1166.04,254.00 1166.04,254.00
             1166.04,254.00 1166.04,269.00 1166.04,269.00 Z
           M 2349.00,596.00
           C 2304.18,640.82 2251.60,681.50 2186.00,686.09
             2186.00,686.09 2176.00,687.00 2176.00,687.00
             2151.58,687.28 2130.68,685.07 2108.00,675.28
             2094.32,669.38 2082.67,661.41 2072.00,650.99
             2060.12,639.38 2049.25,623.88 2041.81,609.00
             2019.86,565.10 2017.44,520.99 2018.00,473.00
             2018.00,473.00 2018.91,463.00 2018.91,463.00
             2018.91,463.00 2022.73,428.00 2022.73,428.00
             2032.11,364.32 2064.65,293.20 2112.00,249.09
             2152.79,211.09 2211.05,188.07 2266.00,181.29
             2266.00,181.29 2286.00,179.91 2286.00,179.91
             2286.00,179.91 2296.00,179.00 2296.00,179.00
             2296.00,179.00 2347.00,179.00 2347.00,179.00
             2347.00,179.00 2372.00,181.00 2372.00,181.00
             2372.00,181.00 2381.00,181.00 2381.00,181.00
             2381.00,181.00 2456.00,190.75 2456.00,190.75
             2456.00,190.75 2490.00,196.59 2490.00,196.59
             2498.97,198.09 2506.75,199.03 2514.00,205.21
             2530.04,218.88 2526.05,232.91 2523.08,251.00
             2523.08,251.00 2508.42,344.00 2508.42,344.00
             2508.42,344.00 2484.58,496.00 2484.58,496.00
             2484.58,496.00 2468.00,600.00 2468.00,600.00
             2468.00,600.00 2465.13,618.00 2465.13,618.00
             2465.13,618.00 2461.75,639.00 2461.75,639.00
             2461.75,639.00 2459.22,654.00 2459.22,654.00
             2456.51,663.14 2449.12,671.77 2440.00,674.89
             2436.42,676.12 2433.69,675.99 2430.00,676.09
             2430.00,676.09 2388.00,676.09 2388.00,676.09
             2388.00,676.09 2378.00,676.09 2378.00,676.09
             2362.04,675.60 2350.95,664.59 2348.22,649.00
             2347.84,645.26 2347.96,639.89 2348.22,636.00
             2348.22,636.00 2349.99,608.00 2349.99,608.00
             2350.11,602.47 2349.69,601.23 2349.00,596.00 Z
           M 2723.00,285.00
           C 2723.00,285.00 2733.00,276.91 2733.00,276.91
             2733.00,276.91 2743.09,266.00 2743.09,266.00
             2743.09,266.00 2764.00,245.17 2764.00,245.17
             2785.63,225.61 2813.17,206.30 2840.00,194.72
             2847.97,191.28 2870.12,182.38 2878.00,182.04
             2893.02,181.39 2909.87,192.38 2911.82,208.00
             2912.58,214.12 2910.99,221.83 2910.13,228.00
             2910.13,228.00 2901.92,273.00 2901.92,273.00
             2900.32,282.44 2897.64,301.52 2892.87,309.00
             2884.16,322.65 2872.94,322.57 2859.00,325.88
             2848.78,328.31 2835.55,332.92 2826.00,337.31
             2795.97,351.10 2772.50,368.95 2749.00,391.99
             2741.82,399.02 2734.88,406.06 2728.67,414.00
             2725.76,417.72 2723.20,421.59 2721.46,426.00
             2721.46,426.00 2712.92,475.00 2712.92,475.00
             2712.92,475.00 2702.58,543.00 2702.58,543.00
             2702.58,543.00 2691.73,612.00 2691.73,612.00
             2691.73,612.00 2687.75,637.00 2687.75,637.00
             2685.62,650.03 2685.09,661.01 2673.91,670.10
             2671.34,672.19 2668.19,674.24 2665.00,675.20
             2662.01,676.10 2659.08,676.00 2656.00,676.00
             2656.00,676.00 2575.00,676.00 2575.00,676.00
             2559.36,675.79 2546.85,661.19 2546.10,646.00
             2546.10,646.00 2550.73,614.00 2550.73,614.00
             2550.73,614.00 2562.08,542.00 2562.08,542.00
             2562.08,542.00 2586.42,388.00 2586.42,388.00
             2586.42,388.00 2605.00,270.00 2605.00,270.00
             2605.00,270.00 2610.58,235.00 2610.58,235.00
             2613.41,216.76 2613.60,196.60 2635.00,190.21
             2639.26,188.94 2641.67,189.01 2646.00,189.00
             2646.00,189.00 2696.00,189.00 2696.00,189.00
             2700.38,189.06 2702.92,189.39 2707.00,191.17
             2709.90,192.44 2712.61,194.14 2715.00,196.21
             2730.74,209.85 2725.03,226.37 2725.00,244.00
             2725.00,244.00 2724.00,272.00 2724.00,272.00
             2724.00,272.00 2723.00,285.00 2723.00,285.00 Z
           M 862.00,189.21
           C 862.00,189.21 925.00,189.21 925.00,189.21
             936.22,189.00 946.24,187.67 956.00,194.64
             968.53,203.57 968.16,213.31 968.00,227.00
             968.00,227.00 961.41,273.00 961.41,273.00
             961.41,273.00 949.42,348.00 949.42,348.00
             949.42,348.00 913.42,576.00 913.42,576.00
             913.42,576.00 905.08,629.00 905.08,629.00
             902.24,646.20 901.51,669.22 881.00,675.21
             876.76,676.45 869.48,676.99 865.00,677.00
             865.00,677.00 818.00,677.00 818.00,677.00
             818.00,677.00 806.00,676.04 806.00,676.04
             806.00,676.04 793.00,676.04 793.00,676.04
             775.42,675.79 762.37,660.16 763.04,643.00
             763.04,643.00 766.92,618.00 766.92,618.00
             766.92,618.00 774.25,572.00 774.25,572.00
             774.25,572.00 820.41,281.00 820.41,281.00
             820.41,281.00 828.58,229.00 828.58,229.00
             830.25,217.13 831.50,204.86 841.09,196.33
             847.68,190.46 853.82,190.66 862.00,189.21 Z
           M 2292.00,293.28
           C 2292.00,293.28 2281.00,294.28 2281.00,294.28
             2265.95,296.08 2251.49,299.04 2238.00,306.31
             2209.89,321.45 2194.72,342.56 2181.69,371.00
             2164.99,407.45 2159.54,437.12 2160.00,477.00
             2160.00,477.00 2161.73,496.00 2161.73,496.00
             2165.86,524.93 2178.14,566.58 2214.00,567.00
             2238.87,567.29 2259.31,553.36 2277.00,537.08
             2296.67,518.99 2314.56,498.77 2330.14,477.00
             2335.71,469.21 2351.16,446.14 2354.04,438.00
             2354.04,438.00 2358.27,413.00 2358.27,413.00
             2358.27,413.00 2364.41,376.00 2364.41,376.00
             2364.41,376.00 2372.05,324.00 2372.05,324.00
             2372.47,320.28 2374.68,308.01 2372.97,305.30
             2370.89,301.99 2357.15,299.64 2353.00,298.80
             2335.63,295.27 2309.47,291.66 2292.00,293.28 Z
           M 1294.00,298.29
           C 1275.65,301.09 1264.67,308.38 1250.00,319.37
             1225.29,337.91 1207.27,359.33 1189.12,384.00
             1189.12,384.00 1170.81,411.00 1170.81,411.00
             1168.54,414.65 1164.75,420.14 1163.41,424.00
             1159.93,434.01 1153.51,476.94 1151.41,490.00
             1151.41,490.00 1143.75,540.00 1143.75,540.00
             1142.88,545.25 1139.83,555.46 1142.85,559.86
             1145.53,563.74 1152.58,564.29 1157.00,565.37
             1167.37,567.92 1189.67,571.88 1200.00,572.00
             1230.86,572.36 1253.95,572.10 1282.00,556.69
             1298.81,547.46 1308.99,535.49 1319.72,520.00
             1339.49,491.46 1351.32,454.51 1354.08,420.00
             1354.08,420.00 1355.00,408.00 1355.00,408.00
             1355.00,408.00 1355.00,381.00 1355.00,381.00
             1354.97,359.01 1345.09,322.91 1327.99,308.32
             1319.00,300.67 1305.64,297.21 1294.00,298.29 Z" />
</svg>
