<?xml version="1.0" encoding="UTF-8" standalone="no"?>
<!DOCTYPE svg PUBLIC "-//W3C//DTD SVG 20010904//EN"
              "http://www.w3.org/TR/2001/REC-SVG-20010904/DTD/svg10.dtd">

<svg xmlns="http://www.w3.org/2000/svg"
     width="1.38889in" height="1.38889in"
     viewBox="0 0 100 100">
  <path id="Selection"
        fill="none" stroke="black" stroke-width="1"
        d="M 21.00,8.85
           C 26.37,7.38 33.35,8.00 39.00,8.14
             39.00,8.14 71.00,8.14 71.00,8.14
             73.00,8.00 76.13,7.92 78.00,8.14
             81.96,9.50 89.97,16.15 91.40,20.00
             92.11,21.92 92.00,24.93 92.00,27.00
             92.00,27.00 92.00,83.00 92.00,83.00
             91.98,91.64 91.64,91.98 83.00,92.00
             83.00,92.00 27.00,92.00 27.00,92.00
             23.52,92.00 11.01,92.92 9.02,90.40
             7.77,88.81 8.00,84.99 8.00,83.00
             8.00,83.00 8.00,27.00 8.00,27.00
             8.00,24.95 7.89,21.90 8.60,20.01
             10.15,15.90 17.18,10.89 21.00,8.85 Z
           M 48.00,12.00
           C 48.00,12.00 23.00,12.58 23.00,12.58
             23.00,12.58 16.00,18.00 16.00,18.00
             16.00,18.00 48.00,18.00 48.00,18.00
             48.00,18.00 48.00,12.00 48.00,12.00 Z
           M 84.00,18.00
           C 84.00,18.00 78.00,12.93 78.00,12.93
             78.00,12.93 52.00,12.00 52.00,12.00
             52.00,12.00 52.00,18.00 52.00,18.00
             52.00,18.00 84.00,18.00 84.00,18.00 Z
           M 88.00,22.00
           C 88.00,22.00 12.00,22.00 12.00,22.00
             12.00,22.00 12.00,88.00 12.00,88.00
             12.00,88.00 88.00,88.00 88.00,88.00
             88.00,88.00 88.00,22.00 88.00,22.00 Z
           M 41.23,30.67
           C 44.57,29.85 54.81,29.33 57.94,30.67
             62.52,32.45 62.52,37.55 57.94,39.40
             55.76,40.28 44.24,40.28 42.06,39.40
             37.45,37.54 37.49,33.45 41.23,30.67 Z
           M 58.00,34.00
           C 58.00,34.00 42.00,34.00 42.00,34.00
             42.00,34.00 42.00,36.00 42.00,36.00
             42.00,36.00 58.00,36.00 58.00,36.00
             58.00,36.00 58.00,34.00 58.00,34.00 Z
           M 62.00,62.00
           C 62.00,62.00 68.00,68.00 68.00,68.00
             68.00,68.00 64.00,68.00 64.00,68.00
             64.00,68.00 64.00,76.00 64.00,76.00
             64.00,76.00 60.00,76.00 60.00,76.00
             59.95,72.05 60.50,70.34 57.00,68.00
             57.00,68.00 62.00,62.00 62.00,62.00 Z
           M 76.00,62.00
           C 76.00,62.00 82.00,68.00 82.00,68.00
             82.00,68.00 78.00,68.00 78.00,68.00
             78.00,68.00 78.00,76.00 78.00,76.00
             78.00,76.00 74.00,76.00 74.00,76.00
             73.95,72.05 74.50,70.34 71.00,68.00
             71.00,68.00 76.00,62.00 76.00,62.00 Z
           M 56.00,78.00
           C 56.00,78.00 82.00,78.00 82.00,78.00
             82.00,78.00 82.00,82.00 82.00,82.00
             82.00,82.00 56.00,82.00 56.00,82.00
             56.00,82.00 56.00,78.00 56.00,78.00 Z" />
</svg>
