<?xml version="1.0" encoding="UTF-8" standalone="no"?>
<!DOCTYPE svg PUBLIC "-//W3C//DTD SVG 20010904//EN"
              "http://www.w3.org/TR/2001/REC-SVG-20010904/DTD/svg10.dtd">

<svg xmlns="http://www.w3.org/2000/svg"
     width="135.45mm" height="135.45mm"
     viewBox="0 0 512 512">
  <path id="fas"
        fill="#424656" stroke="black" stroke-width="1"
        d="M 111.00,11.00
           C 111.00,11.00 41.00,11.00 41.00,11.00
             22.60,11.03 11.03,22.60 11.00,41.00
             11.00,41.00 11.00,341.00 11.00,341.00
             11.00,341.00 11.00,458.00 11.00,458.00
             11.03,476.63 22.37,487.97 41.00,488.00
             41.00,488.00 154.00,488.00 154.00,488.00
             154.00,488.00 177.00,488.00 177.00,488.00
             181.54,488.01 189.24,487.79 187.53,494.90
             186.39,499.62 180.75,498.99 177.00,499.00
             177.00,499.00 40.00,499.00 40.00,499.00
             16.23,498.96 0.04,482.77 0.00,459.00
             0.00,459.00 0.00,106.00 0.00,106.00
             0.00,106.00 0.00,40.00 0.00,40.00
             0.04,16.23 16.23,0.04 40.00,0.00
             40.00,0.00 193.00,0.00 193.00,0.00
             193.00,0.00 278.00,0.00 278.00,0.00
             301.83,0.28 315.96,18.12 316.00,41.00
             316.00,41.00 316.00,205.00 316.00,205.00
             316.00,205.00 316.00,245.00 316.00,245.00
             315.94,249.42 315.25,255.12 309.10,253.67
             304.38,252.55 305.01,246.73 305.00,243.00
             305.00,243.00 305.00,65.00 305.00,65.00
             305.00,65.00 304.48,33.00 304.48,33.00
             302.46,23.69 295.01,15.39 286.00,12.36
             281.67,10.90 279.44,11.01 275.00,11.00
             275.00,11.00 205.00,11.00 205.00,11.00
             205.00,11.00 205.00,33.00 205.00,33.00
             205.00,33.00 274.00,33.00 274.00,33.00
             283.94,33.02 285.98,33.70 286.00,44.00
             286.00,44.00 286.00,243.00 286.00,243.00
             286.00,245.15 286.22,248.77 284.98,250.57
             283.15,253.21 279.01,253.22 277.17,250.57
             275.77,248.53 276.00,244.44 276.00,242.00
             276.00,242.00 276.00,44.00 276.00,44.00
             276.00,44.00 213.00,44.00 213.00,44.00
             210.76,44.00 207.32,43.78 205.41,45.02
             202.10,47.18 202.18,53.59 193.00,56.75
             186.88,58.86 163.87,58.00 156.00,58.00
             156.00,58.00 139.00,58.00 139.00,58.00
             127.27,58.00 114.96,58.54 112.00,44.00
             112.00,44.00 40.00,44.00 40.00,44.00
             40.00,44.00 40.00,455.00 40.00,455.00
             40.00,455.00 95.00,455.00 95.00,455.00
             95.00,455.00 132.00,455.00 132.00,455.00
             132.00,455.00 174.00,455.00 174.00,455.00
             177.31,455.07 181.00,455.23 182.16,459.05
             184.29,466.12 174.15,465.99 170.00,466.00
             170.00,466.00 65.00,466.00 65.00,466.00
             65.00,466.00 40.00,466.00 40.00,466.00
             36.86,465.95 33.82,465.96 31.43,463.57
             28.64,460.78 29.01,456.62 29.00,453.00
             29.00,453.00 29.00,131.00 29.00,131.00
             29.00,131.00 29.00,57.00 29.00,57.00
             29.00,50.90 27.15,37.53 33.11,34.17
             35.57,32.79 39.23,33.00 42.00,33.00
             42.00,33.00 111.00,33.00 111.00,33.00
             111.00,33.00 111.00,11.00 111.00,11.00 Z
           M 194.00,11.00
           C 194.00,11.00 122.00,11.00 122.00,11.00
             122.00,11.00 122.00,36.00 122.00,36.00
             122.02,39.20 121.85,42.22 124.31,44.69
             126.96,47.33 130.57,46.99 134.00,47.00
             134.00,47.00 183.00,47.00 183.00,47.00
             191.55,46.94 193.88,44.65 194.00,36.00
             194.00,36.00 194.00,11.00 194.00,11.00 Z
           M 204.00,143.00
           C 204.00,143.00 175.00,176.00 175.00,176.00
             162.45,190.54 155.85,199.97 135.00,200.00
             135.00,200.00 101.00,200.00 101.00,200.00
             94.93,200.00 87.55,200.62 82.00,197.95
             69.13,191.76 67.10,170.80 77.18,161.33
             82.84,156.02 88.93,156.14 96.00,154.58
             103.98,152.82 112.46,150.12 120.00,146.99
             144.17,136.96 157.44,124.69 177.00,108.41
             177.00,108.41 214.00,77.25 214.00,77.25
             217.77,74.11 223.64,67.85 229.00,69.62
             237.10,72.29 245.20,87.09 247.65,95.00
             252.77,111.48 248.49,123.20 245.01,139.00
             242.39,150.91 240.15,165.84 240.05,178.00
             240.05,178.00 240.05,185.00 240.05,185.00
             240.39,189.45 242.57,196.05 237.77,198.98
             235.77,200.20 232.31,200.00 230.00,200.00
             230.00,200.00 220.00,200.00 220.00,200.00
             216.85,199.95 213.29,200.11 211.74,196.77
             210.73,194.61 211.05,189.55 210.99,187.00
             210.99,187.00 209.91,174.00 209.91,174.00
             209.91,174.00 204.00,143.00 204.00,143.00 Z
           M 227.00,81.00
           C 227.00,81.00 172.00,126.75 172.00,126.75
             156.16,139.96 139.41,151.25 120.00,158.58
             113.53,161.02 105.75,163.60 99.00,165.00
             95.21,165.78 88.16,166.68 85.21,168.89
             79.30,173.31 79.95,183.18 86.05,187.26
             89.05,189.27 92.56,188.99 96.00,189.00
             96.00,189.00 137.00,189.00 137.00,189.00
             150.86,188.83 156.63,180.69 165.00,171.00
             165.00,171.00 190.95,141.00 190.95,141.00
             190.95,141.00 201.28,129.42 201.28,129.42
             207.37,124.22 230.38,123.16 235.75,120.30
             239.52,118.29 239.07,112.67 238.99,109.00
             238.73,97.91 234.37,89.10 227.00,81.00 Z
           M 375.14,91.07
           C 385.30,88.56 384.20,104.30 379.73,106.96
             376.74,108.74 373.41,107.09 372.43,103.89
             371.08,99.51 371.69,94.05 375.14,91.07 Z
           M 354.15,112.02
           C 358.40,110.51 369.47,110.41 367.16,117.90
             364.63,126.07 343.81,121.23 354.15,112.02 Z
           M 390.23,111.96
           C 393.22,110.95 397.93,110.34 400.69,111.96
             403.68,114.17 403.72,119.52 399.85,121.26
             391.91,124.85 381.84,117.80 390.23,111.96 Z
           M 375.22,126.78
           C 385.50,125.23 384.29,140.35 378.87,142.21
             371.63,144.69 369.26,130.94 375.22,126.78 Z
           M 235.00,132.00
           C 235.00,132.00 213.00,136.00 213.00,136.00
             213.00,136.00 218.55,158.00 218.55,158.00
             218.55,158.00 222.00,189.00 222.00,189.00
             222.00,189.00 230.00,189.00 230.00,189.00
             230.00,189.00 229.18,180.00 229.18,180.00
             229.18,180.00 229.91,173.00 229.91,173.00
             229.91,173.00 231.28,154.00 231.28,154.00
             231.28,154.00 235.00,132.00 235.00,132.00 Z
           M 472.22,189.04
           C 482.83,185.76 481.78,203.39 475.95,205.16
             469.08,207.23 466.21,194.52 472.22,189.04 Z
           M 451.23,210.02
           C 454.19,208.94 459.86,208.14 462.69,210.02
             465.55,211.94 465.53,216.57 461.85,218.69
             455.60,222.29 443.84,217.08 451.23,210.02 Z
           M 487.15,209.88
           C 490.15,208.95 494.73,208.32 497.81,209.88
             501.44,211.45 501.75,216.44 497.81,218.69
             491.51,222.34 478.97,217.37 487.15,209.88 Z
           M 328.00,319.00
           C 328.00,319.00 328.00,291.00 328.00,291.00
             328.00,270.66 327.49,254.14 342.44,238.17
             365.56,213.46 406.59,219.41 423.55,248.00
             431.64,261.66 429.98,273.93 430.00,289.00
             430.01,293.52 430.29,299.93 432.93,303.79
             435.17,307.07 444.15,310.80 448.00,312.76
             448.00,312.76 461.00,319.75 461.00,319.75
             473.37,325.98 484.13,329.43 488.56,344.00
             488.56,344.00 498.71,382.00 498.71,382.00
             500.86,389.57 505.26,403.67 504.96,411.00
             504.37,425.57 493.16,435.72 479.00,437.00
             479.00,437.00 486.00,501.00 486.00,501.00
             497.55,494.78 499.68,481.00 500.83,469.00
             501.28,464.35 499.48,454.58 505.10,452.84
             512.29,450.62 512.04,460.85 512.00,465.00
             511.84,478.73 507.46,502.81 494.00,509.55
             490.99,511.05 474.16,511.99 470.00,512.00
             470.00,512.00 279.00,512.00 279.00,512.00
             275.36,511.99 272.53,512.12 269.00,510.89
             247.93,503.57 247.97,471.18 248.00,453.00
             248.05,421.24 262.54,373.40 280.00,347.00
             286.25,337.55 297.78,323.01 309.00,319.79
             312.09,318.90 314.83,319.00 318.00,319.00
             318.00,319.00 328.00,319.00 328.00,319.00 Z
           M 472.23,225.03
           C 482.88,221.51 480.80,236.97 477.69,238.97
             474.63,240.94 471.02,239.03 469.74,235.94
             468.05,231.89 469.14,227.86 472.23,225.03 Z
           M 400.00,388.00
           C 398.53,381.48 394.00,368.00 394.53,362.00
             395.75,348.04 417.22,321.69 419.86,312.00
             420.08,309.98 420.00,307.12 419.86,305.00
             419.86,305.00 419.86,281.00 419.86,281.00
             419.98,268.41 418.11,256.89 409.68,247.01
             394.06,228.73 364.92,229.24 349.18,247.01
             338.52,259.04 339.00,271.12 339.00,286.00
             339.00,286.00 339.00,319.00 339.00,319.00
             339.00,319.00 380.00,319.00 380.00,319.00
             383.37,319.05 389.14,319.31 389.14,324.02
             389.14,330.23 379.16,329.99 375.00,330.00
             375.00,330.00 339.00,330.00 339.00,330.00
             339.00,332.49 339.22,337.85 338.40,339.98
             336.58,344.69 331.88,345.55 329.31,340.89
             327.73,338.03 328.00,333.25 328.00,330.00
             322.98,330.00 313.09,329.14 309.02,331.74
             303.07,335.53 302.49,340.71 301.58,347.00
             301.58,347.00 297.00,388.00 297.00,388.00
             297.00,388.00 374.00,388.00 374.00,388.00
             374.02,385.94 373.92,383.00 374.74,381.11
             376.49,377.04 380.61,376.59 383.26,380.15
             385.00,382.49 384.93,385.25 385.00,388.00
             385.00,388.00 400.00,388.00 400.00,388.00 Z
           M 88.15,235.02
           C 92.80,233.36 98.09,234.00 103.00,234.00
             103.00,234.00 129.00,234.00 129.00,234.00
             129.00,234.00 220.00,234.00 220.00,234.00
             221.91,234.00 225.18,233.88 226.89,234.60
             230.81,236.23 231.30,240.79 227.77,242.98
             225.80,244.20 222.28,244.00 220.00,244.00
             220.00,244.00 116.00,244.00 116.00,244.00
             116.00,244.00 94.00,244.00 94.00,244.00
             87.88,243.91 81.46,241.03 88.15,235.02 Z
           M 278.11,272.74
           C 289.38,270.19 289.89,281.82 283.89,284.60
             277.07,287.76 269.47,278.21 278.11,272.74 Z
           M 147.00,322.00
           C 145.73,337.54 139.65,360.61 126.00,369.45
             100.30,386.12 66.37,369.16 66.00,338.00
             66.00,338.00 66.00,334.00 66.00,334.00
             66.40,300.18 100.71,291.82 128.00,289.91
             128.00,289.91 138.00,289.00 138.00,289.00
             138.00,289.00 158.00,289.00 158.00,289.00
             158.00,289.00 179.00,289.00 179.00,289.00
             179.00,289.00 199.00,290.75 199.00,290.75
             210.86,292.68 228.83,297.17 237.71,305.47
             261.58,327.77 249.14,375.59 214.00,376.00
             193.39,376.24 181.33,365.25 175.43,346.00
             175.43,346.00 170.28,325.10 170.28,325.10
             169.66,323.73 169.00,322.90 167.77,322.00
             161.74,317.60 153.45,320.85 147.00,322.00 Z
           M 129.00,300.33
           C 114.90,302.10 91.57,304.68 82.63,317.00
             77.52,324.05 76.90,329.65 77.00,338.00
             77.21,355.32 91.05,366.67 108.00,364.83
             128.86,362.56 133.81,339.20 136.27,322.00
             136.27,322.00 137.17,313.00 137.17,313.00
             137.87,305.84 138.35,300.45 129.00,300.33 Z
           M 170.00,300.00
           C 170.00,300.00 148.00,300.00 148.00,300.00
             148.00,300.00 148.00,310.00 148.00,310.00
             157.77,309.21 158.58,308.13 169.00,310.00
             169.00,310.00 170.00,300.00 170.00,300.00 Z
           M 185.02,300.47
           C 183.15,301.23 182.20,301.30 181.15,303.23
             178.77,306.92 180.62,318.60 181.15,323.00
             183.87,340.66 188.76,364.45 211.00,364.99
             236.05,365.59 246.65,337.30 234.04,318.00
             226.36,306.27 198.52,299.36 185.02,300.47 Z
           M 427.00,324.00
           C 422.44,326.87 419.30,334.31 416.58,339.00
             413.41,344.45 406.27,355.25 405.33,361.00
             404.47,366.25 406.79,371.94 408.12,377.00
             408.12,377.00 415.85,406.00 415.85,406.00
             419.07,417.92 420.28,436.53 436.00,437.78
             440.58,438.14 449.39,435.10 454.00,433.72
             454.00,433.72 477.00,427.02 477.00,427.02
             480.86,425.84 484.71,425.18 487.96,422.58
             492.64,418.84 494.26,413.83 493.91,408.00
             493.64,403.55 490.72,393.67 489.42,389.00
             489.42,389.00 481.71,360.00 481.71,360.00
             479.96,353.83 478.73,344.96 474.47,340.21
             471.60,337.01 463.08,332.80 459.00,330.75
             459.00,330.75 437.00,320.00 437.00,320.00
             437.00,320.00 441.00,338.00 441.00,338.00
             445.20,338.38 448.46,339.11 451.98,341.65
             454.38,343.37 456.17,345.44 457.64,348.00
             467.41,365.10 442.23,383.98 428.56,365.98
             426.71,363.56 425.56,361.03 425.19,358.00
             424.07,348.78 429.91,345.75 430.52,341.00
             430.52,341.00 427.00,324.00 427.00,324.00 Z
           M 441.02,349.47
           C 432.24,353.04 436.44,363.30 443.00,362.38
             450.27,361.37 451.85,348.96 441.02,349.47 Z
           M 290.00,353.00
           C 284.28,358.35 277.46,374.34 274.40,382.00
             266.93,400.67 259.03,430.96 259.00,451.00
             259.00,451.00 259.00,469.00 259.00,469.00
             259.12,479.05 262.00,496.74 273.00,500.00
             273.00,500.00 277.72,458.00 277.72,458.00
             277.72,458.00 286.16,386.00 286.16,386.00
             286.16,386.00 290.00,353.00 290.00,353.00 Z
           M 331.11,357.74
           C 341.77,355.43 343.32,367.71 335.96,370.22
             329.60,372.39 322.65,363.09 331.11,357.74 Z
           M 374.00,399.00
           C 374.00,399.00 295.00,399.00 295.00,399.00
             295.00,399.00 289.16,451.00 289.16,451.00
             289.16,451.00 283.00,501.00 283.00,501.00
             283.00,501.00 475.00,501.00 475.00,501.00
             475.00,501.00 471.28,467.00 471.28,467.00
             471.28,467.00 468.00,441.00 468.00,441.00
             451.65,444.30 436.24,454.60 421.00,442.61
             410.57,434.40 410.05,424.77 406.71,413.00
             405.91,410.18 404.30,401.57 402.28,399.99
             400.15,398.34 388.25,399.00 385.00,399.00
             384.93,401.67 385.01,404.53 383.26,406.76
             380.37,410.44 376.16,408.92 374.60,404.96
             373.93,403.27 374.02,400.81 374.00,399.00 Z
           M 88.23,405.02
           C 93.67,403.03 115.77,404.00 123.00,404.00
             123.00,404.00 198.00,404.00 198.00,404.00
             198.00,404.00 222.00,404.00 222.00,404.00
             225.97,404.08 231.86,405.34 230.16,410.89
             228.75,415.48 222.76,414.99 219.00,414.86
             219.00,414.86 115.00,414.86 115.00,414.86
             115.00,414.86 90.04,414.86 90.04,414.86
             84.61,412.99 84.47,408.53 88.23,405.02 Z
           M 209.23,488.02
           C 219.57,484.35 222.09,495.45 216.72,498.83
             210.15,502.96 201.71,494.95 209.23,488.02 Z" />
</svg>
