<?xml version="1.0" encoding="UTF-8" standalone="no"?>
<!DOCTYPE svg PUBLIC "-//W3C//DTD SVG 20010904//EN"
              "http://www.w3.org/TR/2001/REC-SVG-20010904/DTD/svg10.dtd">

<svg xmlns="http://www.w3.org/2000/svg"
     width="135.45mm" height="135.45mm"
     viewBox="0 0 512 512">
  <path id="stationary"
        fill="none" stroke="black" stroke-width="1"
        d="M 245.00,157.00
           C 245.00,157.00 245.00,29.00 245.00,29.00
             245.01,25.19 244.89,22.73 246.05,19.00
             251.47,1.60 268.31,2.83 283.00,3.00
             300.67,3.21 309.97,10.85 310.00,29.00
             310.00,29.00 310.00,157.00 310.00,157.00
             310.00,157.00 294.00,157.00 294.00,157.00
             294.00,157.00 294.00,79.00 294.00,79.00
             294.00,79.00 294.00,62.00 294.00,62.00
             294.00,62.00 292.40,55.60 292.40,55.60
             292.40,55.60 284.00,54.00 284.00,54.00
             284.00,54.00 271.00,54.00 271.00,54.00
             271.00,54.00 262.60,55.60 262.60,55.60
             262.60,55.60 261.00,64.00 261.00,64.00
             261.00,64.00 261.00,79.00 261.00,79.00
             261.00,79.00 261.00,157.00 261.00,157.00
             261.00,157.00 245.00,157.00 245.00,157.00 Z
           M 138.00,244.00
           C 138.00,244.00 124.63,191.00 124.63,191.00
             124.63,191.00 99.88,92.00 99.88,92.00
             99.88,92.00 91.13,56.00 91.13,56.00
             90.01,51.53 87.72,44.40 90.17,40.13
             92.92,35.35 110.29,32.55 116.00,31.13
             116.00,31.13 166.00,18.63 166.00,18.63
             166.00,18.63 194.00,12.17 194.00,12.17
             202.87,11.45 203.86,16.96 205.63,24.00
             205.63,24.00 215.63,64.00 215.63,64.00
             215.63,64.00 242.37,172.00 242.37,172.00
             242.37,172.00 252.37,213.00 252.37,213.00
             252.37,213.00 259.00,240.00 259.00,240.00
             259.00,240.00 243.00,244.00 243.00,244.00
             243.00,244.00 234.00,207.00 234.00,207.00
             234.00,207.00 209.00,213.00 209.00,213.00
             209.00,213.00 205.00,197.00 205.00,197.00
             205.00,197.00 230.00,191.00 230.00,191.00
             230.00,191.00 224.37,168.00 224.37,168.00
             223.78,165.63 223.13,161.44 220.70,160.32
             218.57,159.34 213.33,161.05 211.00,161.63
             211.00,161.63 186.00,167.87 186.00,167.87
             182.90,168.65 176.41,171.08 173.93,168.40
             172.39,166.72 170.53,157.62 170.00,155.00
             170.00,155.00 218.00,143.00 218.00,143.00
             218.00,143.00 212.37,120.00 212.37,120.00
             211.78,117.63 211.14,113.44 208.70,112.32
             206.75,111.42 203.03,112.62 201.00,113.13
             201.00,113.13 185.00,117.00 185.00,117.00
             185.00,117.00 182.69,102.31 182.69,102.31
             182.69,102.31 189.00,99.12 189.00,99.12
             189.00,99.12 206.00,95.00 206.00,95.00
             206.00,95.00 200.37,72.00 200.37,72.00
             199.78,69.63 199.14,65.44 196.70,64.32
             194.90,63.49 191.86,64.42 190.00,64.87
             190.00,64.87 174.00,69.00 174.00,69.00
             172.88,65.96 169.05,55.39 171.64,52.98
             173.12,51.60 185.13,49.20 188.00,48.36
             190.55,47.61 192.97,46.98 193.22,43.89
             193.47,40.86 191.24,31.81 187.86,31.06
             185.44,30.52 168.69,35.24 165.00,36.12
             165.00,36.12 107.00,50.00 107.00,50.00
             107.00,50.00 119.63,102.00 119.63,102.00
             119.63,102.00 142.63,195.00 142.63,195.00
             142.63,195.00 150.63,227.00 150.63,227.00
             151.30,229.75 153.53,237.08 151.94,239.44
             150.41,241.71 140.89,243.42 138.00,244.00 Z
           M 265.11,20.60
           C 263.61,21.55 263.22,21.38 262.39,23.15
             260.70,25.64 260.13,35.03 262.39,36.98
             264.08,38.15 267.18,37.99 269.00,38.00
             269.00,38.00 286.00,38.00 286.00,38.00
             287.82,37.99 290.92,38.15 292.40,36.98
             293.90,35.79 293.91,33.73 293.98,32.00
             294.12,28.71 294.26,23.93 291.57,21.60
             289.38,19.69 285.74,20.01 283.00,20.00
             277.71,19.99 270.06,19.50 265.11,20.60 Z
           M 291.00,240.00
           C 291.00,240.00 304.28,193.00 304.28,193.00
             304.28,193.00 327.28,115.00 327.28,115.00
             327.28,115.00 336.14,85.00 336.14,85.00
             337.29,80.97 338.19,75.37 342.11,73.17
             346.74,70.58 355.20,73.84 360.00,75.34
             360.00,75.34 403.00,88.00 403.00,88.00
             408.50,89.58 416.56,90.62 418.31,97.02
             419.22,100.35 417.28,105.67 416.28,109.00
             416.28,109.00 409.14,133.00 409.14,133.00
             409.14,133.00 386.72,209.00 386.72,209.00
             386.72,209.00 380.29,231.00 380.29,231.00
             379.63,233.31 377.92,240.05 376.72,241.67
             374.06,245.30 361.37,241.56 361.46,236.89
             361.46,236.89 367.34,216.00 367.34,216.00
             367.34,216.00 378.86,177.00 378.86,177.00
             378.86,177.00 383.26,162.00 383.26,162.00
             383.83,159.94 384.65,157.42 383.26,155.51
             381.86,153.67 378.14,152.93 376.00,152.28
             376.00,152.28 360.00,147.58 360.00,147.58
             360.00,147.58 345.00,143.14 345.00,143.14
             343.16,142.63 340.09,141.58 338.28,142.35
             335.89,143.35 335.24,146.78 334.58,149.00
             334.58,149.00 329.28,167.00 329.28,167.00
             329.28,167.00 315.98,212.00 315.98,212.00
             315.98,212.00 307.00,244.00 307.00,244.00
             307.00,244.00 291.00,240.00 291.00,240.00 Z
           M 400.00,104.00
           C 400.00,104.00 352.00,90.00 352.00,90.00
             352.00,90.00 342.00,125.00 342.00,125.00
             342.00,125.00 377.00,135.58 377.00,135.58
             379.70,136.37 387.19,139.25 389.49,137.89
             391.53,136.67 392.63,131.29 393.34,129.00
             395.22,122.97 399.49,109.69 400.00,104.00 Z
           M 349.00,159.00
           C 349.00,159.00 365.00,163.00 365.00,163.00
             365.00,163.00 348.00,223.00 348.00,223.00
             348.00,223.00 332.00,219.00 332.00,219.00
             332.00,219.00 349.00,159.00 349.00,159.00 Z
           M 122.04,252.74
           C 127.71,251.34 143.29,252.00 150.00,252.00
             150.00,252.00 204.00,252.00 204.00,252.00
             204.00,252.00 376.00,252.00 376.00,252.00
             381.15,252.01 386.01,251.76 388.93,257.04
             391.02,261.17 389.23,266.55 388.93,271.00
             388.93,271.00 386.96,306.00 386.96,306.00
             386.96,306.00 385.09,328.00 385.09,328.00
             385.09,328.00 381.09,386.00 381.09,386.00
             381.09,386.00 378.09,429.00 378.09,429.00
             378.09,429.00 376.10,456.00 376.10,456.00
             376.10,456.00 376.10,466.00 376.10,466.00
             376.10,466.00 374.17,486.00 374.17,486.00
             373.77,490.19 374.62,495.23 371.49,498.58
             368.17,502.15 362.47,501.99 358.00,502.00
             358.00,502.00 149.00,502.00 149.00,502.00
             144.51,501.99 138.71,502.18 135.31,498.70
             132.18,495.48 132.07,488.29 132.00,484.00
             132.00,484.00 130.04,458.00 130.04,458.00
             130.04,458.00 127.09,416.00 127.09,416.00
             127.09,416.00 122.91,350.00 122.91,350.00
             122.91,350.00 119.99,309.00 119.99,309.00
             119.99,309.00 119.09,300.00 119.09,300.00
             119.09,300.00 117.91,278.00 117.91,278.00
             117.91,278.00 117.00,264.00 117.00,264.00
             117.03,258.37 116.79,255.80 122.04,252.74 Z
           M 372.00,269.00
           C 372.00,269.00 134.00,269.00 134.00,269.00
             134.00,269.00 135.91,295.00 135.91,295.00
             135.91,295.00 139.91,353.00 139.91,353.00
             139.91,353.00 149.00,485.00 149.00,485.00
             149.00,485.00 358.00,485.00 358.00,485.00
             358.00,485.00 360.91,440.00 360.91,440.00
             360.91,440.00 368.09,331.00 368.09,331.00
             368.09,331.00 372.00,269.00 372.00,269.00 Z" />
</svg>
