<?xml version="1.0" encoding="UTF-8" standalone="no"?>
<!DOCTYPE svg PUBLIC "-//W3C//DTD SVG 20010904//EN"
              "http://www.w3.org/TR/2001/REC-SVG-20010904/DTD/svg10.dtd">

<svg xmlns="http://www.w3.org/2000/svg"
     width="135.45mm" height="135.45mm"
     viewBox="0 0 512 512">
  <path id="filter-brand"
        fill="none" stroke="black" stroke-width="1"
        d="M 78.00,416.00
           C 78.00,416.00 78.00,446.00 78.00,446.00
             78.05,449.66 78.27,452.51 79.56,456.00
             83.13,465.66 92.86,473.20 103.00,474.90
             103.00,474.90 118.00,474.90 118.00,474.90
             118.00,474.90 139.00,474.90 139.00,474.90
             141.63,475.00 145.50,474.78 147.81,476.17
             152.18,478.86 151.82,486.36 147.81,489.26
             145.10,491.28 141.25,490.99 138.00,491.00
             114.19,491.04 87.04,495.40 70.53,474.00
             68.23,471.03 65.84,466.51 64.46,463.00
             62.25,457.34 62.01,453.94 62.00,448.00
             62.00,448.00 62.00,415.00 62.00,415.00
             62.00,412.62 62.21,409.30 60.98,407.21
             59.53,404.75 54.56,402.31 52.00,400.85
             52.00,400.85 32.00,389.42 32.00,389.42
             27.29,386.76 21.23,383.75 17.00,380.47
             3.21,369.80 -0.19,358.64 0.00,342.00
             0.14,330.59 5.26,322.61 10.72,313.00
             10.72,313.00 27.72,283.00 27.72,283.00
             30.73,277.71 35.26,266.49 42.00,266.19
             44.16,266.09 46.14,266.77 47.69,268.31
             52.88,273.51 48.09,281.05 45.28,286.00
             45.28,286.00 23.72,324.00 23.72,324.00
             18.41,333.34 13.37,341.89 17.10,353.00
             21.89,367.26 39.67,374.51 52.00,381.58
             52.00,381.58 144.00,433.77 144.00,433.77
             155.05,439.78 163.68,447.08 177.00,442.64
             181.84,441.02 185.37,438.66 188.90,434.96
             193.12,430.52 198.68,419.77 202.00,414.00
             202.00,414.00 226.42,371.00 226.42,371.00
             226.42,371.00 305.28,232.00 305.28,232.00
             305.28,232.00 335.30,179.00 335.30,179.00
             339.73,170.94 346.72,161.15 347.70,152.00
             348.49,144.64 341.15,129.37 338.20,122.00
             338.20,122.00 320.00,77.00 320.00,77.00
             320.00,77.00 308.87,51.00 308.87,51.00
             303.83,43.10 293.66,36.48 284.00,37.18
             284.00,37.18 216.00,47.73 216.00,47.73
             206.56,49.12 187.39,50.87 180.00,55.85
             169.75,62.76 158.60,86.52 152.00,98.00
             152.00,98.00 94.72,199.00 94.72,199.00
             94.72,199.00 66.76,247.96 66.76,247.96
             61.01,256.23 51.88,253.08 51.19,246.00
             50.64,240.47 59.37,227.34 62.30,222.00
             62.30,222.00 97.00,161.00 97.00,161.00
             97.00,161.00 140.70,84.00 140.70,84.00
             147.56,71.51 157.58,50.81 169.00,42.90
             180.20,35.14 194.84,34.62 208.00,32.58
             208.00,32.58 253.00,25.58 253.00,25.58
             253.00,25.58 284.00,21.04 284.00,21.04
             298.75,20.47 313.67,27.63 321.90,40.00
             325.97,46.12 331.58,61.46 334.60,69.00
             334.60,69.00 350.80,109.00 350.80,109.00
             355.50,120.71 363.47,136.55 363.96,149.00
             364.57,164.65 355.27,177.99 347.85,191.00
             347.85,191.00 322.85,235.00 322.85,235.00
             322.85,235.00 309.00,259.00 309.00,259.00
             309.00,259.00 354.00,259.00 354.00,259.00
             356.44,259.00 359.73,258.81 361.89,260.02
             366.20,262.44 367.21,268.91 363.57,272.35
             360.50,275.25 355.91,274.99 352.00,275.00
             352.00,275.00 309.00,275.00 309.00,275.00
             306.53,275.00 303.30,274.80 301.10,276.02
             298.23,277.61 296.04,282.16 294.42,285.00
             294.42,285.00 283.00,306.00 283.00,306.00
             292.06,303.83 295.87,306.62 296.00,316.00
             296.00,316.00 296.00,394.00 296.00,394.00
             295.99,396.85 296.22,400.27 294.69,402.79
             291.67,407.73 284.16,407.82 281.17,402.79
             279.78,400.44 280.00,396.68 280.00,394.00
             280.00,394.00 280.00,376.00 280.00,376.00
             280.00,376.00 280.00,351.00 280.00,351.00
             280.00,342.35 280.94,317.81 279.00,311.00
             279.00,311.00 276.14,318.00 276.14,318.00
             276.14,318.00 276.14,342.00 276.14,342.00
             276.14,342.00 276.14,383.00 276.14,383.00
             276.00,390.21 278.39,404.43 269.00,406.34
             260.64,408.03 260.01,399.77 260.00,394.00
             260.00,394.00 260.00,364.00 260.00,364.00
             260.00,358.08 260.62,351.71 259.00,346.00
             259.00,346.00 245.39,373.00 245.39,373.00
             243.79,380.13 246.73,397.43 243.55,402.79
             239.57,409.49 232.38,406.62 229.00,401.00
             229.00,401.00 219.00,418.00 219.00,418.00
             219.00,418.00 226.00,418.00 226.00,418.00
             237.19,418.21 237.43,427.26 233.35,431.35
             230.10,434.61 220.94,434.79 217.00,432.83
             215.08,431.87 213.59,430.40 212.00,429.00
             206.24,447.22 188.91,459.92 170.00,460.00
             152.61,460.07 148.47,455.25 134.00,447.30
             134.00,447.30 78.00,416.00 78.00,416.00 Z
           M 272.00,56.47
           C 277.28,55.73 282.01,55.84 287.00,57.95
             309.67,67.56 304.39,105.11 276.00,103.96
             248.05,102.83 244.25,63.08 272.00,56.47 Z
           M 276.00,72.47
           C 272.79,73.71 270.20,75.26 269.53,79.00
             268.59,84.32 273.89,88.79 278.98,87.55
             287.09,85.58 287.37,71.94 276.00,72.47 Z
           M 190.11,94.74
           C 198.57,92.69 208.75,100.86 216.00,105.00
             216.00,105.00 276.00,139.00 276.00,139.00
             281.93,142.41 297.90,149.12 298.85,156.00
             299.69,162.11 296.02,165.50 290.00,164.77
             285.47,164.22 277.21,159.00 273.00,156.58
             273.00,156.58 201.00,115.72 201.00,115.72
             195.16,112.40 185.58,108.92 186.13,101.00
             186.37,97.45 187.30,96.52 190.11,94.74 Z
           M 179.02,115.75
           C 186.28,114.36 196.65,121.95 203.00,125.58
             203.00,125.58 232.00,142.14 232.00,142.14
             232.00,142.14 257.96,156.86 257.96,156.86
             266.76,162.42 264.37,170.31 258.96,172.40
             252.73,174.81 242.43,167.25 237.00,164.15
             237.00,164.15 202.00,144.30 202.00,144.30
             202.00,144.30 177.22,129.91 177.22,129.91
             171.63,125.31 173.06,119.07 179.02,115.75 Z
           M 169.04,133.69
           C 176.17,132.79 183.97,138.96 190.00,142.42
             190.00,142.42 235.00,168.00 235.00,168.00
             240.33,171.04 251.98,175.55 253.11,182.00
             253.51,184.31 252.96,186.91 251.44,188.72
             246.38,194.74 238.07,189.04 233.00,186.15
             233.00,186.15 173.00,152.00 173.00,152.00
             170.59,150.61 167.22,148.89 165.43,146.79
             161.12,141.75 163.48,136.17 169.04,133.69 Z
           M 159.02,150.74
           C 166.76,149.05 176.38,156.63 183.00,160.42
             183.00,160.42 222.00,182.58 222.00,182.58
             222.00,182.58 238.96,192.32 238.96,192.32
             246.45,197.32 244.35,205.36 238.96,207.40
             233.10,209.61 222.14,201.94 217.00,199.00
             217.00,199.00 178.00,176.86 178.00,176.86
             178.00,176.86 158.06,165.37 158.06,165.37
             152.34,160.84 152.65,154.33 159.02,150.74 Z
           M 272.04,178.02
           C 288.15,172.58 285.89,192.66 275.96,197.82
             270.47,200.68 264.69,197.20 264.65,191.00
             264.63,186.03 268.24,180.82 272.04,178.02 Z
           M 139.11,184.74
           C 147.53,182.70 155.97,189.55 163.00,193.58
             163.00,193.58 219.96,225.96 219.96,225.96
             227.04,230.91 225.80,238.97 219.96,241.26
             214.01,243.59 203.30,235.73 198.00,232.72
             198.00,232.72 140.02,199.76 140.02,199.76
             134.23,195.81 132.68,188.82 139.11,184.74 Z
           M 131.00,201.61
           C 138.23,200.99 148.63,208.78 155.00,212.42
             155.00,212.42 188.00,231.14 188.00,231.14
             188.00,231.14 208.96,243.01 208.96,243.01
             217.51,248.46 215.74,256.86 209.91,258.57
             203.04,260.58 193.90,253.55 188.00,250.30
             188.00,250.30 151.00,229.30 151.00,229.30
             151.00,229.30 128.23,216.10 128.23,216.10
             122.72,211.44 124.31,204.20 131.00,201.61 Z
           M 258.00,205.61
           C 274.07,204.24 266.80,225.31 258.00,227.39
             252.62,228.65 247.74,224.62 248.25,219.00
             248.77,213.35 252.84,207.64 258.00,205.61 Z
           M 115.04,228.66
           C 122.55,227.48 130.68,233.95 137.00,237.58
             137.00,237.58 179.00,261.42 179.00,261.42
             182.94,263.68 194.90,269.78 197.35,272.53
             202.57,278.39 198.63,286.95 190.00,285.76
             185.50,285.15 170.81,276.01 166.00,273.28
             166.00,273.28 114.10,243.68 114.10,243.68
             107.61,239.17 107.65,232.04 115.04,228.66 Z
           M 240.10,234.85
           C 254.79,230.86 252.68,250.21 243.91,254.98
             238.82,257.74 232.48,255.08 232.15,249.00
             231.86,243.61 235.70,237.61 240.10,234.85 Z
           M 98.04,257.74
           C 106.14,255.85 115.17,263.07 122.00,267.00
             122.00,267.00 175.00,297.15 175.00,297.15
             177.31,298.51 179.83,299.86 181.40,302.10
             184.01,305.84 183.43,312.14 178.89,314.14
             172.87,316.80 162.29,309.17 157.00,306.15
             157.00,306.15 116.00,282.85 116.00,282.85
             116.00,282.85 96.23,271.37 96.23,271.37
             91.18,266.90 92.58,260.92 98.04,257.74 Z
           M 387.11,260.02
           C 392.50,258.14 405.68,258.99 412.00,259.00
             433.63,259.03 441.53,269.41 454.00,285.00
             454.00,285.00 469.88,305.00 469.88,305.00
             469.88,305.00 494.40,336.00 494.40,336.00
             502.17,345.72 508.09,351.55 511.24,364.00
             512.27,368.07 512.05,373.71 512.00,378.00
             511.80,394.90 501.30,404.53 491.65,417.00
             491.65,417.00 459.20,458.00 459.20,458.00
             443.78,477.27 436.41,490.96 409.00,491.00
             409.00,491.00 184.00,491.00 184.00,491.00
             180.85,490.99 177.01,491.21 174.21,489.55
             169.63,486.83 169.01,480.06 173.28,476.74
             175.88,474.71 179.86,475.01 183.00,475.00
             183.00,475.00 407.00,475.00 407.00,475.00
             424.18,474.92 429.11,468.61 439.20,456.00
             439.20,456.00 453.42,438.00 453.42,438.00
             453.42,438.00 483.60,400.00 483.60,400.00
             491.26,390.42 498.50,382.17 495.47,369.00
             493.32,359.61 477.71,342.14 471.20,334.00
             471.20,334.00 441.20,296.00 441.20,296.00
             435.54,288.90 429.58,280.56 421.00,276.88
             414.43,274.06 404.27,275.01 397.00,275.00
             393.74,274.99 390.04,275.20 387.11,273.55
             381.20,270.22 382.48,263.77 387.11,260.02 Z
           M 224.04,263.74
           C 241.77,259.61 234.79,286.75 222.02,284.76
             212.28,283.24 215.48,268.66 224.04,263.74 Z
           M 85.11,279.02
           C 93.37,276.16 101.05,282.77 108.00,286.72
             108.00,286.72 150.00,310.58 150.00,310.58
             154.01,312.88 167.00,319.63 169.35,322.38
             174.57,328.48 169.84,336.82 162.00,335.57
             157.92,334.92 144.41,326.67 140.00,324.15
             140.00,324.15 94.00,298.00 94.00,298.00
             87.12,294.04 74.72,287.43 85.11,279.02 Z
           M 207.10,292.74
           C 223.66,288.63 219.60,308.29 210.96,312.82
             205.54,315.67 199.40,312.20 199.37,306.00
             199.35,301.24 203.19,295.15 207.10,292.74 Z
           M 76.04,296.74
           C 83.77,295.04 92.32,302.14 99.00,305.77
             99.00,305.77 126.00,321.14 126.00,321.14
             126.00,321.14 154.98,337.62 154.98,337.62
             163.40,343.02 162.04,351.15 155.98,353.40
             149.98,355.62 139.30,347.82 134.00,344.86
             134.00,344.86 97.00,323.86 97.00,323.86
             97.00,323.86 75.11,311.21 75.11,311.21
             69.50,306.69 69.81,300.36 76.04,296.74 Z
           M 283.00,306.00
           C 283.00,306.00 282.00,306.00 282.00,306.00
             282.00,306.00 283.00,307.00 283.00,307.00
             283.00,307.00 283.00,306.00 283.00,306.00 Z
           M 324.02,305.75
           C 333.20,303.99 334.90,310.42 335.00,318.00
             335.00,318.00 335.00,394.00 335.00,394.00
             334.93,399.23 334.20,405.08 328.00,406.34
             320.02,407.96 319.01,400.75 319.00,395.00
             319.00,395.00 319.00,329.00 319.00,329.00
             319.00,324.92 318.35,312.08 320.02,309.11
             321.19,307.03 322.12,306.81 324.02,305.75 Z
           M 343.02,305.74
           C 351.99,303.79 353.90,309.32 354.00,317.00
             354.00,317.00 354.00,393.00 354.00,393.00
             354.00,395.87 354.21,399.37 352.83,401.96
             350.19,406.90 343.44,408.48 339.74,403.72
             337.71,401.12 338.01,397.14 338.00,394.00
             338.00,394.00 338.00,329.00 338.00,329.00
             338.00,324.92 337.35,312.08 339.02,309.11
             340.19,307.02 341.13,306.81 343.02,305.74 Z
           M 364.04,305.74
           C 373.00,303.77 374.90,309.36 375.00,317.00
             375.00,317.00 375.00,393.00 375.00,393.00
             375.00,395.87 375.21,399.37 373.83,401.96
             371.19,406.90 364.44,408.48 360.74,403.72
             358.71,401.12 359.01,397.14 359.00,394.00
             359.00,394.00 359.00,329.00 359.00,329.00
             359.00,324.68 358.34,312.36 360.17,309.11
             361.36,307.00 362.14,306.85 364.04,305.74 Z
           M 388.05,305.74
           C 397.39,303.68 398.98,309.26 399.00,317.00
             399.00,317.00 399.00,331.00 399.00,331.00
             399.00,331.00 399.00,421.00 399.00,421.00
             398.99,424.14 399.29,428.12 397.26,430.72
             393.94,434.99 387.17,434.37 384.45,429.79
             382.79,426.99 383.01,423.15 383.00,420.00
             383.00,420.00 383.00,335.00 383.00,335.00
             383.00,329.72 382.21,312.94 384.31,309.11
             385.49,306.96 386.14,306.88 388.05,305.74 Z
           M 282.00,307.00
           C 282.00,307.00 281.00,307.00 281.00,307.00
             281.00,307.00 282.00,308.00 282.00,308.00
             282.00,308.00 282.00,307.00 282.00,307.00 Z
           M 281.00,309.00
           C 281.00,309.00 280.00,309.00 280.00,309.00
             280.00,309.00 281.00,310.00 281.00,310.00
             281.00,310.00 281.00,309.00 281.00,309.00 Z
           M 192.02,320.75
           C 207.11,317.91 203.40,338.07 193.91,341.98
             187.61,344.58 182.36,339.39 183.24,333.00
             183.94,327.90 187.63,323.13 192.02,320.75 Z
           M 61.00,325.66
           C 68.44,325.31 83.92,336.19 91.00,340.14
             91.00,340.14 128.00,361.14 128.00,361.14
             128.00,361.14 161.98,380.35 161.98,380.35
             171.10,386.05 168.34,394.96 161.98,396.55
             156.16,398.02 143.33,389.07 138.00,386.00
             138.00,386.00 76.00,350.85 76.00,350.85
             69.94,347.39 52.68,340.37 54.47,332.00
             55.28,328.24 57.71,326.86 61.00,325.66 Z
           M 175.04,349.74
           C 192.59,345.88 186.21,372.70 173.02,370.85
             163.11,369.46 166.83,354.46 175.04,349.74 Z
           M 446.00,351.28
           C 448.70,351.09 450.23,350.92 453.00,351.28
             477.52,352.11 483.47,385.60 463.00,396.33
             458.84,398.51 454.64,399.15 450.00,398.96
             431.84,398.23 421.59,378.37 430.36,363.00
             433.98,356.67 439.21,353.54 446.00,351.28 Z
           M 450.00,367.47
           C 438.14,372.07 445.14,384.22 453.00,382.53
             461.33,380.74 461.28,366.94 450.00,367.47 Z
           M 250.06,418.74
           C 253.83,417.80 262.59,417.14 265.77,419.60
             270.49,423.24 269.46,431.19 262.96,433.35
             259.52,434.49 252.14,434.40 249.13,432.26
             243.76,428.44 244.75,421.95 250.06,418.74 Z
           M 283.11,418.74
           C 286.86,417.79 295.61,417.15 298.77,419.60
             302.82,422.72 303.67,430.86 295.98,433.35
             292.53,434.47 285.14,434.43 282.14,432.26
             276.93,428.50 278.02,421.94 283.11,418.74 Z
           M 316.11,418.74
           C 319.86,417.79 328.61,417.15 331.77,419.60
             335.82,422.72 336.67,430.86 328.98,433.35
             325.56,434.46 318.12,434.44 315.15,432.26
             310.30,428.72 311.30,421.79 316.11,418.74 Z
           M 349.11,418.74
           C 352.86,417.79 361.61,417.15 364.77,419.60
             369.33,423.11 370.04,433.33 358.00,433.96
             354.93,434.12 350.73,433.97 348.15,432.15
             343.24,428.69 344.35,421.76 349.11,418.74 Z" />
</svg>
