<?xml version="1.0" encoding="UTF-8" standalone="no"?>
<!DOCTYPE svg PUBLIC "-//W3C//DTD SVG 20010904//EN"
              "http://www.w3.org/TR/2001/REC-SVG-20010904/DTD/svg10.dtd">

<svg xmlns="http://www.w3.org/2000/svg"
     width="1284.66mm" height="1440.56mm"
     viewBox="0 0 3642 4084">
  <path id="filter-keyword"
        fill="none" stroke="black" stroke-width="1"
        d="M 412.00,390.00
           C 412.00,390.00 1507.00,390.00 1507.00,390.00
             1507.00,390.00 2055.00,390.00 2055.00,390.00
             2057.09,390.00 2060.06,389.88 2062.00,390.60
             2066.29,392.18 2079.90,406.90 2084.00,411.00
             2084.00,411.00 2101.04,429.00 2101.04,429.00
             2101.04,429.00 2125.00,453.00 2125.00,453.00
             2125.00,453.00 2147.91,474.99 2147.91,474.99
             2147.91,474.99 2186.00,513.00 2186.00,513.00
             2186.00,513.00 2253.00,580.00 2253.00,580.00
             2253.00,580.00 2374.00,701.00 2374.00,701.00
             2374.00,701.00 2396.00,724.00 2396.00,724.00
             2396.00,724.00 2523.00,851.00 2523.00,851.00
             2523.00,851.00 2534.00,861.04 2534.00,861.04
             2534.00,861.04 2563.00,890.00 2563.00,890.00
             2563.00,890.00 2630.99,958.00 2630.99,958.00
             2630.99,958.00 2665.17,992.42 2665.17,992.42
             2665.17,992.42 2710.00,1037.00 2710.00,1037.00
             2710.00,1037.00 2731.00,1057.72 2731.00,1057.72
             2731.00,1057.72 2748.00,1074.00 2748.00,1074.00
             2750.24,1076.24 2754.64,1080.32 2755.98,1083.00
             2757.19,1085.43 2756.99,1088.35 2757.00,1091.00
             2757.00,1091.00 2757.00,1446.00 2757.00,1446.00
             2757.00,1446.00 2757.00,1649.00 2757.00,1649.00
             2757.00,1649.00 2756.00,1664.00 2756.00,1664.00
             2756.00,1664.00 2756.00,2555.00 2756.00,2555.00
             2756.00,2555.00 2756.00,2884.00 2756.00,2884.00
             2756.00,2884.00 2756.00,3048.00 2756.00,3048.00
             2756.00,3048.00 2757.00,3063.00 2757.00,3063.00
             2757.00,3063.00 2757.00,3393.00 2757.00,3393.00
             2757.00,3393.00 2757.00,3470.00 2757.00,3470.00
             2757.00,3470.00 2757.00,3487.00 2757.00,3487.00
             2756.96,3488.95 2757.10,3491.63 2755.40,3492.98
             2753.81,3494.23 2749.99,3494.00 2748.00,3494.00
             2748.00,3494.00 2731.00,3494.00 2731.00,3494.00
             2731.00,3494.00 2716.00,3493.00 2716.00,3493.00
             2716.00,3493.00 1825.00,3493.00 1825.00,3493.00
             1825.00,3493.00 1496.00,3493.00 1496.00,3493.00
             1496.00,3493.00 1332.00,3493.00 1332.00,3493.00
             1332.00,3493.00 1317.00,3494.00 1317.00,3494.00
             1317.00,3494.00 765.00,3494.00 765.00,3494.00
             765.00,3494.00 766.00,3499.00 766.00,3499.00
             766.00,3499.00 763.00,3494.00 763.00,3494.00
             763.00,3494.00 755.00,3493.00 755.00,3493.00
             755.00,3493.00 754.00,3496.00 754.00,3496.00
             754.00,3496.00 748.00,3492.00 748.00,3492.00
             748.00,3492.00 716.00,3540.00 716.00,3540.00
             716.00,3540.00 722.00,3543.00 722.00,3543.00
             722.00,3543.00 702.46,3572.83 702.46,3572.83
             702.46,3572.83 698.61,3582.00 698.61,3582.00
             698.61,3582.00 680.37,3609.00 680.37,3609.00
             680.37,3609.00 664.22,3637.00 664.22,3637.00
             664.22,3637.00 649.90,3660.72 649.90,3660.72
             649.90,3660.72 646.87,3667.01 646.87,3667.01
             646.87,3667.01 631.92,3691.71 631.92,3691.71
             631.92,3691.71 629.18,3698.01 629.18,3698.01
             629.18,3698.01 617.83,3718.00 617.83,3718.00
             617.83,3718.00 602.78,3743.00 602.78,3743.00
             602.78,3743.00 581.22,3781.00 581.22,3781.00
             581.22,3781.00 542.90,3845.72 542.90,3845.72
             542.90,3845.72 539.87,3852.01 539.87,3852.01
             539.87,3852.01 536.47,3857.57 536.47,3857.57
             536.47,3857.57 534.18,3863.01 534.18,3863.01
             534.18,3863.01 526.73,3875.72 526.73,3875.72
             526.73,3875.72 524.56,3885.00 524.56,3885.00
             524.56,3885.00 502.68,3922.87 502.68,3922.87
             502.68,3922.87 495.00,3933.00 495.00,3933.00
             495.00,3933.00 491.00,3932.00 491.00,3932.00
             491.00,3932.00 488.00,3938.00 488.00,3938.00
             488.00,3938.00 482.00,3936.00 482.00,3936.00
             482.00,3936.00 480.00,3941.00 480.00,3941.00
             480.00,3941.00 473.00,3938.00 473.00,3938.00
             473.00,3938.00 471.00,3942.00 471.00,3942.00
             471.00,3942.00 463.00,3939.00 463.00,3939.00
             463.00,3939.00 462.00,3942.00 462.00,3942.00
             462.00,3942.00 446.00,3936.00 446.00,3936.00
             441.49,3938.66 432.97,3934.79 429.00,3932.00
             429.00,3932.00 425.89,3933.06 425.89,3933.06
             425.89,3933.06 409.00,3924.15 409.00,3924.15
             409.00,3924.15 396.00,3916.79 396.00,3916.79
             396.00,3916.79 387.00,3914.08 387.00,3914.08
             387.00,3914.08 373.00,3906.18 373.00,3906.18
             373.00,3906.18 356.00,3897.57 356.00,3897.57
             356.00,3897.57 302.00,3866.01 302.00,3866.01
             302.00,3866.01 239.00,3829.58 239.00,3829.58
             239.00,3829.58 201.09,3807.62 201.09,3807.62
             201.09,3807.62 191.00,3805.08 191.00,3805.08
             191.00,3805.08 181.00,3799.51 181.00,3799.51
             181.00,3799.51 173.00,3796.10 173.00,3796.10
             173.00,3796.10 138.00,3776.00 138.00,3776.00
             138.00,3776.00 140.00,3770.00 140.00,3770.00
             140.00,3770.00 132.00,3766.00 132.00,3766.00
             134.67,3756.82 137.66,3757.62 128.00,3752.00
             128.00,3752.00 129.00,3747.00 129.00,3747.00
             129.00,3747.00 126.00,3746.00 126.00,3746.00
             126.00,3746.00 128.00,3740.00 128.00,3740.00
             128.00,3740.00 122.00,3737.00 122.00,3737.00
             122.00,3737.00 125.00,3730.00 125.00,3730.00
             125.00,3730.00 120.00,3728.00 120.00,3728.00
             120.00,3728.00 122.35,3721.00 122.35,3721.00
             122.35,3721.00 123.46,3714.00 123.46,3714.00
             123.46,3714.00 136.00,3692.00 136.00,3692.00
             136.00,3692.00 132.00,3690.00 132.00,3690.00
             132.00,3690.00 135.43,3678.00 135.43,3678.00
             135.43,3678.00 163.55,3631.00 163.55,3631.00
             163.55,3631.00 176.91,3608.17 176.91,3608.17
             176.91,3608.17 195.55,3581.17 195.55,3581.17
             195.55,3581.17 199.12,3573.99 199.12,3573.99
             199.12,3573.99 209.78,3555.00 209.78,3555.00
             209.78,3555.00 224.10,3531.28 224.10,3531.28
             224.10,3531.28 227.13,3524.99 227.13,3524.99
             227.13,3524.99 247.54,3491.00 247.54,3491.00
             247.54,3491.00 250.59,3484.00 250.59,3484.00
             250.59,3484.00 256.17,3474.00 256.17,3474.00
             256.17,3474.00 271.22,3449.00 271.22,3449.00
             271.22,3449.00 292.78,3411.00 292.78,3411.00
             292.78,3411.00 331.10,3346.28 331.10,3346.28
             331.10,3346.28 340.47,3328.00 340.47,3328.00
             340.47,3328.00 378.22,3264.00 378.22,3264.00
             378.22,3264.00 404.00,3220.00 404.00,3220.00
             404.00,3220.00 402.80,3216.89 402.80,3216.89
             402.80,3216.89 414.00,3198.00 414.00,3198.00
             414.00,3198.00 408.00,3195.00 408.00,3195.00
             410.50,3186.59 411.98,3190.52 412.00,3180.00
             412.00,3180.00 412.00,3100.00 412.00,3100.00
             412.00,3100.00 412.00,2921.00 412.00,2921.00
             412.00,2921.00 412.00,2330.00 412.00,2330.00
             412.00,2330.00 412.00,390.00 412.00,390.00 Z
           M 2007.00,448.00
           C 2007.00,448.00 474.00,448.00 474.00,448.00
             474.00,448.00 474.00,1915.00 474.00,1915.00
             474.00,1915.00 474.00,2342.00 474.00,2342.00
             474.00,2342.00 474.00,2466.00 474.00,2466.00
             474.00,2466.00 474.00,2502.00 474.00,2502.00
             474.00,2502.00 475.00,2520.00 475.00,2520.00
             475.00,2520.00 475.00,2501.00 475.00,2501.00
             475.00,2501.00 475.91,2489.00 475.91,2489.00
             475.91,2489.00 480.73,2443.00 480.73,2443.00
             487.32,2397.30 500.95,2347.42 519.15,2305.00
             548.18,2237.36 586.03,2178.33 637.04,2125.00
             722.84,2035.29 841.30,1973.47 964.00,1954.42
             964.00,1954.42 1013.00,1948.91 1013.00,1948.91
             1013.00,1948.91 1024.00,1948.00 1024.00,1948.00
             1024.00,1948.00 1045.00,1947.00 1045.00,1947.00
             1045.00,1947.00 1066.00,1947.00 1066.00,1947.00
             1066.00,1947.00 1088.00,1948.00 1088.00,1948.00
             1088.00,1948.00 1119.00,1950.84 1119.00,1950.84
             1155.23,1954.71 1191.20,1962.21 1226.00,1973.02
             1286.48,1991.82 1347.01,2022.36 1398.00,2059.88
             1398.00,2059.88 1443.00,2096.58 1443.00,2096.58
             1455.06,2107.03 1466.23,2118.34 1477.09,2130.00
             1516.06,2171.83 1548.16,2216.82 1573.75,2268.00
             1605.47,2331.43 1625.99,2401.36 1632.83,2472.00
             1635.50,2499.55 1635.32,2527.30 1635.00,2555.00
             1635.00,2555.00 1634.09,2565.00 1634.09,2565.00
             1634.09,2565.00 1629.27,2612.00 1629.27,2612.00
             1620.22,2674.79 1600.56,2733.37 1572.25,2790.00
             1527.84,2878.82 1458.51,2955.99 1376.00,3011.00
             1302.03,3060.32 1215.26,3092.72 1127.00,3103.72
             1127.00,3103.72 1095.00,3107.00 1095.00,3107.00
             1095.00,3107.00 1086.00,3107.00 1086.00,3107.00
             1086.00,3107.00 1074.00,3108.00 1074.00,3108.00
             1074.00,3108.00 1033.00,3108.00 1033.00,3108.00
             1033.00,3108.00 1022.00,3107.04 1022.00,3107.04
             979.87,3105.20 937.51,3097.83 897.00,3086.00
             897.00,3086.00 834.15,3195.00 834.15,3195.00
             834.15,3195.00 815.72,3227.00 815.72,3227.00
             815.72,3227.00 806.00,3246.00 806.00,3246.00
             814.59,3252.50 822.55,3262.70 827.99,3272.00
             846.46,3303.54 845.92,3339.15 828.69,3371.00
             828.69,3371.00 804.58,3413.00 804.58,3413.00
             800.83,3419.46 794.99,3428.03 793.00,3435.00
             793.00,3435.00 2695.00,3435.00 2695.00,3435.00
             2695.00,3435.00 2695.00,1136.00 2695.00,1136.00
             2695.00,1136.00 2167.00,1136.00 2167.00,1136.00
             2167.00,1136.00 2036.00,1136.00 2036.00,1136.00
             2022.84,1135.98 2011.56,1129.28 2007.79,1116.00
             2006.90,1112.87 2007.00,1110.20 2007.00,1107.00
             2007.00,1107.00 2007.00,448.00 2007.00,448.00 Z
           M 2062.00,487.00
           C 2062.00,487.00 2061.00,505.00 2061.00,505.00
             2061.00,505.00 2061.00,540.00 2061.00,540.00
             2061.00,540.00 2061.00,662.00 2061.00,662.00
             2061.00,662.00 2061.00,1082.00 2061.00,1082.00
             2061.00,1082.00 2656.00,1082.00 2656.00,1082.00
             2656.00,1082.00 2633.00,1058.00 2633.00,1058.00
             2633.00,1058.00 2592.00,1017.00 2592.00,1017.00
             2592.00,1017.00 2462.00,887.00 2462.00,887.00
             2462.00,887.00 2062.00,487.00 2062.00,487.00 Z
           M 628.00,745.09
           C 628.00,745.09 652.00,745.09 652.00,745.09
             652.00,745.09 694.00,745.09 694.00,745.09
             694.00,745.09 822.00,745.09 822.00,745.09
             822.00,745.09 1213.00,745.09 1213.00,745.09
             1221.65,745.01 1228.57,746.54 1234.82,753.09
             1246.91,765.78 1243.85,787.89 1228.00,796.01
             1222.65,798.74 1218.82,798.99 1213.00,799.00
             1213.00,799.00 635.00,799.00 635.00,799.00
             626.73,798.99 620.45,797.63 614.18,791.68
             600.46,778.63 603.36,751.32 628.00,745.09 Z
           M 626.00,958.53
           C 626.00,958.53 660.00,958.00 660.00,958.00
             660.00,958.00 725.00,958.00 725.00,958.00
             725.00,958.00 925.00,958.00 925.00,958.00
             925.00,958.00 1542.00,958.00 1542.00,958.00
             1549.90,958.01 1555.63,959.07 1561.83,964.52
             1572.99,974.32 1573.48,991.98 1563.67,1002.91
             1556.97,1010.38 1547.52,1011.99 1538.00,1012.00
             1538.00,1012.00 814.00,1012.00 814.00,1012.00
             814.00,1012.00 639.00,1012.00 639.00,1012.00
             629.01,1011.98 620.31,1010.71 613.18,1002.96
             600.53,989.21 604.59,964.91 626.00,958.53 Z
           M 1038.00,2001.14
           C 1032.05,2002.14 1030.82,2001.97 1025.00,2002.00
             1025.00,2002.00 998.00,2004.16 998.00,2004.16
             965.64,2007.63 933.16,2014.33 902.00,2023.72
             762.41,2065.76 648.44,2162.66 583.27,2293.00
             549.78,2359.98 529.87,2437.08 529.00,2512.00
             529.00,2512.00 528.00,2528.00 528.00,2528.00
             528.00,2528.00 528.96,2539.00 528.96,2539.00
             528.96,2539.00 528.96,2554.00 528.96,2554.00
             528.96,2554.00 529.91,2564.00 529.91,2564.00
             531.66,2589.63 535.03,2614.87 540.58,2640.00
             555.90,2709.37 584.03,2775.07 625.43,2833.00
             656.85,2876.96 694.75,2916.19 738.00,2948.63
             785.86,2984.52 839.89,3012.28 897.00,3030.02
             937.79,3042.70 980.29,3051.18 1023.00,3053.04
             1023.00,3053.04 1034.00,3054.00 1034.00,3054.00
             1034.00,3054.00 1074.00,3054.00 1074.00,3054.00
             1074.00,3054.00 1087.00,3053.04 1087.00,3053.04
             1126.59,3051.31 1168.03,3043.72 1206.00,3032.28
             1326.30,2996.05 1425.78,2921.94 1495.00,2817.00
             1515.27,2786.28 1533.57,2751.46 1546.58,2717.00
             1564.14,2670.43 1574.38,2625.47 1579.17,2576.00
             1579.17,2576.00 1581.00,2551.00 1581.00,2551.00
             1581.00,2551.00 1581.00,2504.00 1581.00,2504.00
             1581.00,2504.00 1580.09,2494.00 1580.09,2494.00
             1577.87,2461.58 1573.27,2430.59 1565.37,2399.00
             1544.17,2314.19 1502.47,2236.82 1443.83,2172.00
             1443.83,2172.00 1427.00,2155.00 1427.00,2155.00
             1358.89,2086.89 1275.38,2039.97 1182.00,2016.63
             1153.76,2009.57 1125.02,2004.91 1096.00,2002.91
             1096.00,2002.91 1086.00,2002.00 1086.00,2002.00
             1086.00,2002.00 1065.00,2001.14 1065.00,2001.14
             1065.00,2001.14 1038.00,2001.14 1038.00,2001.14 Z
           M 1259.00,2144.52
           C 1270.87,2144.27 1280.42,2151.12 1290.00,2157.34
             1307.40,2168.65 1324.22,2180.61 1340.00,2194.13
             1412.93,2256.59 1458.83,2334.22 1481.63,2427.00
             1490.08,2461.42 1493.42,2496.64 1493.00,2532.00
             1492.80,2548.11 1480.72,2558.37 1465.00,2557.99
             1461.39,2557.90 1459.36,2557.56 1456.00,2556.12
             1435.59,2547.35 1439.21,2525.96 1439.00,2508.00
             1439.00,2508.00 1438.09,2498.00 1438.09,2498.00
             1436.78,2480.16 1434.28,2463.48 1430.42,2446.00
             1416.26,2381.86 1384.83,2318.22 1339.91,2270.00
             1317.16,2245.58 1292.92,2224.41 1265.00,2206.00
             1249.81,2195.98 1233.49,2191.52 1234.01,2170.00
             1234.38,2154.77 1244.66,2146.37 1259.00,2144.52 Z
           M 694.00,2295.47
           C 711.86,2292.99 727.48,2306.58 725.21,2325.00
             724.19,2333.25 720.14,2338.92 716.31,2346.00
             716.31,2346.00 702.72,2374.00 702.72,2374.00
             683.19,2419.25 671.06,2468.58 671.00,2518.00
             671.00,2518.00 671.00,2536.00 671.00,2536.00
             671.09,2615.36 701.78,2699.57 750.42,2762.00
             769.97,2787.08 792.77,2810.69 818.00,2830.11
             818.00,2830.11 848.00,2851.31 848.00,2851.31
             848.00,2851.31 865.00,2861.78 865.00,2861.78
             882.50,2874.62 878.96,2902.92 857.00,2909.78
             845.04,2913.52 836.82,2908.50 827.00,2902.42
             827.00,2902.42 815.00,2895.00 815.00,2895.00
             782.54,2873.59 752.56,2848.21 726.85,2819.00
             670.77,2755.31 633.65,2677.07 621.27,2593.00
             618.89,2576.81 617.03,2560.35 617.00,2544.00
             617.00,2544.00 616.00,2526.00 616.00,2526.00
             616.00,2526.00 616.96,2516.00 616.96,2516.00
             616.96,2516.00 616.96,2503.00 616.96,2503.00
             616.96,2503.00 617.91,2493.00 617.91,2493.00
             619.70,2467.44 623.78,2441.74 630.58,2417.00
             639.11,2385.94 650.50,2353.20 666.14,2325.00
             673.92,2310.97 676.52,2299.62 694.00,2295.47 Z
           M 475.00,2535.00
           C 475.00,2535.00 474.00,2552.00 474.00,2552.00
             474.00,2552.00 474.00,2586.00 474.00,2586.00
             474.00,2586.00 474.00,2704.00 474.00,2704.00
             474.00,2704.00 474.00,3109.00 474.00,3109.00
             489.81,3102.20 503.30,3096.21 521.00,3096.00
             529.82,3095.90 539.46,3096.88 548.00,3099.15
             548.00,3099.15 559.00,3102.00 559.00,3102.00
             559.00,3102.00 576.15,3072.00 576.15,3072.00
             576.15,3072.00 625.15,2987.00 625.15,2987.00
             625.15,2987.00 642.42,2957.00 642.42,2957.00
             644.05,2954.20 649.01,2946.96 648.77,2944.00
             648.50,2940.73 643.29,2936.29 641.00,2934.00
             641.00,2934.00 619.28,2911.00 619.28,2911.00
             594.10,2882.23 574.40,2854.74 554.80,2822.00
             519.17,2762.49 494.15,2692.39 482.75,2624.00
             482.75,2624.00 475.91,2565.00 475.91,2565.00
             475.91,2565.00 475.00,2553.00 475.00,2553.00
             475.00,2553.00 475.00,2535.00 475.00,2535.00 Z
           M 692.00,2980.00
           C 692.00,2980.00 681.58,2996.00 681.58,2996.00
             681.58,2996.00 664.80,3025.00 664.80,3025.00
             664.80,3025.00 631.99,3082.00 631.99,3082.00
             631.99,3082.00 606.00,3128.00 606.00,3128.00
             606.00,3128.00 704.00,3184.60 704.00,3184.60
             704.00,3184.60 740.00,3205.42 740.00,3205.42
             740.00,3205.42 760.00,3216.00 760.00,3216.00
             760.00,3216.00 776.42,3188.00 776.42,3188.00
             776.42,3188.00 802.42,3143.00 802.42,3143.00
             802.42,3143.00 845.00,3069.00 845.00,3069.00
             845.00,3069.00 810.00,3053.74 810.00,3053.74
             774.91,3036.76 720.21,3005.84 692.00,2980.00 Z
           M 435.00,3880.00
           C 440.46,3878.66 443.47,3881.42 449.00,3881.34
             456.75,3881.24 466.74,3876.98 473.00,3872.56
             482.53,3865.84 487.22,3855.86 492.85,3846.00
             492.85,3846.00 515.42,3807.00 515.42,3807.00
             515.42,3807.00 601.42,3658.00 601.42,3658.00
             601.42,3658.00 747.00,3406.00 747.00,3406.00
             747.00,3406.00 772.42,3362.00 772.42,3362.00
             783.34,3342.95 793.44,3327.74 784.54,3305.00
             776.65,3284.84 756.48,3276.72 739.00,3266.58
             739.00,3266.58 636.00,3207.00 636.00,3207.00
             636.00,3207.00 567.00,3167.15 567.00,3167.15
             554.17,3159.83 541.33,3150.36 526.00,3150.01
             512.55,3149.71 498.31,3154.90 489.18,3165.01
             483.63,3171.17 475.34,3187.10 470.38,3195.00
             470.38,3195.00 463.24,3205.00 463.24,3205.00
             463.24,3205.00 435.00,3251.00 435.00,3251.00
             435.00,3251.00 323.43,3441.00 323.43,3441.00
             323.43,3441.00 242.00,3586.00 242.00,3586.00
             242.00,3586.00 205.69,3652.00 205.69,3652.00
             205.69,3652.00 185.49,3689.00 185.49,3689.00
             181.82,3696.88 183.24,3697.94 182.64,3702.00
             182.64,3702.00 181.29,3708.00 181.29,3708.00
             180.89,3711.48 182.42,3722.04 184.04,3724.78
             185.10,3726.57 186.33,3727.02 188.00,3728.00
             188.00,3728.00 187.00,3733.00 187.00,3733.00
             187.00,3733.00 190.00,3734.00 190.00,3734.00
             190.21,3741.33 197.31,3746.24 203.00,3749.91
             203.00,3749.91 248.00,3775.85 248.00,3775.85
             248.00,3775.85 387.00,3854.88 387.00,3854.88
             387.00,3854.88 422.00,3874.95 422.00,3874.95
             427.10,3877.51 426.72,3875.72 435.00,3880.00 Z
           M 180.00,3716.00
           C 180.00,3716.00 179.00,3716.00 179.00,3716.00
             179.00,3716.00 180.00,3717.00 180.00,3717.00
             180.00,3717.00 180.00,3716.00 180.00,3716.00 Z
           M 460.00,3882.00
           C 460.00,3882.00 459.00,3882.00 459.00,3882.00
             459.00,3882.00 460.00,3883.00 460.00,3883.00
             460.00,3883.00 460.00,3882.00 460.00,3882.00 Z" />
</svg>
