<?xml version="1.0" encoding="UTF-8" standalone="no"?>
<!DOCTYPE svg PUBLIC "-//W3C//DTD SVG 20010904//EN"
              "http://www.w3.org/TR/2001/REC-SVG-20010904/DTD/svg10.dtd">

<svg xmlns="http://www.w3.org/2000/svg"
     width="107.835mm" height="107.835mm"
     viewBox="0 0 512 512">
  <path id="filter-money"
        fill="none" stroke="black" stroke-width="1"
        d="M 443.00,323.00
           C 443.00,323.00 443.00,440.00 443.00,440.00
             443.00,440.00 443.00,463.00 443.00,463.00
             442.94,467.34 442.55,471.41 438.79,474.28
             435.18,477.02 429.33,476.99 425.00,477.00
             425.00,477.00 202.00,477.00 202.00,477.00
             202.00,477.00 47.00,477.00 47.00,477.00
             47.00,477.00 15.00,477.00 15.00,477.00
             10.79,476.95 5.71,476.63 2.57,473.43
             -0.32,470.50 0.01,466.79 0.00,463.00
             0.00,463.00 0.00,208.00 0.00,208.00
             0.00,205.63 -0.13,202.22 0.74,200.04
             3.37,193.45 13.92,190.19 20.00,187.80
             20.00,187.80 49.00,176.20 49.00,176.20
             49.00,176.20 212.00,111.20 212.00,111.20
             212.00,111.20 356.00,54.00 356.00,54.00
             356.00,54.00 392.00,39.60 392.00,39.60
             397.23,37.51 403.31,34.27 408.98,36.28
             416.00,38.76 419.57,52.42 422.20,59.00
             422.20,59.00 449.20,127.00 449.20,127.00
             449.20,127.00 497.40,248.00 497.40,248.00
             497.40,248.00 509.00,277.00 509.00,277.00
             510.90,281.78 513.29,287.83 511.26,292.98
             508.94,298.89 499.54,301.38 494.00,303.60
             494.00,303.60 443.00,323.00 443.00,323.00 Z
           M 400.00,60.00
           C 400.00,60.00 372.00,70.60 372.00,70.60
             372.00,70.60 324.00,89.60 324.00,89.60
             324.00,89.60 181.00,146.60 181.00,146.60
             181.00,146.60 102.00,178.00 102.00,178.00
             102.00,178.00 64.00,194.00 64.00,194.00
             64.00,194.00 113.00,194.00 113.00,194.00
             124.09,193.98 120.46,192.08 129.00,188.05
             129.00,188.05 157.00,176.81 157.00,176.81
             157.00,176.81 265.00,133.80 265.00,133.80
             265.00,133.80 313.00,114.80 313.00,114.80
             317.75,112.90 334.01,106.04 338.00,105.70
             344.33,105.15 347.24,110.04 351.09,113.96
             355.02,117.97 361.93,123.06 367.00,125.51
             375.49,129.62 384.55,131.95 394.00,132.00
             397.95,132.02 402.43,131.48 405.81,133.89
             410.35,137.12 413.45,146.80 415.42,152.00
             415.42,152.00 430.62,189.95 430.62,189.95
             433.37,195.81 435.68,193.68 439.61,198.13
             443.16,202.16 442.99,206.01 443.00,211.00
             443.00,211.00 443.00,301.00 443.00,301.00
             443.00,301.00 488.00,283.00 488.00,283.00
             488.00,283.00 468.42,233.00 468.42,233.00
             468.42,233.00 418.80,108.00 418.80,108.00
             418.80,108.00 400.00,60.00 400.00,60.00 Z
           M 409.00,194.00
           C 409.00,194.00 398.20,165.00 398.20,165.00
             397.08,162.19 394.98,155.62 392.59,154.02
             390.75,152.80 381.81,152.07 379.00,151.54
             371.69,150.16 365.64,148.07 359.00,144.75
             352.86,141.68 348.37,138.85 343.00,134.54
             340.30,132.38 337.72,129.40 334.00,129.47
             331.36,129.52 322.01,133.60 319.00,134.80
             319.00,134.80 286.00,148.00 286.00,148.00
             286.00,148.00 209.00,178.80 209.00,178.80
             209.00,178.80 172.00,194.00 172.00,194.00
             172.00,194.00 409.00,194.00 409.00,194.00 Z
           M 422.00,215.00
           C 422.00,215.00 21.00,215.00 21.00,215.00
             21.00,215.00 21.00,456.00 21.00,456.00
             21.00,456.00 422.00,456.00 422.00,456.00
             422.00,456.00 422.00,215.00 422.00,215.00 Z
           M 100.00,234.11
           C 100.00,234.11 129.00,234.11 129.00,234.11
             129.00,234.11 180.00,234.11 180.00,234.11
             180.00,234.11 335.00,234.11 335.00,234.11
             339.32,234.01 347.33,234.25 350.89,236.74
             354.75,239.43 355.81,244.87 357.78,249.00
             360.33,254.34 365.16,261.67 369.17,265.96
             373.33,270.41 381.46,276.05 387.00,278.68
             391.26,280.71 397.54,282.18 400.26,286.11
             402.32,289.07 402.95,297.29 403.00,301.00
             403.00,301.00 403.00,360.00 403.00,360.00
             403.00,365.90 403.49,380.24 400.26,384.89
             397.56,388.79 392.15,389.81 388.00,391.67
             382.16,394.28 375.64,398.69 371.01,403.09
             365.52,408.31 361.55,414.23 358.26,421.00
             356.21,425.22 354.73,431.60 350.89,434.26
             347.99,436.27 344.36,435.99 341.00,436.00
             341.00,436.00 101.00,436.00 101.00,436.00
             98.65,436.00 95.19,436.13 93.04,435.26
             87.50,433.02 85.46,423.18 82.68,418.00
             79.76,412.56 75.42,407.31 71.00,403.04
             66.61,398.80 61.47,395.10 56.00,392.37
             45.39,387.06 40.03,389.16 40.00,375.00
             40.00,375.00 40.00,296.00 40.00,296.00
             40.01,292.64 39.73,289.01 41.74,286.11
             44.40,282.27 50.78,280.79 55.00,278.74
             61.77,275.45 67.69,271.48 72.91,265.99
             77.53,261.12 81.51,255.07 84.36,249.00
             86.12,245.26 87.85,239.07 91.13,236.74
             93.51,235.05 97.15,234.86 100.00,234.11 Z
           M 338.00,415.00
           C 341.38,403.14 352.47,390.18 362.00,382.67
             362.00,382.67 379.98,370.61 379.98,370.61
             381.22,368.66 381.00,365.27 381.00,363.00
             381.00,363.00 381.00,307.00 381.00,307.00
             381.00,304.91 381.26,301.42 380.01,299.68
             378.94,298.21 374.74,296.24 373.00,295.27
             368.28,292.64 365.22,290.58 361.00,287.19
             348.45,277.14 346.42,270.59 338.33,258.15
             335.87,254.36 333.09,255.01 329.00,255.00
             329.00,255.00 113.00,255.00 113.00,255.00
             110.87,255.00 107.42,254.75 105.63,255.99
             105.63,255.99 94.10,274.00 94.10,274.00
             86.82,283.58 72.75,295.64 61.00,299.00
             61.00,299.00 61.00,363.00 61.00,363.00
             61.00,365.27 60.78,368.66 62.02,370.61
             63.36,372.72 66.83,374.11 69.00,375.31
             72.39,377.18 78.06,380.88 81.00,383.32
             88.06,389.21 94.12,396.19 98.94,404.00
             98.94,404.00 103.35,411.85 103.35,411.85
             105.98,415.56 108.90,414.99 113.00,415.00
             113.00,415.00 338.00,415.00 338.00,415.00 Z
           M 210.00,275.46
           C 233.06,272.28 254.81,279.34 269.48,298.00
             293.21,328.16 282.01,374.79 247.00,390.69
             236.74,395.35 229.05,396.13 218.00,396.00
             207.21,395.87 195.87,392.02 187.00,385.97
             161.04,368.27 152.97,334.94 166.97,307.00
             175.65,289.67 191.47,279.47 210.00,275.46 Z
           M 214.00,296.32
           C 206.36,298.03 199.87,300.80 194.04,306.18
             165.78,332.28 188.60,380.62 227.00,374.56
             257.92,369.69 271.89,332.47 250.82,309.01
             240.78,297.84 228.44,294.74 214.00,296.32 Z
           M 106.00,320.56
           C 110.83,319.72 115.77,319.75 119.96,322.70
             131.74,331.00 125.58,352.46 109.00,350.80
             92.97,349.20 88.91,326.55 106.00,320.56 Z
           M 327.00,320.56
           C 332.96,319.51 338.23,319.65 342.79,324.21
             350.19,331.61 348.20,346.85 336.00,350.36
             317.24,355.77 307.07,327.59 327.00,320.56 Z
           M 110.09,331.58
           C 103.75,334.19 107.61,339.35 110.91,339.26
             114.53,339.16 117.18,332.36 110.09,331.58 Z
           M 331.09,331.58
           C 324.75,334.19 328.61,339.35 331.91,339.26
             335.53,339.16 338.18,332.36 331.09,331.58 Z" />
</svg>
