<?xml version="1.0" encoding="UTF-8" standalone="no"?>
<!DOCTYPE svg PUBLIC "-//W3C//DTD SVG 20010904//EN"
              "http://www.w3.org/TR/2001/REC-SVG-20010904/DTD/svg10.dtd">

<svg xmlns="http://www.w3.org/2000/svg"
     width="135.45mm" height="135.45mm"
     viewBox="0 0 512 512">
  <path id="oops"
        fill="none" stroke="black" stroke-width="1"
        d="M 233.00,0.14
           C 233.00,0.14 254.00,0.14 254.00,0.14
             254.00,0.14 271.00,0.14 271.00,0.14
             292.01,0.03 320.04,6.66 340.00,13.33
             340.00,13.33 364.98,23.41 364.98,23.41
             368.57,25.47 371.33,28.57 370.57,32.98
             369.44,39.50 363.29,40.25 358.00,38.45
             358.00,38.45 340.00,30.81 340.00,30.81
             329.59,26.79 318.87,23.81 308.00,21.35
             241.39,6.27 170.04,21.36 115.00,61.88
             70.23,94.84 36.71,142.94 23.13,197.00
             19.76,210.41 16.02,229.29 16.00,243.00
             15.96,269.88 15.88,289.54 23.29,316.00
             25.01,322.12 31.31,336.56 24.77,340.90
             23.14,341.98 20.93,342.41 19.00,342.09
             12.42,341.02 11.10,333.34 9.58,328.00
             5.20,312.65 0.02,286.76 0.00,271.00
             0.00,271.00 0.00,239.00 0.00,239.00
             0.22,220.45 6.43,192.70 12.33,175.00
             32.74,113.77 76.04,61.12 133.00,30.31
             157.27,17.18 183.81,7.97 211.00,3.25
             211.00,3.25 233.00,0.14 233.00,0.14 Z
           M 416.00,77.11
           C 416.00,77.11 400.00,63.89 400.00,63.89
             397.12,61.73 392.54,58.89 390.60,55.96
             386.02,49.06 392.04,41.08 400.00,44.00
             406.58,46.41 425.54,62.61 431.00,68.00
             434.03,71.00 440.59,78.11 444.00,79.83
             446.60,81.13 454.77,81.78 458.00,82.07
             469.44,83.13 485.39,83.76 493.82,92.18
             506.72,105.09 503.20,132.25 484.00,137.00
             492.07,155.73 498.84,169.91 504.12,190.00
             512.25,220.97 512.36,241.56 512.00,273.00
             511.78,291.30 505.49,319.53 499.67,337.00
             474.95,411.16 419.15,468.99 346.00,496.58
             325.47,504.32 292.87,511.97 271.00,512.00
             271.00,512.00 240.00,512.00 240.00,512.00
             229.55,511.87 210.45,508.73 200.00,506.42
             145.77,494.46 95.61,464.75 59.92,422.00
             50.00,410.12 40.95,397.46 33.28,384.00
             30.62,379.34 25.94,372.42 26.10,367.00
             26.34,358.97 34.89,357.03 39.39,361.43
             41.68,363.67 44.67,369.98 46.31,373.00
             46.31,373.00 56.72,390.00 56.72,390.00
             70.78,410.22 84.05,425.26 103.00,441.08
             188.73,512.64 312.38,514.70 401.00,447.12
             421.89,431.19 441.09,410.86 455.67,389.00
             473.45,362.32 485.55,333.45 491.80,302.00
             493.43,293.80 497.12,275.56 495.00,268.00
             485.82,285.09 464.27,293.90 446.00,296.28
             440.53,296.99 428.51,297.64 424.31,293.57
             420.67,290.04 421.18,282.25 428.00,280.63
             431.68,279.46 435.41,281.15 440.00,280.63
             451.26,280.01 462.04,276.26 471.00,269.32
             477.99,263.91 484.50,256.09 488.14,248.00
             499.78,222.08 489.46,193.01 465.00,178.87
             458.02,174.84 450.10,172.10 442.00,172.00
             442.00,172.00 438.00,172.00 438.00,172.00
             424.97,172.02 415.24,175.74 405.00,183.82
             398.39,189.03 394.09,194.54 390.26,202.00
             386.64,209.04 384.17,217.04 384.02,225.00
             383.80,235.94 387.94,248.10 394.21,257.00
             397.21,261.26 404.48,267.71 405.34,272.00
             406.62,278.42 400.76,282.10 395.00,280.57
             391.47,279.63 388.56,276.63 386.17,274.00
             373.44,259.93 367.79,242.76 368.00,224.00
             368.34,195.20 386.86,169.39 414.00,159.70
             424.99,155.77 430.75,155.98 442.00,156.00
             457.88,156.02 466.46,160.85 480.00,168.00
             480.00,168.00 469.97,147.00 469.97,147.00
             468.71,144.67 466.63,140.41 464.61,138.85
             461.75,136.63 450.15,134.65 446.00,133.63
             446.00,133.63 405.00,123.87 405.00,123.87
             398.66,122.33 389.02,120.60 384.02,116.61
             370.60,105.90 372.94,84.12 389.00,77.11
             398.07,73.32 406.59,76.79 416.00,77.11 Z
           M 289.00,74.42
           C 295.26,73.66 301.62,73.91 307.00,77.65
             320.57,87.08 320.47,106.90 307.00,116.35
             302.57,119.46 285.14,123.77 279.00,125.37
             279.00,125.37 239.00,136.42 239.00,136.42
             233.05,138.08 224.00,141.19 218.00,140.90
             203.71,140.20 192.17,129.51 192.00,115.00
             191.80,97.46 200.02,88.82 217.00,85.61
             223.32,84.42 236.57,80.90 238.53,90.00
             239.62,95.07 235.56,98.78 231.00,99.81
             223.36,101.54 214.56,100.44 209.74,108.02
             208.35,110.19 207.90,112.47 208.41,115.00
             209.98,122.88 216.94,125.29 224.00,123.62
             224.00,123.62 246.00,117.42 246.00,117.42
             246.00,117.42 280.00,108.00 280.00,108.00
             285.46,106.43 297.48,104.49 299.92,98.96
             301.89,94.50 296.87,89.99 291.00,90.47
             291.00,90.47 265.00,93.89 265.00,93.89
             260.22,93.41 256.63,90.07 257.66,85.00
             258.57,80.53 261.92,78.78 266.00,77.94
             266.00,77.94 289.00,74.42 289.00,74.42 Z
           M 399.00,91.63
           C 391.14,93.21 388.83,100.77 396.04,104.70
             396.04,104.70 414.00,109.37 414.00,109.37
             414.00,109.37 454.00,118.87 454.00,118.87
             459.80,120.32 471.52,124.07 477.00,122.57
             488.87,119.33 487.25,103.59 476.00,100.55
             476.00,100.55 445.00,96.84 445.00,96.84
             445.00,96.84 399.00,91.63 399.00,91.63 Z
           M 137.00,113.74
           C 148.06,111.17 152.51,122.80 156.74,131.00
             160.93,139.12 166.48,148.61 165.91,158.00
             165.01,172.57 153.46,182.59 139.00,181.96
             135.51,181.81 132.18,180.94 129.00,179.48
             124.35,177.35 121.12,174.36 118.48,170.00
             110.33,156.55 118.05,141.22 124.86,129.00
             128.07,123.25 131.04,116.92 137.00,113.74 Z
           M 141.00,136.00
           C 138.22,138.72 136.55,141.49 134.89,145.00
             133.51,147.92 131.26,152.84 131.15,156.00
             130.76,166.90 145.55,169.33 149.25,159.00
             150.54,155.39 148.59,151.29 147.14,148.00
             147.14,148.00 141.00,136.00 141.00,136.00 Z
           M 243.00,156.22
           C 243.00,156.22 259.00,156.22 259.00,156.22
             266.98,156.04 274.59,157.92 282.00,160.81
             289.31,163.67 296.15,167.94 302.00,173.17
             340.88,207.93 329.23,273.47 280.00,292.19
             273.70,294.58 259.62,297.28 253.00,296.91
             234.68,295.87 217.04,289.26 204.04,275.99
             173.77,245.06 178.23,192.51 214.00,167.77
             222.67,161.77 232.72,158.34 243.00,156.22 Z
           M 83.00,158.74
           C 94.06,156.17 98.51,167.80 102.74,176.00
             106.93,184.12 112.48,193.61 111.91,203.00
             111.01,217.57 99.46,227.59 85.00,226.96
             81.51,226.81 78.18,225.94 75.00,224.48
             70.35,222.35 67.12,219.36 64.48,215.00
             56.33,201.55 64.05,186.22 70.86,174.00
             74.07,168.25 77.04,161.92 83.00,158.74 Z
           M 255.00,171.71
           C 244.35,171.94 237.52,173.07 228.00,178.31
             221.99,181.62 216.05,186.54 211.90,192.00
             189.04,222.06 200.51,265.36 237.00,277.64
             241.49,279.16 250.33,280.92 255.00,280.92
             260.74,280.92 269.71,278.98 275.00,276.71
             315.30,259.46 321.61,205.37 285.00,180.75
             274.83,173.91 266.91,172.29 255.00,171.71 Z
           M 87.00,181.00
           C 84.22,183.72 82.55,186.49 80.89,190.00
             79.51,192.92 77.26,197.84 77.15,201.00
             76.76,211.90 91.55,214.33 95.25,204.00
             96.54,200.39 94.59,196.29 93.14,193.00
             93.14,193.00 87.00,181.00 87.00,181.00 Z
           M 246.00,186.46
           C 255.18,185.19 264.63,185.69 273.00,189.98
             288.31,197.83 295.75,213.18 294.14,230.00
             293.82,233.39 293.48,236.85 292.03,239.98
             287.81,249.11 281.62,243.38 276.43,249.23
             273.06,253.02 274.78,256.68 272.98,259.89
             269.88,265.40 258.68,266.11 253.00,265.99
             247.37,265.86 242.09,264.64 237.00,262.22
             202.51,245.80 208.11,194.90 246.00,186.46 Z
           M 430.00,186.46
           C 439.18,185.19 448.63,185.69 457.00,189.98
             472.31,197.83 479.75,213.18 478.14,230.00
             477.82,233.39 477.48,236.85 476.03,239.98
             471.81,249.11 465.62,243.38 460.43,249.23
             457.06,253.02 458.78,256.68 456.98,259.89
             453.88,265.40 442.68,266.11 437.00,265.99
             431.37,265.86 426.09,264.64 421.00,262.22
             386.51,245.80 392.11,194.90 430.00,186.46 Z
           M 278.00,230.00
           C 278.00,230.00 278.00,225.00 278.00,225.00
             277.95,221.12 277.79,218.57 276.00,215.00
             264.30,191.61 228.12,202.08 230.19,227.00
             230.74,233.68 233.80,240.24 239.04,244.47
             242.68,247.41 247.33,249.40 252.00,249.82
             260.60,250.60 257.84,245.92 263.39,239.01
             267.40,234.02 271.96,231.65 278.00,230.00 Z
           M 462.00,230.00
           C 462.00,230.00 462.00,225.00 462.00,225.00
             461.95,221.12 461.79,218.57 460.00,215.00
             448.30,191.61 412.12,202.08 414.19,227.00
             414.74,233.68 417.80,240.24 423.04,244.47
             426.68,247.41 431.33,249.40 436.00,249.82
             444.60,250.60 441.84,245.92 447.39,239.01
             451.40,234.02 455.96,231.65 462.00,230.00 Z
           M 115.01,230.65
           C 125.95,228.65 129.99,239.93 134.29,248.00
             141.87,262.21 149.55,279.77 134.96,292.79
             132.60,294.90 129.98,296.39 127.00,297.45
             110.06,303.51 90.64,290.64 92.19,272.00
             92.92,263.17 100.23,249.63 104.80,242.00
             107.98,236.70 109.11,233.24 115.01,230.65 Z
           M 118.00,253.00
           C 115.35,256.16 113.56,259.24 111.86,263.00
             110.61,265.79 108.29,271.02 108.52,274.00
             109.20,282.39 120.21,285.98 125.26,278.87
             128.70,274.04 126.00,267.68 123.74,263.00
             121.81,258.99 120.62,256.66 118.00,253.00 Z
           M 217.13,312.02
           C 220.20,310.95 223.83,310.41 226.57,312.74
             229.96,315.62 229.62,322.48 225.77,324.83
             218.01,329.56 207.92,319.76 217.13,312.02 Z
           M 242.15,312.02
           C 245.15,310.95 248.98,310.32 251.69,312.60
             254.81,315.23 255.80,324.77 248.00,325.85
             238.96,327.10 236.03,317.44 242.15,312.02 Z
           M 419.13,312.02
           C 422.20,310.95 425.83,310.41 428.57,312.74
             431.96,315.62 431.62,322.48 427.77,324.83
             420.01,329.56 409.92,319.76 419.13,312.02 Z
           M 444.15,312.02
           C 447.15,310.95 450.98,310.32 453.69,312.60
             456.81,315.23 457.80,324.77 450.00,325.85
             440.96,327.10 438.03,317.44 444.15,312.02 Z
           M 205.06,333.02
           C 208.10,331.99 210.96,331.43 213.77,333.60
             217.98,336.84 217.54,343.38 212.89,345.98
             205.52,350.11 195.47,340.50 205.06,333.02 Z
           M 230.06,333.02
           C 233.10,331.99 235.96,331.43 238.77,333.60
             242.98,336.84 242.54,343.38 237.89,345.98
             230.52,350.11 220.47,340.50 230.06,333.02 Z
           M 255.06,333.02
           C 258.10,331.99 260.96,331.43 263.77,333.60
             267.98,336.84 267.54,343.38 262.89,345.98
             255.52,350.11 245.47,340.50 255.06,333.02 Z
           M 407.06,333.02
           C 410.10,331.99 412.96,331.43 415.77,333.60
             419.98,336.84 419.54,343.38 414.89,345.98
             407.52,350.11 397.47,340.50 407.06,333.02 Z
           M 432.06,333.02
           C 435.10,331.99 437.96,331.43 440.77,333.60
             444.98,336.84 444.54,343.38 439.89,345.98
             432.52,350.11 422.47,340.50 432.06,333.02 Z
           M 457.06,333.02
           C 460.10,331.99 462.96,331.43 465.77,333.60
             469.98,336.84 469.54,343.38 464.89,345.98
             457.52,350.11 447.47,340.50 457.06,333.02 Z
           M 310.11,343.74
           C 315.44,342.39 326.97,343.00 333.00,343.00
             333.00,343.00 376.00,343.00 376.00,343.00
             381.03,343.01 385.97,342.65 386.85,349.00
             388.02,357.44 382.44,357.99 376.00,358.00
             376.00,358.00 318.00,358.00 318.00,358.00
             315.37,358.00 311.50,358.22 309.23,356.83
             304.30,353.82 305.41,346.72 310.11,343.74 Z" />
</svg>
