<?xml version="1.0" encoding="UTF-8" standalone="no"?>
<!DOCTYPE svg PUBLIC "-//W3C//DTD SVG 20010904//EN"
              "http://www.w3.org/TR/2001/REC-SVG-20010904/DTD/svg10.dtd">

<svg xmlns="http://www.w3.org/2000/svg"
     width="1.70667in" height="1.70667in"
     viewBox="0 0 512 512">
  <path id="compare"
        fill="none" stroke="black" stroke-width="1"
        d="M 235.00,358.00
           C 235.00,358.00 235.00,165.00 235.00,165.00
             235.00,162.72 235.22,159.35 233.98,157.39
             232.72,155.41 228.13,153.08 226.00,151.64
             222.12,149.02 219.28,146.43 216.09,143.00
             212.23,138.86 209.66,135.15 207.31,130.00
             202.83,120.15 205.32,117.07 195.00,117.00
             195.00,117.00 146.00,117.00 146.00,117.00
             146.00,117.00 117.00,117.00 117.00,117.00
             113.31,116.98 110.29,117.07 107.34,114.43
             103.73,111.19 104.01,107.41 104.00,103.00
             104.00,103.00 104.00,86.00 104.00,86.00
             104.09,81.07 105.00,77.00 110.04,74.85
             113.09,73.56 122.26,74.00 126.00,74.00
             126.00,74.00 159.00,74.00 159.00,74.00
             159.00,74.00 204.00,74.00 204.00,74.00
             217.14,73.97 215.76,67.83 227.00,60.55
             237.57,53.70 246.66,51.86 259.00,52.00
             269.72,52.13 280.29,56.07 289.00,62.21
             301.10,70.73 296.28,73.97 309.00,74.00
             309.00,74.00 395.00,74.00 395.00,74.00
             407.53,74.02 409.98,77.95 410.00,90.00
             410.01,98.22 412.38,112.62 403.00,116.26
             400.75,117.13 397.42,117.00 395.00,117.00
             395.00,117.00 320.00,117.00 320.00,117.00
             316.74,117.01 313.08,116.59 310.72,119.31
             308.30,122.13 308.04,129.13 300.84,139.00
             296.95,144.34 294.34,146.74 289.00,150.57
             286.80,152.15 281.27,155.38 280.02,157.38
             278.78,159.37 279.00,162.69 279.00,165.00
             279.00,165.00 279.00,358.00 279.00,358.00
             279.00,358.00 379.00,358.00 379.00,358.00
             388.34,358.00 405.84,354.95 409.35,366.00
             410.04,368.19 409.99,370.73 410.00,373.00
             410.05,382.61 412.94,398.30 401.00,401.44
             398.58,402.08 395.52,402.00 393.00,402.00
             393.00,402.00 175.00,402.00 175.00,402.00
             175.00,402.00 120.00,402.00 120.00,402.00
             114.86,401.99 110.13,402.07 106.43,397.79
             102.53,393.26 103.97,378.20 104.00,372.00
             104.06,359.97 109.01,358.02 120.00,358.00
             120.00,358.00 235.00,358.00 235.00,358.00 Z
           M 122.00,139.44
           C 133.63,138.05 145.56,143.51 152.37,153.00
             152.37,153.00 161.25,170.00 161.25,170.00
             161.25,170.00 181.26,210.00 181.26,210.00
             181.26,210.00 203.24,253.00 203.24,253.00
             206.23,259.08 212.40,271.67 212.91,278.00
             214.21,294.24 204.62,307.96 192.00,317.24
             171.13,332.59 144.16,336.29 119.00,336.00
             98.04,335.75 69.81,327.31 54.09,313.25
             43.72,303.97 36.45,291.32 38.18,277.00
             38.88,271.21 45.89,256.83 48.76,251.00
             48.76,251.00 72.74,204.00 72.74,204.00
             72.74,204.00 88.75,172.00 88.75,172.00
             97.65,154.21 100.25,143.50 122.00,139.44 Z
           M 385.00,139.43
           C 395.96,138.32 407.50,143.11 414.07,152.00
             417.22,156.27 420.76,164.02 423.25,169.00
             423.25,169.00 443.78,210.00 443.78,210.00
             443.78,210.00 464.25,250.00 464.25,250.00
             466.44,254.40 473.82,270.01 474.81,274.00
             475.11,276.41 475.03,280.45 474.81,283.00
             474.82,297.99 464.93,310.13 453.00,318.25
             431.85,332.65 406.99,336.29 382.00,336.00
             361.67,335.76 336.26,328.41 320.00,316.10
             309.44,308.10 301.16,296.63 301.19,283.00
             300.97,280.45 300.89,276.41 301.19,274.00
             302.18,270.01 309.56,254.40 311.75,250.00
             311.75,250.00 334.74,205.00 334.74,205.00
             334.74,205.00 351.75,171.00 351.75,171.00
             360.62,153.27 363.20,142.98 385.00,139.43 Z
           M 126.00,173.00
           C 121.29,177.72 113.25,196.01 109.75,203.00
             109.75,203.00 87.75,247.00 87.75,247.00
             84.47,253.56 78.27,264.22 77.00,271.00
             77.00,271.00 174.00,271.00 174.00,271.00
             172.64,263.75 162.11,244.72 158.25,237.00
             158.25,237.00 138.25,197.00 138.25,197.00
             138.25,197.00 126.00,173.00 126.00,173.00 Z
           M 389.00,173.00
           C 389.00,173.00 387.00,173.00 387.00,173.00
             387.00,173.00 375.25,197.00 375.25,197.00
             375.25,197.00 353.75,240.00 353.75,240.00
             353.75,240.00 339.00,271.00 339.00,271.00
             339.00,271.00 437.00,271.00 437.00,271.00
             437.00,271.00 422.25,240.00 422.25,240.00
             422.25,240.00 400.75,197.00 400.75,197.00
             400.75,197.00 389.00,173.00 389.00,173.00 Z" />
</svg>
