<?xml version="1.0" encoding="UTF-8" standalone="no"?>
<!DOCTYPE svg PUBLIC "-//W3C//DTD SVG 20010904//EN"
              "http://www.w3.org/TR/2001/REC-SVG-20010904/DTD/svg10.dtd">

<svg xmlns="http://www.w3.org/2000/svg"
     width="135.486mm" height="135.486mm"
     viewBox="0 0 512 512">
  <path id="thin_scale"
        fill="none" stroke="black" stroke-width="1"
        d="M 227.00,68.00
           C 223.91,52.62 217.11,38.70 222.36,23.00
             231.40,-4.02 270.18,-8.54 285.75,15.00
             297.21,32.30 288.62,50.03 285.00,68.00
             285.00,68.00 299.00,68.00 299.00,68.00
             299.00,68.00 299.00,86.00 299.00,86.00
             299.00,86.00 282.00,86.00 282.00,86.00
             282.00,86.00 282.00,102.00 282.00,102.00
             282.00,102.00 339.00,102.00 339.00,102.00
             360.20,102.00 379.49,101.89 399.00,112.00
             400.11,109.45 401.28,106.40 403.39,104.51
             410.85,97.83 417.43,104.86 420.00,112.00
             420.00,112.00 441.00,103.00 441.00,103.00
             441.00,103.00 448.00,119.00 448.00,119.00
             448.00,119.00 428.00,129.00 428.00,129.00
             428.00,129.00 447.31,171.00 447.31,171.00
             447.31,171.00 486.78,257.00 486.78,257.00
             486.78,257.00 503.26,293.00 503.26,293.00
             506.73,300.19 511.89,309.03 512.00,317.00
             512.11,325.39 511.48,330.08 508.39,338.00
             506.17,343.66 503.78,348.14 500.10,353.00
             489.22,367.37 470.92,375.91 453.00,376.00
             453.00,376.00 434.00,376.00 434.00,376.00
             434.00,376.00 398.00,376.00 398.00,376.00
             378.76,376.00 357.67,378.34 340.00,369.74
             320.13,360.08 306.40,339.36 307.02,317.00
             307.22,309.68 310.74,304.51 313.58,298.00
             313.58,298.00 330.14,262.00 330.14,262.00
             330.14,262.00 368.69,178.00 368.69,178.00
             368.69,178.00 392.00,128.00 392.00,128.00
             381.22,126.05 372.78,120.03 354.00,120.00
             354.00,120.00 282.00,120.00 282.00,120.00
             282.00,120.00 282.00,383.00 282.00,383.00
             282.00,383.00 282.00,425.00 282.00,425.00
             282.04,427.17 282.02,429.00 283.02,431.00
             284.66,434.27 295.73,444.73 299.00,448.00
             306.55,455.55 308.03,459.98 319.00,460.00
             344.03,460.05 367.74,458.15 380.37,485.00
             382.48,489.48 383.86,494.04 383.99,499.00
             384.25,509.42 382.70,511.98 372.00,512.00
             372.00,512.00 185.00,512.00 185.00,512.00
             185.00,512.00 147.00,512.00 147.00,512.00
             142.93,512.00 134.31,512.77 131.15,510.40
             127.53,507.70 127.91,503.02 128.01,499.00
             128.16,493.33 130.01,487.99 132.64,483.00
             142.09,465.10 157.96,460.03 177.00,460.00
             177.00,460.00 195.00,460.00 195.00,460.00
             203.57,459.84 207.24,453.76 213.00,448.00
             216.27,444.73 227.34,434.27 228.98,431.00
             230.52,427.91 230.00,419.75 230.00,416.00
             230.00,416.00 230.00,383.00 230.00,383.00
             230.00,383.00 230.00,120.00 230.00,120.00
             230.00,120.00 158.00,120.00 158.00,120.00
             141.94,120.03 135.22,124.17 121.00,128.00
             121.00,128.00 140.69,172.00 140.69,172.00
             140.69,172.00 181.31,261.00 181.31,261.00
             181.31,261.00 197.86,297.00 197.86,297.00
             200.72,303.42 204.79,309.81 204.98,317.00
             205.61,339.36 191.86,360.08 172.00,369.74
             154.33,378.34 133.24,376.00 114.00,376.00
             114.00,376.00 78.00,376.00 78.00,376.00
             78.00,376.00 60.00,376.00 60.00,376.00
             41.52,375.97 23.19,367.91 11.90,353.00
             8.22,348.14 5.83,343.66 3.61,338.00
             0.52,330.08 -0.11,325.39 0.00,317.00
             0.11,309.03 5.27,300.19 8.74,293.00
             8.74,293.00 25.22,257.00 25.22,257.00
             25.22,257.00 64.69,171.00 64.69,171.00
             64.69,171.00 84.00,129.00 84.00,129.00
             84.00,129.00 64.00,119.00 64.00,119.00
             64.00,119.00 71.00,103.00 71.00,103.00
             71.00,103.00 92.00,112.00 92.00,112.00
             94.70,104.95 101.10,97.72 108.61,104.57
             110.77,106.54 111.86,109.39 113.00,112.00
             132.51,101.89 151.80,102.00 173.00,102.00
             173.00,102.00 230.00,102.00 230.00,102.00
             230.00,102.00 230.00,86.00 230.00,86.00
             230.00,86.00 213.00,86.00 213.00,86.00
             213.00,86.00 213.00,68.00 213.00,68.00
             213.00,68.00 227.00,68.00 227.00,68.00 Z
           M 253.00,18.43
           C 234.11,22.86 238.40,38.13 241.87,52.00
             245.50,66.50 244.53,67.87 252.00,68.00
             252.00,68.00 259.00,68.00 259.00,68.00
             267.51,67.95 266.23,67.57 270.37,51.00
             273.48,38.56 277.35,22.63 260.00,18.43
             257.37,17.91 255.62,18.06 253.00,18.43 Z
           M 264.00,86.00
           C 264.00,86.00 248.00,86.00 248.00,86.00
             248.00,86.00 248.00,102.00 248.00,102.00
             248.00,102.00 264.00,102.00 264.00,102.00
             264.00,102.00 264.00,86.00 264.00,86.00 Z
           M 264.00,120.00
           C 264.00,120.00 248.00,120.00 248.00,120.00
             248.00,120.00 248.00,426.00 248.00,426.00
             248.00,426.00 264.00,426.00 264.00,426.00
             264.00,426.00 264.00,120.00 264.00,120.00 Z
           M 105.00,137.00
           C 98.34,137.53 99.04,140.17 95.74,147.00
             95.74,147.00 81.86,177.00 81.86,177.00
             81.86,177.00 41.69,265.00 41.69,265.00
             41.69,265.00 23.00,307.00 23.00,307.00
             23.00,307.00 182.00,307.00 182.00,307.00
             182.00,307.00 166.31,272.00 166.31,272.00
             166.31,272.00 125.69,183.00 125.69,183.00
             125.69,183.00 105.00,137.00 105.00,137.00 Z
           M 489.00,307.00
           C 489.00,307.00 470.31,265.00 470.31,265.00
             470.31,265.00 430.14,177.00 430.14,177.00
             430.14,177.00 416.26,147.00 416.26,147.00
             412.96,140.17 413.66,137.53 407.00,137.00
             407.00,137.00 386.31,183.00 386.31,183.00
             386.31,183.00 345.69,272.00 345.69,272.00
             345.69,272.00 330.00,307.00 330.00,307.00
             330.00,307.00 489.00,307.00 489.00,307.00 Z
           M 186.00,325.00
           C 186.00,325.00 19.00,325.00 19.00,325.00
             22.38,346.53 42.71,357.97 63.00,358.00
             63.00,358.00 122.00,358.00 122.00,358.00
             132.65,358.00 146.95,358.84 157.00,356.07
             171.71,352.03 182.66,339.64 186.00,325.00 Z
           M 493.00,325.00
           C 493.00,325.00 326.00,325.00 326.00,325.00
             329.34,339.64 340.29,352.03 355.00,356.07
             365.05,358.84 379.35,358.00 390.00,358.00
             390.00,358.00 449.00,358.00 449.00,358.00
             469.29,357.97 489.62,346.53 493.00,325.00 Z
           M 284.00,460.00
           C 281.19,456.07 272.32,446.19 268.00,444.60
             265.42,443.65 254.43,443.99 251.00,444.00
             248.35,444.01 245.43,443.81 243.00,445.02
             239.07,446.99 230.70,456.23 228.00,460.00
             228.00,460.00 284.00,460.00 284.00,460.00 Z
           M 364.00,494.00
           C 360.05,482.12 348.52,478.14 337.00,478.00
             337.00,478.00 177.00,478.00 177.00,478.00
             164.81,478.02 152.30,481.05 148.00,494.00
             148.00,494.00 364.00,494.00 364.00,494.00 Z" />
</svg>
