<?xml version="1.0" encoding="UTF-8" standalone="no"?>
<!DOCTYPE svg PUBLIC "-//W3C//DTD SVG 20010904//EN"
              "http://www.w3.org/TR/2001/REC-SVG-20010904/DTD/svg10.dtd">

<svg xmlns="http://www.w3.org/2000/svg"
     width="135.45mm" height="135.45mm"
     viewBox="0 0 512 512">
  <path id="electronics"
        fill="none" stroke="black" stroke-width="1"
        d="M 56.00,248.00
           C 56.00,248.00 56.00,107.00 56.00,107.00
             56.03,84.82 68.82,72.03 91.00,72.00
             91.00,72.00 372.00,72.00 372.00,72.00
             372.00,72.00 408.00,72.00 408.00,72.00
             408.00,72.00 423.00,72.00 423.00,72.00
             437.81,72.18 450.52,80.31 454.70,95.00
             455.93,99.32 455.99,102.59 456.00,107.00
             456.00,107.00 456.00,168.00 456.00,168.00
             475.61,168.00 494.82,166.88 502.40,190.00
             503.87,194.48 503.99,198.36 504.00,203.00
             504.00,203.00 504.00,406.00 504.00,406.00
             503.90,427.53 490.15,439.97 469.00,440.00
             469.00,440.00 254.00,440.00 254.00,440.00
             254.00,440.00 196.00,440.00 196.00,440.00
             187.20,439.95 184.13,438.33 184.00,429.00
             184.00,429.00 184.00,411.00 184.00,411.00
             184.05,407.45 184.10,404.10 187.23,401.74
             189.91,399.71 193.81,400.01 197.00,400.00
             197.00,400.00 218.00,400.00 218.00,400.00
             218.00,400.00 222.00,384.00 222.00,384.00
             222.00,384.00 152.00,384.00 152.00,384.00
             152.00,400.85 155.21,421.42 139.96,433.07
             127.55,442.56 110.77,440.00 96.00,440.00
             96.00,440.00 54.00,440.00 54.00,440.00
             46.68,440.00 36.82,440.64 30.00,438.40
             14.33,433.27 8.02,420.62 8.00,405.00
             8.00,405.00 8.00,303.00 8.00,303.00
             8.00,287.86 5.36,270.30 16.33,258.09
             26.79,246.44 41.93,248.00 56.00,248.00 Z
           M 440.00,168.00
           C 440.00,168.00 440.00,106.00 440.00,106.00
             439.83,92.29 432.73,88.02 420.00,88.00
             420.00,88.00 190.00,88.00 190.00,88.00
             190.00,88.00 92.00,88.00 92.00,88.00
             77.36,88.02 72.02,93.36 72.00,108.00
             72.00,108.00 72.00,248.00 72.00,248.00
             72.00,248.00 108.00,248.00 108.00,248.00
             120.45,248.00 130.84,247.36 140.91,256.33
             152.69,266.81 152.00,278.77 152.00,293.00
             152.00,293.00 152.00,328.00 152.00,328.00
             152.00,328.00 296.00,328.00 296.00,328.00
             296.00,328.00 296.00,204.00 296.00,204.00
             296.03,181.59 309.59,168.03 332.00,168.00
             332.00,168.00 440.00,168.00 440.00,168.00 Z
           M 325.00,184.11
           C 314.02,187.07 312.02,193.84 312.00,204.00
             312.00,204.00 312.00,238.00 312.00,238.00
             312.00,238.00 312.00,380.00 312.00,380.00
             312.00,386.77 311.19,409.02 313.15,414.00
             314.73,418.04 317.96,421.27 322.00,422.85
             325.24,424.12 328.59,423.99 332.00,424.00
             332.00,424.00 451.00,424.00 451.00,424.00
             463.00,424.00 482.62,427.61 487.20,413.00
             488.10,410.11 488.00,406.99 488.00,404.00
             488.00,404.00 488.00,235.00 488.00,235.00
             488.00,235.00 488.00,202.00 488.00,202.00
             487.91,194.77 486.03,188.94 479.00,185.57
             475.44,183.86 471.83,184.01 468.00,184.11
             468.00,184.11 374.00,184.11 374.00,184.11
             374.00,184.11 325.00,184.11 325.00,184.11 Z
           M 325.04,192.74
           C 325.04,192.74 365.00,192.00 365.00,192.00
             365.00,192.00 445.00,192.00 445.00,192.00
             445.00,192.00 469.00,192.00 469.00,192.00
             472.14,192.05 475.18,192.04 477.57,194.43
             480.36,197.22 479.99,201.38 480.00,205.00
             480.00,205.00 480.00,348.00 480.00,348.00
             480.00,348.00 480.00,379.00 480.00,379.00
             479.99,382.19 480.29,386.09 478.26,388.77
             475.53,392.39 471.03,391.99 467.00,392.00
             467.00,392.00 355.00,392.00 355.00,392.00
             355.00,392.00 331.00,392.00 331.00,392.00
             327.86,391.95 324.82,391.96 322.43,389.57
             319.64,386.78 320.01,382.62 320.00,379.00
             320.00,379.00 320.00,239.00 320.00,239.00
             320.00,239.00 320.00,204.00 320.00,204.00
             320.03,198.37 319.79,195.80 325.04,192.74 Z
           M 464.00,208.00
           C 464.00,208.00 336.00,208.00 336.00,208.00
             336.00,208.00 336.00,376.00 336.00,376.00
             336.00,376.00 464.00,376.00 464.00,376.00
             464.00,376.00 464.00,208.00 464.00,208.00 Z
           M 37.00,264.33
           C 26.72,266.89 24.05,273.19 24.00,283.00
             24.00,283.00 24.00,302.00 24.00,302.00
             24.00,302.00 24.00,404.00 24.00,404.00
             24.02,418.64 29.36,423.98 44.00,424.00
             44.00,424.00 116.00,424.00 116.00,424.00
             130.64,423.98 135.98,418.64 136.00,404.00
             136.00,404.00 136.00,284.00 136.00,284.00
             135.98,272.14 132.17,264.35 119.00,264.01
             116.76,263.96 112.34,263.74 110.51,265.02
             106.38,267.92 106.16,281.93 99.89,286.26
             96.99,288.27 93.36,287.99 90.00,288.00
             90.00,288.00 70.00,288.00 70.00,288.00
             67.61,288.00 64.22,288.13 62.02,287.26
             53.44,283.89 54.16,268.30 49.49,265.02
             47.19,263.41 39.84,264.01 37.00,264.33 Z
           M 93.00,264.00
           C 93.00,264.00 67.00,264.00 67.00,264.00
             67.72,266.13 68.61,269.65 70.51,270.98
             72.72,272.53 87.28,272.53 89.49,270.98
             91.39,269.65 92.28,266.13 93.00,264.00 Z
           M 296.00,344.00
           C 296.00,344.00 152.00,344.00 152.00,344.00
             152.00,344.00 152.00,368.00 152.00,368.00
             152.00,368.00 296.00,368.00 296.00,368.00
             296.00,368.00 296.00,344.00 296.00,344.00 Z
           M 274.00,384.00
           C 274.00,384.00 238.00,384.00 238.00,384.00
             238.00,384.00 234.00,400.00 234.00,400.00
             234.00,400.00 278.00,400.00 278.00,400.00
             278.00,400.00 274.00,384.00 274.00,384.00 Z
           M 296.00,384.00
           C 296.00,384.00 290.00,384.00 290.00,384.00
             291.38,388.77 292.04,396.94 296.00,400.00
             296.00,400.00 296.00,384.00 296.00,384.00 Z
           M 37.04,400.74
           C 42.42,399.41 53.96,399.97 60.00,400.00
             62.55,400.01 65.61,399.89 67.89,401.17
             72.71,403.89 73.15,410.95 68.77,414.26
             66.09,416.29 62.19,415.99 59.00,416.00
             54.81,416.01 40.04,416.48 37.04,415.26
             30.73,412.69 30.31,404.66 37.04,400.74 Z
           M 85.04,400.74
           C 89.06,399.75 97.32,399.13 100.77,401.74
             105.29,405.15 104.81,412.88 98.96,415.26
             95.67,416.60 86.11,416.44 83.23,414.26
             77.94,410.27 79.86,403.76 85.04,400.74 Z
           M 389.04,400.74
           C 401.35,398.03 402.80,412.18 394.96,415.26
             386.39,418.62 378.85,406.67 389.04,400.74 Z
           M 300.00,424.00
           C 297.02,413.63 293.99,416.00 275.00,416.00
             275.00,416.00 200.00,416.00 200.00,416.00
             200.00,416.00 200.00,424.00 200.00,424.00
             200.00,424.00 300.00,424.00 300.00,424.00 Z" />
</svg>
