<?xml version="1.0" encoding="UTF-8" standalone="no"?>
<!DOCTYPE svg PUBLIC "-//W3C//DTD SVG 20010904//EN"
              "http://www.w3.org/TR/2001/REC-SVG-20010904/DTD/svg10.dtd">

<svg xmlns="http://www.w3.org/2000/svg"
     width="135.45mm" height="135.45mm"
     viewBox="0 0 512 512">
  <path id="gardening"
        fill="none" stroke="black" stroke-width="1"
        d="M 209.00,104.00
           C 209.00,104.00 235.00,109.40 235.00,109.40
             237.34,109.87 243.87,111.44 245.87,110.96
             249.70,110.06 252.93,100.89 259.87,105.74
             264.71,109.13 263.15,115.08 262.42,120.00
             262.42,120.00 257.00,155.00 257.00,155.00
             256.36,159.67 256.05,166.35 251.87,169.26
             243.80,174.87 241.38,163.12 237.86,161.60
             235.40,160.54 218.01,161.04 214.00,161.00
             214.00,161.00 201.00,160.00 201.00,160.00
             201.00,160.00 185.00,160.00 185.00,160.00
             175.11,160.02 176.66,160.61 169.00,174.00
             169.00,174.00 146.85,213.00 146.85,213.00
             144.23,217.58 140.21,226.89 134.96,228.31
             130.99,229.38 127.25,226.75 124.00,224.80
             124.00,224.80 104.00,212.40 104.00,212.40
             104.00,212.40 31.00,167.19 31.00,167.19
             31.00,167.19 13.00,156.00 13.00,156.00
             9.84,154.05 6.01,151.73 4.78,148.00
             3.34,143.63 6.97,139.36 9.28,136.00
             9.28,136.00 21.33,118.00 21.33,118.00
             22.58,116.12 25.54,112.19 25.56,110.00
             25.59,107.15 17.88,99.37 15.70,96.00
             10.18,87.48 6.12,77.24 6.00,67.00
             5.90,58.38 5.78,52.40 8.52,44.00
             16.66,19.05 38.31,4.54 64.00,3.21
             68.71,2.96 79.39,5.00 84.00,6.52
             84.00,6.52 92.54,9.53 92.54,9.53
             94.94,9.44 96.38,6.67 97.75,5.04
             100.60,1.63 103.32,-0.61 108.00,0.66
             111.40,1.58 123.14,9.45 127.00,11.80
             127.00,11.80 169.00,37.80 169.00,37.80
             169.00,37.80 209.00,62.58 209.00,62.58
             213.19,65.18 221.31,69.06 222.55,74.02
             223.57,78.06 221.32,81.64 219.42,85.00
             219.42,85.00 209.00,104.00 209.00,104.00 Z
           M 205.00,78.00
           C 205.00,78.00 146.00,41.32 146.00,41.32
             146.00,41.32 107.00,18.00 107.00,18.00
             107.00,18.00 62.66,84.00 62.66,84.00
             62.66,84.00 37.00,123.00 37.00,123.00
             37.00,123.00 62.00,138.19 62.00,138.19
             62.00,138.19 116.00,171.60 116.00,171.60
             116.00,171.60 144.00,188.00 144.00,188.00
             144.00,188.00 159.58,160.00 159.58,160.00
             159.58,160.00 187.85,110.00 187.85,110.00
             187.85,110.00 205.00,78.00 205.00,78.00 Z
           M 85.00,23.00
           C 64.54,14.88 42.27,18.17 28.79,37.00
             25.46,41.65 22.48,48.35 21.46,54.00
             19.02,67.56 23.57,89.59 37.00,96.00
             38.37,93.93 41.00,90.50 40.98,88.00
             40.95,83.83 35.74,81.08 33.04,72.00
             30.44,63.23 32.06,52.60 37.10,45.00
             42.90,36.27 52.57,30.41 63.00,29.30
             73.37,28.20 78.35,35.91 83.45,26.98
             84.26,25.57 84.52,24.50 85.00,23.00 Z
           M 70.00,45.00
           C 50.78,41.73 42.28,57.52 50.00,74.00
             50.00,74.00 52.00,74.00 52.00,74.00
             52.00,74.00 70.00,45.00 70.00,45.00 Z
           M 165.09,100.74
           C 172.01,99.19 176.11,102.86 174.61,110.00
             173.84,113.65 167.41,124.03 165.23,128.00
             163.65,130.87 161.91,134.21 158.91,135.82
             153.51,138.72 147.27,134.57 148.41,128.00
             148.92,125.04 151.48,120.66 153.00,118.00
             156.16,112.46 159.62,104.00 165.09,100.74 Z
           M 246.00,127.00
           C 246.00,127.00 213.00,120.20 213.00,120.20
             213.00,120.20 200.53,119.03 200.53,119.03
             200.53,119.03 195.00,127.00 195.00,127.00
             195.00,127.00 185.00,145.00 185.00,145.00
             185.00,145.00 243.00,146.00 243.00,146.00
             243.00,146.00 246.00,127.00 246.00,127.00 Z
           M 276.11,123.74
           C 287.76,120.95 289.90,133.95 281.96,136.95
             274.18,139.90 267.66,129.10 276.11,123.74 Z
           M 314.04,130.69
           C 324.96,129.56 325.21,142.68 317.96,144.55
             309.73,146.68 303.53,135.36 314.04,130.69 Z
           M 136.00,201.00
           C 136.00,201.00 67.00,158.32 67.00,158.32
             67.00,158.32 28.00,135.00 28.00,135.00
             28.00,135.00 24.10,142.91 24.10,142.91
             24.10,142.91 29.00,148.19 29.00,148.19
             29.00,148.19 45.00,158.05 45.00,158.05
             45.00,158.05 110.00,198.42 110.00,198.42
             110.00,198.42 124.00,207.03 124.00,207.03
             124.00,207.03 130.62,208.85 130.62,208.85
             130.62,208.85 136.00,201.00 136.00,201.00 Z
           M 349.00,146.82
           C 360.26,148.47 357.77,161.06 349.00,160.84
             340.78,160.63 338.83,148.62 349.00,146.82 Z
           M 273.04,152.74
           C 284.20,151.94 284.05,164.64 276.96,166.57
             268.33,168.91 262.57,157.18 273.04,152.74 Z
           M 374.19,171.74
           C 385.78,168.89 387.87,182.14 379.96,185.09
             372.20,187.99 365.71,177.31 374.19,171.74 Z
           M 307.02,179.75
           C 317.74,177.73 319.21,190.39 311.95,193.26
             303.90,196.43 297.04,185.32 307.02,179.75 Z
           M 397.01,201.67
           C 410.33,201.35 406.63,217.70 397.01,215.67
             390.55,214.30 388.04,205.00 397.01,201.67 Z
           M 332.02,215.76
           C 343.24,213.78 343.86,227.76 335.96,229.53
             328.97,231.09 322.24,221.19 332.02,215.76 Z
           M 410.11,236.74
           C 421.51,234.01 423.66,246.06 415.96,249.65
             408.40,253.16 401.56,242.16 410.11,236.74 Z
           M 344.11,257.74
           C 356.06,254.88 357.36,268.01 349.90,270.95
             342.34,273.93 335.58,263.15 344.11,257.74 Z
           M 106.96,374.00
           C 84.60,374.00 64.13,364.19 51.70,345.00
             48.35,339.82 43.57,331.29 44.20,325.00
             44.40,322.94 45.05,320.85 46.00,319.16
             54.14,303.15 74.73,313.12 86.00,319.16
             98.92,326.41 101.99,332.55 111.00,339.00
             111.04,334.15 112.40,319.90 114.93,316.15
             118.11,311.44 126.10,312.14 128.02,318.02
             129.01,321.04 126.82,332.22 126.27,336.00
             124.68,347.04 123.00,360.95 123.00,372.00
             126.12,368.89 128.50,366.42 132.00,363.67
             132.00,363.67 140.00,358.06 140.00,358.06
             152.01,350.61 177.94,337.93 184.20,359.00
             186.44,366.51 181.30,375.83 177.30,382.00
             164.58,401.64 143.81,411.00 120.96,411.00
             120.96,411.00 120.96,425.00 120.96,425.00
             120.96,425.00 120.00,436.00 120.00,436.00
             120.00,436.00 120.00,459.00 120.00,459.00
             123.87,458.05 131.10,456.87 135.00,457.09
             135.00,457.09 154.00,460.35 154.00,460.35
             154.00,460.35 170.00,457.29 170.00,457.29
             174.19,456.79 178.84,457.57 183.00,458.29
             191.86,459.81 197.78,464.54 201.00,464.67
             201.00,464.67 218.00,459.07 218.00,459.07
             229.64,456.30 235.41,456.92 247.00,459.07
             247.00,459.07 247.00,412.00 247.00,412.00
             247.00,412.00 247.96,400.00 247.96,400.00
             247.96,400.00 247.96,387.00 247.96,387.00
             247.96,387.00 249.00,374.00 249.00,374.00
             227.43,374.00 209.52,366.32 196.02,349.00
             192.00,343.86 186.38,334.59 186.04,328.00
             185.36,314.76 195.75,307.95 208.00,311.16
             225.64,315.78 240.20,326.41 252.00,340.00
             252.40,335.09 254.11,319.66 256.73,316.15
             260.16,311.55 267.93,312.18 269.57,318.04
             270.45,321.21 268.52,331.21 268.00,335.00
             268.00,335.00 264.00,372.00 264.00,372.00
             274.60,361.63 292.91,349.12 308.00,347.31
             321.79,345.66 329.23,358.61 324.53,371.00
             318.65,386.52 305.24,399.65 290.00,405.99
             284.54,408.26 278.87,409.94 273.00,410.71
             270.22,411.07 265.61,410.58 263.60,412.60
             261.68,414.52 262.01,418.46 262.00,421.00
             262.00,421.00 262.00,458.00 262.00,458.00
             273.48,457.75 276.70,455.65 289.00,460.23
             298.87,463.90 301.27,467.44 303.58,468.18
             306.34,469.07 309.67,466.20 312.00,464.87
             317.11,461.97 323.20,459.53 329.00,458.38
             337.87,456.82 343.14,456.91 352.00,458.38
             352.00,458.38 362.00,460.35 362.00,460.35
             368.97,460.35 373.43,455.39 388.00,458.00
             388.00,458.00 388.00,432.00 388.00,432.00
             388.00,432.00 389.00,417.00 389.00,417.00
             389.00,417.00 389.00,400.00 389.00,400.00
             389.00,400.00 389.96,388.00 389.96,388.00
             389.96,388.00 389.96,374.00 389.96,374.00
             367.60,374.00 347.13,364.19 334.70,345.00
             331.35,339.82 326.57,331.29 327.20,325.00
             327.40,322.94 328.05,320.85 329.00,319.16
             337.14,303.15 357.73,313.12 369.00,319.16
             381.92,326.41 384.99,332.55 394.00,339.00
             394.04,334.44 395.61,319.60 397.93,316.15
             401.09,311.45 409.09,312.13 411.02,318.02
             412.17,321.53 409.87,331.91 409.27,336.00
             407.67,346.84 406.00,361.16 406.00,372.00
             416.31,361.72 426.12,354.75 440.00,350.00
             444.08,348.61 448.64,346.76 453.00,347.20
             461.90,348.09 468.69,356.04 467.80,365.00
             467.32,369.90 463.00,377.83 460.30,382.00
             450.66,396.89 432.68,408.41 415.00,410.86
             415.00,410.86 404.00,410.86 404.00,410.86
             404.00,410.86 403.00,455.00 403.00,455.00
             403.01,456.75 402.94,459.28 403.60,460.90
             404.78,463.81 408.53,465.80 411.00,467.67
             423.57,477.23 426.08,473.36 437.00,481.04
             451.98,491.57 445.93,496.97 460.00,497.00
             460.00,497.00 499.00,497.00 499.00,497.00
             504.62,497.01 513.33,497.72 511.53,505.98
             510.17,512.21 503.99,511.99 499.00,512.00
             499.00,512.00 116.00,512.00 116.00,512.00
             116.00,512.00 26.00,512.00 26.00,512.00
             19.24,512.00 -2.13,514.98 0.47,503.02
             1.83,496.79 8.01,497.01 13.00,497.00
             13.00,497.00 55.00,497.00 55.00,497.00
             64.65,496.82 61.80,492.59 74.00,485.68
             74.00,485.68 85.72,480.16 85.72,480.16
             85.72,480.16 95.00,471.30 95.00,471.30
             103.00,464.47 104.98,466.93 105.00,456.00
             105.00,456.00 105.00,432.00 105.00,432.00
             105.00,432.00 106.00,417.00 106.00,417.00
             106.00,417.00 106.00,399.00 106.00,399.00
             106.00,399.00 106.96,387.00 106.96,387.00
             106.96,387.00 106.96,374.00 106.96,374.00 Z
           M 104.00,359.00
           C 98.45,341.56 76.50,329.92 60.00,325.00
             60.00,325.00 59.00,326.00 59.00,326.00
             65.73,345.23 83.74,358.07 104.00,359.00 Z
           M 246.00,359.00
           C 238.21,341.57 219.27,329.17 201.00,325.00
             203.04,344.26 228.02,358.60 246.00,359.00 Z
           M 387.00,359.00
           C 381.45,341.56 359.50,329.92 343.00,325.00
             343.00,325.00 342.00,326.00 342.00,326.00
             348.73,345.23 366.74,358.07 387.00,359.00 Z
           M 170.00,363.00
           C 164.02,362.23 159.22,365.14 154.00,367.75
             142.79,373.36 128.69,383.46 125.00,396.00
             145.14,395.06 163.32,382.10 170.00,363.00 Z
           M 311.00,362.00
           C 292.60,366.20 273.84,378.45 266.00,396.00
             283.92,395.17 308.95,381.38 311.00,362.00 Z
           M 453.00,363.00
           C 447.02,362.23 442.22,365.14 437.00,367.75
             425.79,373.36 411.69,383.46 408.00,396.00
             428.16,395.07 446.31,382.12 453.00,363.00 Z
           M 432.00,497.00
           C 424.18,487.80 415.16,489.27 410.01,486.69
             406.71,485.03 404.20,481.39 400.96,478.93
             395.56,474.81 388.75,472.74 382.00,472.37
             373.96,471.94 365.96,476.56 362.00,476.47
             359.26,476.41 354.15,474.22 351.00,473.51
             343.77,471.89 338.23,471.88 331.00,473.51
             325.99,474.64 319.18,477.82 315.00,480.79
             312.18,482.79 308.35,486.97 305.00,487.36
             300.20,487.91 296.41,482.21 292.99,479.53
             287.30,475.07 278.29,471.74 271.00,472.32
             261.17,473.11 257.25,477.13 252.00,476.38
             248.38,475.86 239.53,471.67 231.00,472.32
             225.00,472.78 218.39,474.12 213.00,476.81
             209.70,478.45 204.39,482.57 201.00,482.63
             197.47,482.70 193.96,479.27 191.00,477.47
             186.12,474.49 180.70,472.78 175.00,472.32
             165.75,471.59 158.37,477.15 153.00,476.38
             149.42,475.87 145.10,473.09 135.00,472.32
             125.62,471.61 113.36,475.98 106.00,481.68
             99.37,486.81 97.82,491.13 93.00,494.15
             93.00,494.15 87.00,497.00 87.00,497.00
             87.00,497.00 432.00,497.00 432.00,497.00 Z" />
</svg>
