<?xml version="1.0" encoding="UTF-8" standalone="no"?>
<!DOCTYPE svg PUBLIC "-//W3C//DTD SVG 20010904//EN"
              "http://www.w3.org/TR/2001/REC-SVG-20010904/DTD/svg10.dtd">

<svg xmlns="http://www.w3.org/2000/svg"
     width="135.45mm" height="135.45mm"
     viewBox="0 0 512 512">
  <path id="toys"
        fill="none" stroke="black" stroke-width="1"
        d="M 54.00,121.00
           C 49.09,119.43 46.95,117.65 43.00,114.38
             25.55,99.91 19.25,73.00 27.46,52.00
             40.39,18.93 81.47,5.02 111.00,25.22
             119.54,31.06 125.46,37.69 130.00,47.00
             139.40,43.00 149.93,41.91 160.00,40.84
             179.32,38.77 203.69,40.15 222.00,47.00
             226.09,37.84 231.68,31.35 240.00,25.75
             267.98,6.93 305.75,16.06 321.68,46.00
             332.11,65.59 329.08,89.67 315.76,107.00
             310.95,113.27 305.50,118.23 298.00,121.00
             307.35,153.25 306.06,184.43 291.52,215.00
             287.04,224.41 282.25,229.70 277.00,238.00
             296.05,247.18 306.04,257.81 320.00,273.00
             320.00,273.00 320.00,229.00 320.00,229.00
             320.02,217.59 324.92,214.08 331.28,205.00
             331.28,205.00 358.58,166.00 358.58,166.00
             358.58,166.00 375.34,142.02 375.34,142.02
             378.20,138.06 381.67,134.70 386.96,136.74
             390.77,138.21 393.79,143.70 396.14,147.00
             396.14,147.00 415.02,174.00 415.02,174.00
             415.02,174.00 437.42,206.00 437.42,206.00
             443.71,214.88 447.98,217.86 448.00,229.00
             448.00,229.00 448.00,328.00 448.00,328.00
             448.00,328.00 485.00,328.00 485.00,328.00
             489.16,328.00 497.51,327.27 500.77,329.74
             504.39,332.47 503.99,336.97 504.00,341.00
             504.00,341.00 504.00,428.00 504.00,428.00
             504.00,434.12 505.71,450.53 500.77,454.26
             498.09,456.29 494.19,455.99 491.00,456.00
             491.00,456.00 322.00,456.00 322.00,456.00
             319.72,456.00 316.35,455.78 314.39,457.02
             312.43,458.27 310.63,461.97 309.39,464.00
             306.80,468.22 303.80,472.24 300.56,475.99
             293.06,484.67 281.10,491.46 270.00,494.26
             252.05,498.78 233.52,494.32 219.00,482.98
             214.19,479.23 211.92,477.44 209.00,472.00
             191.63,478.95 179.91,482.57 161.00,478.34
             154.77,476.94 148.90,474.36 143.00,472.00
             138.77,479.87 130.82,485.28 123.00,489.24
             99.44,501.19 73.28,496.94 54.04,478.83
             29.90,456.11 26.51,418.01 40.00,389.00
             22.20,383.92 8.76,365.34 8.04,347.00
             7.84,341.92 8.56,340.49 8.92,336.00
             11.59,302.54 26.62,273.04 53.00,252.00
             59.79,246.59 67.04,241.55 75.00,238.00
             68.35,228.06 64.70,224.76 59.31,213.00
             46.25,184.51 44.26,150.77 54.00,121.00 Z
           M 115.00,53.00
           C 111.66,46.21 107.58,41.71 101.00,37.88
             80.88,26.16 55.89,32.21 44.52,53.00
             35.15,70.12 40.64,98.42 60.00,106.00
             73.55,82.48 89.50,63.99 115.00,53.00 Z
           M 292.00,106.00
           C 298.37,103.50 302.72,98.85 306.12,93.00
             314.20,79.14 314.00,63.64 305.53,50.00
             294.04,31.48 267.98,26.75 250.00,38.39
             243.91,42.33 240.18,46.52 237.00,53.00
             255.64,61.07 271.73,75.46 283.28,92.00
             283.28,92.00 292.00,106.00 292.00,106.00 Z
           M 164.00,56.28
           C 154.26,57.69 145.56,58.69 136.00,61.43
             113.66,67.83 94.10,81.83 81.03,101.00
             54.67,139.64 58.85,199.47 92.17,232.83
             111.50,252.19 141.72,263.68 169.00,264.00
             196.99,264.32 222.31,260.38 246.00,244.25
             294.02,211.57 302.24,135.01 263.83,92.00
             238.68,63.84 200.98,52.84 164.00,56.28 Z
           M 125.04,136.74
           C 136.69,134.25 138.65,147.77 130.90,151.14
             122.58,154.75 114.75,142.72 125.04,136.74 Z
           M 221.04,136.74
           C 232.69,134.25 234.65,147.77 226.90,151.14
             218.58,154.75 210.75,142.72 221.04,136.74 Z
           M 168.00,223.00
           C 168.00,217.83 169.07,201.91 166.40,198.30
             160.98,190.95 143.03,187.37 144.09,170.00
             145.34,149.77 163.52,152.00 178.00,152.00
             189.89,152.00 201.05,150.62 206.52,164.00
             207.44,166.24 207.92,168.58 207.92,171.00
             207.93,187.61 190.41,191.49 185.60,198.18
             182.92,201.90 184.00,217.75 184.00,223.00
             197.24,222.35 212.87,213.43 219.65,202.00
             225.77,191.68 222.07,178.69 232.98,180.32
             237.91,181.05 239.86,185.50 239.92,190.00
             240.02,197.73 236.27,206.63 232.14,213.00
             220.92,230.27 198.17,239.76 178.00,240.00
             157.17,240.24 133.52,232.67 121.04,215.00
             116.08,207.98 111.97,198.74 112.03,190.00
             112.06,184.55 114.63,179.37 120.98,180.32
             130.19,181.69 125.82,191.73 132.12,202.00
             139.25,213.64 154.40,222.37 168.00,223.00 Z
           M 424.00,216.00
           C 421.82,210.38 416.05,203.12 412.42,198.00
             412.42,198.00 394.98,173.00 394.98,173.00
             393.18,170.41 386.99,160.20 384.00,160.20
             381.01,160.20 374.82,170.41 373.02,173.00
             373.02,173.00 355.58,198.00 355.58,198.00
             351.95,203.12 346.18,210.38 344.00,216.00
             344.00,216.00 424.00,216.00 424.00,216.00 Z
           M 162.32,168.60
           C 156.05,174.19 173.77,183.66 177.00,183.05
             179.47,182.59 187.91,176.51 189.68,174.54
             191.05,173.02 192.36,170.68 190.38,169.02
             188.89,167.77 184.91,168.00 183.00,168.00
             177.67,167.99 167.00,167.46 162.32,168.60 Z
           M 432.00,232.00
           C 432.00,232.00 336.00,232.00 336.00,232.00
             336.00,232.00 336.00,298.00 336.00,298.00
             336.00,298.00 342.00,328.00 342.00,328.00
             342.00,328.00 432.00,328.00 432.00,328.00
             432.00,328.00 432.00,232.00 432.00,232.00 Z
           M 379.00,248.44
           C 384.25,247.76 388.91,247.93 394.00,249.60
             425.69,259.98 422.07,306.23 389.00,311.56
             356.51,316.80 339.98,276.19 362.09,256.33
             366.81,252.09 372.86,249.63 379.00,248.44 Z
           M 118.00,269.00
           C 118.00,269.00 96.00,255.96 96.00,255.96
             93.14,253.96 89.67,250.48 86.00,250.86
             80.21,251.46 64.61,262.98 60.00,267.05
             37.99,286.52 25.18,313.52 24.04,343.00
             23.53,356.23 31.78,370.30 45.00,374.07
             50.79,375.72 54.89,369.01 60.00,365.02
             67.57,359.11 78.35,353.87 88.00,353.00
             89.62,333.05 93.47,313.15 102.26,295.00
             104.76,289.83 107.55,284.81 110.70,280.00
             110.70,280.00 118.00,269.00 118.00,269.00 Z
           M 264.00,353.00
           C 273.65,353.87 284.43,359.11 292.00,365.02
             295.81,367.99 301.38,375.25 306.01,374.31
             318.18,371.84 328.67,356.11 327.82,344.00
             326.38,323.73 321.48,305.16 310.31,288.00
             302.43,275.91 290.30,264.35 278.00,256.81
             274.86,254.88 267.64,250.10 264.00,250.79
             261.48,251.28 256.38,255.61 254.00,257.28
             248.20,261.34 240.81,266.06 234.00,268.00
             234.00,268.00 250.69,297.00 250.69,297.00
             258.79,314.68 262.44,333.73 264.00,353.00 Z
           M 381.00,264.33
           C 359.67,269.64 366.78,299.22 387.00,295.67
             398.75,293.61 403.97,279.28 396.58,270.04
             392.40,264.81 387.33,263.68 381.00,264.33 Z
           M 248.00,353.00
           C 247.06,332.56 241.75,311.87 231.72,294.00
             229.29,289.69 222.65,279.19 218.83,276.61
             215.18,274.15 208.15,276.61 204.00,277.39
             191.60,279.71 182.52,280.14 170.00,280.00
             164.18,279.93 152.88,278.33 147.00,277.20
             144.16,276.65 137.57,274.90 135.04,275.69
             130.50,277.10 123.30,288.71 120.85,293.00
             110.46,311.17 104.96,332.12 104.00,353.00
             110.80,353.61 115.97,355.70 122.00,358.76
             145.43,370.63 159.70,397.07 160.00,423.00
             160.08,430.70 158.96,438.64 156.65,446.00
             155.85,448.57 152.88,455.34 153.68,457.61
             154.48,459.91 157.90,460.92 160.00,461.56
             166.36,463.49 172.37,464.25 179.00,463.96
             183.03,463.78 196.88,461.74 198.32,457.61
             199.12,455.34 196.15,448.57 195.35,446.00
             193.04,438.64 191.92,430.70 192.00,423.00
             192.30,397.00 206.50,370.67 230.00,358.76
             236.03,355.70 241.20,353.61 248.00,353.00 Z
           M 376.00,344.00
           C 376.00,344.00 344.00,344.00 344.00,344.00
             344.00,344.00 341.00,360.00 341.00,360.00
             345.23,360.00 352.42,359.32 355.89,361.74
             360.33,364.82 359.99,369.23 360.00,374.00
             360.00,374.00 360.00,397.00 360.00,397.00
             360.00,397.00 360.00,411.00 360.00,411.00
             359.95,420.16 357.68,423.86 348.00,424.00
             348.00,424.00 320.00,424.00 320.00,424.00
             320.00,424.00 318.00,440.00 318.00,440.00
             318.00,440.00 376.00,440.00 376.00,440.00
             376.00,440.00 376.00,344.00 376.00,344.00 Z
           M 488.00,344.00
           C 488.00,344.00 392.00,344.00 392.00,344.00
             392.00,344.00 392.00,440.00 392.00,440.00
             392.00,440.00 488.00,440.00 488.00,440.00
             488.00,440.00 488.00,344.00 488.00,344.00 Z
           M 437.04,360.74
           C 445.23,358.94 447.03,363.60 450.25,370.00
             450.25,370.00 465.25,400.00 465.25,400.00
             467.02,403.54 471.43,411.44 471.75,415.00
             472.52,423.52 465.26,423.99 459.00,424.00
             459.00,424.00 421.00,424.00 421.00,424.00
             415.97,423.99 410.00,424.04 408.45,417.96
             407.26,413.36 411.21,407.07 413.25,403.00
             413.25,403.00 427.75,374.00 427.75,374.00
             430.36,368.79 431.82,363.74 437.04,360.74 Z
           M 91.00,368.29
           C 62.60,373.01 47.88,397.70 48.00,425.00
             48.12,453.48 69.79,483.78 101.00,479.71
             155.84,472.56 158.28,382.66 107.00,369.48
             101.19,367.98 96.95,367.72 91.00,368.29 Z
           M 251.00,368.29
           C 222.60,373.01 207.88,397.70 208.00,425.00
             208.12,453.48 229.79,483.78 261.00,479.71
             315.84,472.56 318.28,382.66 267.00,369.48
             261.19,367.98 256.95,367.72 251.00,368.29 Z
           M 344.00,376.00
           C 344.00,376.00 332.00,376.60 332.00,376.60
             332.00,376.60 312.00,389.00 312.00,389.00
             312.00,389.00 318.00,408.00 318.00,408.00
             318.00,408.00 344.00,408.00 344.00,408.00
             344.00,408.00 344.00,376.00 344.00,376.00 Z
           M 441.00,387.00
           C 441.00,387.00 439.00,387.00 439.00,387.00
             439.00,387.00 429.00,408.00 429.00,408.00
             429.00,408.00 451.00,408.00 451.00,408.00
             451.00,408.00 441.00,387.00 441.00,387.00 Z" />
</svg>
