<?xml version="1.0" encoding="UTF-8" standalone="no"?>
<!DOCTYPE svg PUBLIC "-//W3C//DTD SVG 20010904//EN"
              "http://www.w3.org/TR/2001/REC-SVG-20010904/DTD/svg10.dtd">

<svg xmlns="http://www.w3.org/2000/svg"
     width="144.51mm" height="144.51mm"
     viewBox="0 0 512 512">
  <path id="books"
        fill="none" stroke="black" stroke-width="1"
        d="M 410.00,21.00
           C 386.27,31.06 362.81,41.75 340.00,53.78
             340.00,53.78 307.00,72.14 307.00,72.14
             307.00,72.14 285.00,84.35 285.00,84.35
             280.00,85.83 275.38,84.24 273.71,78.98
             272.15,74.04 275.21,70.82 279.02,68.24
             279.02,68.24 304.00,53.72 304.00,53.72
             333.16,37.14 363.13,22.00 394.00,8.85
             394.00,8.85 406.00,4.00 406.00,4.00
             413.03,1.19 423.26,-3.93 426.43,7.00
             427.08,9.26 427.00,12.62 427.00,15.00
             427.00,15.00 427.00,351.00 427.00,351.00
             426.99,355.30 427.14,360.21 424.30,363.78
             421.98,366.70 417.42,367.89 414.00,369.19
             414.00,369.19 391.00,377.80 391.00,377.80
             359.52,390.43 328.83,405.18 299.00,421.31
             299.00,421.31 272.00,436.15 272.00,436.15
             268.59,438.10 260.54,443.10 257.00,443.51
             247.46,444.62 247.01,433.57 247.00,427.00
             247.00,427.00 247.00,108.00 247.00,108.00
             246.99,105.28 247.34,101.79 245.40,99.65
             243.44,97.48 236.93,95.63 234.00,94.67
             223.10,91.11 212.36,88.56 201.00,87.00
             201.00,87.00 178.00,85.02 178.00,85.02
             178.00,85.02 162.00,86.00 162.00,86.00
             142.61,86.03 118.24,88.44 99.00,91.42
             99.00,91.42 51.00,100.00 51.00,100.00
             51.00,100.00 51.00,458.00 51.00,458.00
             51.00,458.00 69.00,454.45 69.00,454.45
             69.00,454.45 100.00,449.28 100.00,449.28
             100.00,449.28 139.00,445.00 139.00,445.00
             139.00,445.00 148.00,445.00 148.00,445.00
             148.00,445.00 160.00,444.00 160.00,444.00
             160.00,444.00 187.00,444.00 187.00,444.00
             200.39,444.02 220.09,447.87 233.00,451.72
             233.00,451.72 257.00,459.16 257.00,459.16
             257.00,459.16 283.00,451.88 283.00,451.88
             297.52,448.07 319.11,444.02 334.00,444.00
             334.00,444.00 360.00,444.00 360.00,444.00
             360.00,444.00 372.00,445.00 372.00,445.00
             372.00,445.00 381.00,445.00 381.00,445.00
             406.93,446.86 435.87,451.34 461.00,458.00
             461.00,458.00 461.00,110.00 461.00,110.00
             460.99,107.44 461.35,103.67 459.40,101.73
             456.07,98.42 445.32,100.65 443.47,92.00
             441.83,84.30 449.84,81.51 456.00,82.44
             461.75,83.31 473.79,84.73 476.69,90.10
             478.18,92.87 478.00,96.91 478.00,100.00
             478.00,100.00 478.00,463.00 478.00,463.00
             477.99,468.09 478.30,474.00 472.95,476.67
             468.77,478.76 462.26,476.30 458.00,475.15
             458.00,475.15 426.00,468.25 426.00,468.25
             387.34,461.79 344.79,457.43 306.00,464.42
             306.00,464.42 277.00,471.43 277.00,471.43
             274.09,472.26 267.70,473.90 266.02,476.42
             264.35,478.93 265.00,491.35 265.00,495.00
             265.00,495.00 465.00,495.00 465.00,495.00
             483.90,494.97 494.97,483.90 495.00,465.00
             495.00,465.00 495.00,206.00 495.00,206.00
             495.00,206.00 495.00,140.00 495.00,140.00
             495.08,134.19 497.60,126.89 505.00,128.47
             511.84,129.94 511.99,136.44 512.00,142.00
             512.00,142.00 512.00,427.00 512.00,427.00
             512.00,427.00 512.00,454.00 512.00,454.00
             512.00,474.32 512.66,490.86 494.00,504.21
             490.73,506.56 486.82,508.39 483.00,509.64
             477.51,511.43 471.75,511.99 466.00,512.00
             466.00,512.00 108.00,512.00 108.00,512.00
             108.00,512.00 65.00,512.00 65.00,512.00
             42.57,512.00 21.45,514.60 7.10,493.00
             4.94,489.74 3.16,485.75 2.04,482.00
             0.49,476.80 0.01,471.40 0.00,466.00
             0.00,466.00 0.00,206.00 0.00,206.00
             0.00,206.00 0.00,140.00 0.00,140.00
             0.08,134.19 2.60,126.89 10.00,128.47
             16.84,129.94 16.99,136.44 17.00,142.00
             17.00,142.00 17.00,413.00 17.00,413.00
             17.00,413.00 17.00,465.00 17.00,465.00
             17.03,484.03 28.00,494.97 47.00,495.00
             47.00,495.00 247.00,495.00 247.00,495.00
             247.00,495.00 247.00,474.00 247.00,474.00
             247.00,474.00 225.00,467.43 225.00,467.43
             214.12,464.33 196.21,461.02 185.00,461.00
             185.00,461.00 161.00,461.00 161.00,461.00
             161.00,461.00 149.00,461.91 149.00,461.91
             124.86,463.57 100.80,465.85 77.00,470.60
             77.00,470.60 51.00,476.14 51.00,476.14
             46.76,477.18 42.13,478.86 38.13,476.14
             33.66,473.11 34.01,467.76 34.00,463.00
             34.00,463.00 34.00,100.00 34.00,100.00
             34.01,96.09 33.69,91.50 36.51,88.39
             39.34,85.27 45.94,84.12 50.00,83.13
             50.00,83.13 84.00,76.27 84.00,76.27
             84.00,76.27 141.00,69.91 141.00,69.91
             141.00,69.91 153.00,69.00 153.00,69.00
             153.00,69.00 165.00,69.00 165.00,69.00
             165.00,69.00 179.00,68.04 179.00,68.04
             179.00,68.04 187.00,69.04 187.00,69.04
             187.00,69.04 197.00,69.04 197.00,69.04
             205.29,69.96 214.92,71.62 223.00,73.63
             232.51,75.99 241.87,78.59 251.00,82.20
             254.24,83.49 260.10,85.73 262.28,88.39
             265.06,91.78 264.99,97.82 265.00,102.00
             265.00,102.00 265.00,420.00 265.00,420.00
             300.45,399.58 337.29,381.40 375.00,365.58
             375.00,365.58 398.00,356.42 398.00,356.42
             400.77,355.38 406.54,353.64 408.40,351.50
             410.33,349.29 409.99,345.76 410.00,343.00
             410.00,343.00 410.00,21.00 410.00,21.00 Z
           M 372.00,94.53
           C 377.14,93.82 382.27,95.15 383.53,101.00
             385.38,109.65 372.91,112.44 367.00,114.80
             367.00,114.80 327.00,132.26 327.00,132.26
             327.00,132.26 304.00,143.53 304.00,143.53
             294.50,147.12 289.53,140.59 290.66,135.00
             291.97,128.52 304.43,124.03 310.00,121.25
             323.98,114.25 357.92,98.58 372.00,94.53 Z
           M 373.00,145.53
           C 377.88,145.03 382.37,146.61 383.53,152.00
             385.39,160.71 372.92,163.64 367.00,166.00
             367.00,166.00 334.00,180.31 334.00,180.31
             334.00,180.31 318.00,188.14 318.00,188.14
             313.28,190.24 302.50,196.16 298.00,195.83
             291.79,195.36 288.94,188.94 291.33,184.04
             292.75,181.12 295.26,179.72 298.00,178.26
             298.00,178.26 333.00,161.69 333.00,161.69
             344.05,156.63 361.58,148.50 373.00,145.53 Z
           M 143.00,154.42
           C 157.33,152.68 189.89,154.42 204.00,157.82
             216.47,160.83 214.31,172.59 206.98,174.57
             203.43,175.52 197.73,173.85 194.00,173.27
             194.00,173.27 169.00,171.00 169.00,171.00
             139.78,170.95 127.50,172.63 99.00,178.34
             92.62,179.61 84.08,177.47 85.82,169.02
             87.11,162.76 94.79,161.58 100.00,160.42
             100.00,160.42 133.00,155.17 133.00,155.17
             133.00,155.17 143.00,154.42 143.00,154.42 Z
           M 375.00,196.65
           C 384.20,197.28 386.29,206.33 380.61,211.30
             378.35,213.28 363.94,218.39 360.00,220.01
             360.00,220.01 321.00,237.75 321.00,237.75
             315.34,240.58 304.00,247.23 298.00,246.85
             290.34,246.37 286.04,236.25 297.02,230.26
             297.02,230.26 340.00,209.70 340.00,209.70
             349.16,205.57 365.47,198.11 375.00,196.65 Z
           M 145.00,205.42
           C 158.39,203.79 192.05,205.68 205.00,209.25
             215.70,212.20 214.55,223.48 206.98,225.57
             203.05,226.66 197.07,224.90 193.00,224.27
             193.00,224.27 166.00,222.00 166.00,222.00
             148.55,221.97 131.20,223.32 114.00,226.18
             106.81,227.72 91.48,233.58 86.95,226.18
             81.99,217.59 90.57,213.84 97.00,212.35
             97.00,212.35 134.00,206.28 134.00,206.28
             134.00,206.28 145.00,205.42 145.00,205.42 Z
           M 371.00,248.53
           C 373.96,248.05 377.13,247.62 379.89,249.17
             384.90,251.99 384.79,258.77 380.72,262.35
             378.32,264.48 363.11,269.93 359.00,271.60
             359.00,271.60 320.00,289.31 320.00,289.31
             315.00,291.60 303.88,298.17 299.00,298.21
             290.98,298.27 285.31,287.99 297.02,281.31
             297.02,281.31 336.00,262.70 336.00,262.70
             346.15,258.12 360.51,251.56 371.00,248.53 Z
           M 147.00,256.42
           C 159.95,254.85 191.27,257.05 204.00,260.24
             216.72,263.43 213.60,274.19 207.96,276.40
             203.66,278.08 195.61,275.73 191.00,275.15
             179.79,273.76 168.30,272.95 157.00,273.00
             157.00,273.00 115.00,277.43 115.00,277.43
             115.00,277.43 96.00,281.29 96.00,281.29
             85.60,282.28 82.85,271.61 89.13,266.51
             91.78,264.36 95.74,263.87 99.00,263.12
             99.00,263.12 121.00,259.13 121.00,259.13
             121.00,259.13 147.00,256.42 147.00,256.42 Z
           M 372.00,299.52
           C 384.40,297.71 386.08,308.45 380.72,313.44
             378.30,315.70 364.19,320.69 360.00,322.40
             360.00,322.40 320.00,340.75 320.00,340.75
             315.67,342.92 302.26,349.83 298.00,349.59
             292.98,349.30 289.17,343.78 290.78,339.00
             291.90,335.67 295.03,333.41 298.00,331.82
             298.00,331.82 307.00,327.74 307.00,327.74
             307.00,327.74 340.00,312.14 340.00,312.14
             350.44,307.49 360.92,302.46 372.00,299.52 Z
           M 156.00,307.42
           C 165.41,306.28 166.94,307.61 175.00,307.96
             184.70,308.38 196.71,309.01 206.00,311.94
             216.24,315.17 213.60,325.92 206.98,328.22
             204.08,329.24 199.09,327.79 196.00,327.25
             187.56,325.79 182.61,325.10 174.00,325.00
             174.00,325.00 162.00,324.18 162.00,324.18
             162.00,324.18 147.00,325.00 147.00,325.00
             147.00,325.00 118.00,328.13 118.00,328.13
             111.31,329.09 94.43,334.73 89.22,330.99
             84.69,327.74 83.04,318.88 94.00,315.44
             103.64,312.42 134.73,308.05 145.00,308.00
             149.63,307.98 151.28,308.09 156.00,307.42 Z
           M 140.00,359.42
           C 152.56,357.89 183.35,358.95 196.00,361.08
             201.97,362.09 211.63,362.66 212.76,370.00
             213.95,377.76 207.59,380.45 201.00,379.38
             192.06,377.93 183.10,376.04 174.00,376.00
             174.00,376.00 133.00,377.28 133.00,377.28
             133.00,377.28 107.00,381.40 107.00,381.40
             103.68,382.06 95.87,384.13 93.00,383.74
             85.53,382.71 83.13,373.18 89.13,368.72
             92.87,365.95 109.68,363.25 115.00,362.42
             115.00,362.42 140.00,359.42 140.00,359.42 Z" />
</svg>
