<?xml version="1.0" encoding="UTF-8" standalone="no"?>
<!DOCTYPE svg PUBLIC "-//W3C//DTD SVG 20010904//EN"
              "http://www.w3.org/TR/2001/REC-SVG-20010904/DTD/svg10.dtd">

<svg xmlns="http://www.w3.org/2000/svg"
     width="135.45mm" height="135.45mm"
     viewBox="0 0 512 512">
  <path id="furniture"
        fill="none" stroke="black" stroke-width="1"
        d="M 208.00,48.00
           C 208.00,41.81 207.63,35.99 209.60,30.00
             214.73,14.33 227.38,8.02 243.00,8.00
             243.00,8.00 384.00,8.00 384.00,8.00
             384.00,8.00 463.00,8.00 463.00,8.00
             484.19,8.25 495.97,22.50 496.00,43.00
             496.00,43.00 496.00,372.00 496.00,372.00
             496.00,372.00 496.00,438.00 496.00,438.00
             495.91,457.57 483.80,471.09 464.00,472.00
             464.00,472.00 464.00,493.00 464.00,493.00
             463.95,496.55 463.90,499.90 460.77,502.26
             457.07,505.06 442.17,504.01 437.00,504.00
             434.20,504.00 430.61,504.21 428.10,502.83
             422.07,499.49 415.53,477.56 410.61,473.60
             407.49,471.09 396.29,472.00 392.00,472.00
             392.00,472.00 392.00,456.00 392.00,456.00
             392.00,456.00 459.00,456.00 459.00,456.00
             473.65,455.98 479.98,449.65 480.00,435.00
             480.00,435.00 480.00,158.00 480.00,158.00
             480.00,158.00 480.00,44.00 480.00,44.00
             479.93,29.58 472.91,24.02 459.00,24.00
             459.00,24.00 360.00,24.00 360.00,24.00
             360.00,24.00 360.00,192.00 360.00,192.00
             360.00,192.00 344.00,192.00 344.00,192.00
             344.00,192.00 344.00,24.00 344.00,24.00
             344.00,24.00 245.00,24.00 245.00,24.00
             242.01,24.00 238.89,23.90 236.00,24.80
             224.52,28.40 224.00,38.02 224.00,48.00
             224.00,48.00 208.00,48.00 208.00,48.00 Z
           M 144.00,48.00
           C 144.00,48.00 160.00,48.00 160.00,48.00
             160.00,48.00 160.00,64.00 160.00,64.00
             160.00,64.00 219.00,64.00 219.00,64.00
             224.36,64.01 229.76,63.69 231.57,70.02
             231.57,70.02 233.17,87.00 233.17,87.00
             233.17,87.00 237.17,135.00 237.17,135.00
             237.17,135.00 239.09,158.00 239.09,158.00
             239.34,161.56 240.41,165.44 239.77,169.00
             238.49,176.17 232.82,175.99 227.00,176.00
             227.00,176.00 160.00,176.00 160.00,176.00
             160.00,176.00 160.00,192.00 160.00,192.00
             160.00,192.00 144.00,192.00 144.00,192.00
             144.00,192.00 144.00,176.00 144.00,176.00
             144.00,176.00 77.00,176.00 77.00,176.00
             71.18,175.99 65.51,176.17 64.23,169.00
             63.59,165.44 64.66,161.56 64.91,158.00
             64.91,158.00 66.83,135.00 66.83,135.00
             66.83,135.00 70.83,87.00 70.83,87.00
             70.83,87.00 72.43,70.02 72.43,70.02
             74.24,63.69 79.64,64.01 85.00,64.00
             85.00,64.00 144.00,64.00 144.00,64.00
             144.00,64.00 144.00,48.00 144.00,48.00 Z
           M 217.00,80.00
           C 217.00,80.00 87.00,80.00 87.00,80.00
             87.00,80.00 85.17,104.00 85.17,104.00
             85.17,104.00 81.00,160.00 81.00,160.00
             81.00,160.00 223.00,160.00 223.00,160.00
             223.00,160.00 218.83,104.00 218.83,104.00
             218.83,104.00 217.00,80.00 217.00,80.00 Z
           M 64.00,280.00
           C 64.00,280.00 64.00,254.00 64.00,254.00
             64.00,254.00 64.00,241.00 64.00,241.00
             64.18,226.33 71.69,214.29 86.00,209.60
             90.49,208.13 94.36,208.01 99.00,208.07
             99.00,208.07 318.00,208.07 318.00,208.07
             318.00,208.07 340.00,208.07 340.00,208.07
             340.00,208.07 356.00,208.07 356.00,208.07
             368.64,209.95 378.41,217.82 382.40,230.00
             383.87,234.49 383.99,238.36 384.00,243.00
             384.00,243.00 384.00,280.00 384.00,280.00
             384.00,280.00 368.00,280.00 368.00,280.00
             368.00,280.00 368.00,250.00 368.00,250.00
             368.00,245.10 368.54,238.41 366.43,234.00
             362.34,225.44 355.53,224.01 347.00,224.00
             347.00,224.00 142.00,224.00 142.00,224.00
             142.00,224.00 108.00,224.00 108.00,224.00
             102.80,224.00 94.58,223.38 90.00,225.57
             81.44,229.66 80.01,236.47 80.00,245.00
             80.00,245.00 80.00,280.00 80.00,280.00
             80.00,280.00 64.00,280.00 64.00,280.00 Z
           M 176.00,256.00
           C 176.00,256.00 192.00,256.00 192.00,256.00
             192.00,256.00 192.00,272.00 192.00,272.00
             192.00,272.00 176.00,272.00 176.00,272.00
             176.00,272.00 176.00,256.00 176.00,256.00 Z
           M 256.00,256.00
           C 256.00,256.00 272.00,256.00 272.00,256.00
             272.00,256.00 272.00,272.00 272.00,272.00
             272.00,272.00 256.00,272.00 256.00,272.00
             256.00,272.00 256.00,256.00 256.00,256.00 Z
           M 64.00,407.00
           C 58.05,406.71 52.36,404.78 47.00,402.22
             23.52,391.00 11.58,364.03 17.50,339.00
             23.32,314.40 45.68,296.26 71.00,296.00
             79.87,295.91 88.99,297.93 97.00,301.79
             105.84,306.03 113.43,312.78 118.76,321.00
             125.15,330.87 127.98,341.31 128.00,353.00
             128.00,353.00 128.00,380.00 128.00,380.00
             139.92,375.61 162.07,372.22 175.00,370.84
             205.03,367.62 232.89,366.82 263.00,369.83
             277.32,371.26 307.43,374.73 320.00,380.00
             320.00,380.00 320.00,354.00 320.00,354.00
             320.02,342.10 322.86,330.99 329.52,321.00
             334.93,312.90 343.15,305.47 352.00,301.32
             360.15,297.51 369.04,295.80 378.00,296.01
             406.33,296.69 429.13,319.13 431.83,347.00
             434.52,374.74 412.95,405.58 384.00,407.00
             384.00,407.00 384.00,429.00 384.00,429.00
             384.00,446.91 383.28,461.58 364.00,469.65
             360.07,471.30 356.21,471.81 352.00,472.00
             352.00,472.00 352.00,492.00 352.00,492.00
             351.95,500.80 350.33,503.87 341.00,504.00
             334.98,504.08 318.56,505.44 314.39,501.57
             311.78,499.15 305.30,485.09 303.25,481.00
             301.95,478.42 300.34,474.53 297.79,473.02
             295.71,471.80 292.38,472.00 290.00,472.00
             290.00,472.00 224.00,472.00 224.00,472.00
             224.00,472.00 158.00,472.00 158.00,472.00
             155.62,472.00 152.29,471.80 150.21,473.02
             147.66,474.53 146.05,478.42 144.75,481.00
             142.70,485.09 136.22,499.15 133.61,501.57
             129.44,505.44 113.02,504.08 107.00,504.00
             98.71,503.88 96.12,501.29 96.00,493.00
             96.00,493.00 96.00,472.00 96.00,472.00
             91.77,471.81 87.95,471.30 84.00,469.65
             64.62,461.56 64.00,447.06 64.00,429.00
             64.00,429.00 64.00,407.00 64.00,407.00 Z
           M 136.00,296.00
           C 136.00,296.00 152.00,296.00 152.00,296.00
             152.00,296.00 152.00,312.00 152.00,312.00
             152.00,312.00 136.00,312.00 136.00,312.00
             136.00,312.00 136.00,296.00 136.00,296.00 Z
           M 216.00,296.00
           C 216.00,296.00 232.00,296.00 232.00,296.00
             232.00,296.00 232.00,312.00 232.00,312.00
             232.00,312.00 216.00,312.00 216.00,312.00
             216.00,312.00 216.00,296.00 216.00,296.00 Z
           M 296.00,296.00
           C 296.00,296.00 312.00,296.00 312.00,296.00
             312.00,296.00 312.00,312.00 312.00,312.00
             312.00,312.00 296.00,312.00 296.00,312.00
             296.00,312.00 296.00,296.00 296.00,296.00 Z
           M 92.00,393.00
           C 92.00,393.00 105.00,387.45 105.00,387.45
             106.79,386.72 109.83,385.87 111.01,384.30
             112.17,382.75 111.99,379.87 112.00,378.00
             112.00,378.00 112.00,354.00 112.00,354.00
             111.98,341.32 108.01,329.69 98.00,321.33
             75.67,302.69 40.24,313.27 33.24,342.00
             29.02,359.31 36.13,377.95 52.00,386.69
             56.87,389.37 60.52,390.69 66.00,391.56
             70.80,392.33 75.05,391.49 78.26,396.11
             80.27,399.00 79.99,402.66 80.00,406.00
             80.00,406.00 80.00,438.00 80.00,438.00
             80.09,445.23 81.97,451.06 89.00,454.43
             92.56,456.14 96.17,455.99 100.00,456.00
             100.00,456.00 288.00,456.00 288.00,456.00
             288.00,456.00 350.00,456.00 350.00,456.00
             363.71,455.83 367.98,448.73 368.00,436.00
             368.00,436.00 368.00,404.00 368.00,404.00
             368.23,387.31 379.16,395.52 395.00,387.22
             411.55,378.55 419.12,359.91 414.76,342.00
             407.77,313.28 372.26,302.59 350.04,321.47
             340.40,329.66 336.02,341.64 336.00,354.00
             336.00,354.00 336.00,377.00 336.00,377.00
             336.00,379.04 335.74,382.63 336.99,384.30
             338.17,385.87 341.21,386.72 343.00,387.45
             343.00,387.45 356.00,393.00 356.00,393.00
             356.00,393.00 348.00,407.00 348.00,407.00
             332.09,397.98 305.21,391.94 287.00,389.08
             245.46,382.04 200.51,382.33 159.00,389.08
             141.67,392.13 115.10,398.44 100.00,407.00
             100.00,407.00 92.00,393.00 92.00,393.00 Z
           M 67.00,328.52
           C 71.32,327.83 74.76,327.73 79.00,329.05
             106.28,337.54 98.34,377.85 70.00,375.90
             52.32,374.69 42.72,355.07 51.36,340.00
             55.05,333.58 60.06,330.43 67.00,328.52 Z
           M 371.00,328.52
           C 375.32,327.83 378.76,327.73 383.00,329.05
             410.28,337.54 402.34,377.85 374.00,375.90
             356.32,374.69 346.72,355.07 355.36,340.00
             359.05,333.58 364.06,330.43 371.00,328.52 Z
           M 176.00,336.00
           C 176.00,336.00 192.00,336.00 192.00,336.00
             192.00,336.00 192.00,352.00 192.00,352.00
             192.00,352.00 176.00,352.00 176.00,352.00
             176.00,352.00 176.00,336.00 176.00,336.00 Z
           M 256.00,336.00
           C 256.00,336.00 272.00,336.00 272.00,336.00
             272.00,336.00 272.00,352.00 272.00,352.00
             272.00,352.00 256.00,352.00 256.00,352.00
             256.00,352.00 256.00,336.00 256.00,336.00 Z
           M 70.02,344.45
           C 59.19,348.88 64.97,361.81 73.98,359.55
             82.32,357.47 82.37,343.23 70.02,344.45 Z
           M 374.02,344.45
           C 363.19,348.88 368.97,361.81 377.98,359.55
             386.32,357.47 386.37,343.23 374.02,344.45 Z
           M 131.00,472.00
           C 131.00,472.00 112.00,472.00 112.00,472.00
             112.00,472.00 112.00,488.00 112.00,488.00
             114.32,488.00 119.87,488.23 121.79,487.40
             125.36,485.85 129.40,475.71 131.00,472.00 Z
           M 336.00,472.00
           C 336.00,472.00 317.00,472.00 317.00,472.00
             318.60,475.71 322.64,485.85 326.21,487.40
             328.13,488.23 333.68,488.00 336.00,488.00
             336.00,488.00 336.00,472.00 336.00,472.00 Z
           M 448.00,472.00
           C 448.00,472.00 429.00,472.00 429.00,472.00
             430.60,475.71 434.64,485.85 438.21,487.40
             440.13,488.23 445.68,488.00 448.00,488.00
             448.00,488.00 448.00,472.00 448.00,472.00 Z" />
</svg>
