<?xml version="1.0" encoding="UTF-8" standalone="no"?>
<!DOCTYPE svg PUBLIC "-//W3C//DTD SVG 20010904//EN"
              "http://www.w3.org/TR/2001/REC-SVG-20010904/DTD/svg10.dtd">

<svg xmlns="http://www.w3.org/2000/svg"
     width="169.312mm" height="169.312mm"
     viewBox="0 0 512 512">
  <path id="grocery"
        fill="none" stroke="black" stroke-width="1"
        d="M 162.00,38.00
           C 162.00,28.08 161.91,17.15 168.53,9.04
             179.48,-4.39 201.22,-1.68 209.64,13.00
             214.11,20.81 213.00,30.32 213.00,39.00
             225.22,30.35 234.63,32.49 247.00,39.00
             247.00,33.54 246.20,23.51 250.43,19.51
             254.22,15.91 265.77,17.00 271.00,17.00
             271.00,17.00 327.00,17.00 327.00,17.00
             327.00,17.00 344.00,17.00 344.00,17.00
             348.12,17.01 353.43,16.64 356.26,20.28
             358.29,22.88 357.99,26.86 358.00,30.00
             358.01,34.23 357.56,51.19 358.60,54.00
             360.20,58.34 371.00,68.13 375.00,71.00
             375.00,71.00 382.32,50.00 382.32,50.00
             389.03,31.83 393.72,17.37 412.00,7.31
             450.59,-13.92 495.98,13.98 494.99,58.00
             494.68,71.63 487.43,87.14 482.68,100.00
             482.68,100.00 457.58,167.00 457.58,167.00
             457.58,167.00 447.81,193.00 447.81,193.00
             446.78,195.71 443.14,204.79 442.93,207.00
             442.93,207.00 444.00,220.00 444.00,220.00
             444.00,220.00 444.00,379.00 444.00,379.00
             444.00,379.00 444.00,467.00 444.00,467.00
             443.68,493.83 425.93,511.96 399.00,512.00
             399.00,512.00 162.00,512.00 162.00,512.00
             162.00,512.00 162.00,495.00 162.00,495.00
             162.00,495.00 350.00,495.00 350.00,495.00
             350.00,495.00 350.00,244.00 350.00,244.00
             349.99,239.53 350.41,236.83 346.85,233.52
             344.35,231.18 335.32,224.82 332.00,225.26
             324.67,226.22 313.51,241.48 304.00,238.00
             300.76,236.82 292.37,230.89 289.00,228.67
             286.74,227.18 283.86,224.88 281.00,225.26
             275.36,226.00 262.91,239.42 255.00,238.57
             250.51,238.09 242.04,231.68 238.00,229.00
             235.35,227.24 232.40,224.67 229.00,225.55
             223.64,226.92 211.35,239.20 204.00,238.67
             197.86,238.24 184.85,225.90 180.00,225.26
             177.14,224.88 174.26,227.18 172.00,228.67
             167.14,231.87 157.83,239.54 152.00,238.57
             148.07,237.91 140.57,232.38 137.00,230.00
             137.00,230.00 137.00,358.00 137.00,358.00
             137.00,358.00 119.00,358.00 119.00,358.00
             119.00,358.00 119.00,224.00 119.00,224.00
             119.00,221.49 119.14,218.35 118.27,216.00
             118.27,216.00 103.09,195.00 103.09,195.00
             93.71,180.17 93.76,159.33 104.00,145.00
             104.00,145.00 84.00,127.04 84.00,127.04
             84.00,127.04 71.00,114.00 71.00,114.00
             71.00,114.00 83.00,102.00 83.00,102.00
             83.00,102.00 106.00,123.09 106.00,123.09
             110.62,127.39 112.28,131.12 119.00,131.00
             119.00,131.00 98.00,89.00 98.00,89.00
             100.67,87.48 109.07,82.18 111.79,82.82
             115.07,83.59 120.58,95.72 122.00,99.00
             125.70,93.09 128.32,89.62 135.00,87.00
             129.00,81.00 121.87,74.80 120.33,66.00
             117.40,49.33 127.36,33.96 145.00,33.10
             151.30,32.80 156.56,35.21 162.00,38.00 Z
           M 199.00,183.00
           C 201.07,181.47 202.74,180.38 203.98,177.98
             205.09,175.82 204.98,173.36 205.00,171.00
             205.00,171.00 205.00,149.00 205.00,149.00
             205.00,149.00 205.00,106.00 205.00,106.00
             205.15,95.59 212.26,92.26 218.83,85.00
             218.83,85.00 232.98,70.00 232.98,70.00
             236.63,66.24 240.09,62.67 238.35,57.02
             237.60,54.61 236.13,52.66 233.90,51.46
             225.54,46.93 217.48,59.02 212.00,63.89
             210.23,65.47 208.39,67.02 206.00,67.53
             198.60,69.09 196.08,61.82 196.00,56.00
             196.00,56.00 196.00,29.00 196.00,29.00
             195.95,25.63 195.82,22.04 193.35,19.43
             189.61,15.48 182.57,17.01 180.60,22.04
             179.89,23.86 180.00,27.01 179.84,29.00
             179.84,29.00 179.84,52.00 179.84,52.00
             179.99,54.33 180.02,56.71 179.84,59.00
             179.22,60.38 178.79,61.76 178.07,62.98
             169.87,76.78 158.74,56.43 151.00,51.85
             145.67,48.71 139.10,50.86 137.43,57.00
             135.79,63.04 139.09,66.95 143.02,71.00
             143.02,71.00 158.41,87.00 158.41,87.00
             160.20,89.14 163.01,92.20 163.46,95.00
             164.16,99.33 160.13,103.31 156.00,103.67
             152.53,103.98 149.33,101.63 146.00,101.51
             139.60,101.28 136.27,107.21 137.23,113.00
             139.07,124.07 148.79,123.79 157.00,126.70
             162.50,128.65 167.53,131.72 171.99,135.46
             183.58,145.20 191.73,168.99 199.00,183.00 Z
           M 341.00,209.00
           C 344.24,211.16 354.78,218.95 358.00,219.08
             363.29,219.29 376.33,206.33 383.00,205.49
             388.28,204.83 398.42,213.02 403.00,216.00
             406.60,218.34 408.72,220.21 413.00,218.16
             415.69,216.87 420.55,213.32 422.30,210.91
             422.30,210.91 434.42,180.00 434.42,180.00
             434.42,180.00 463.81,102.00 463.81,102.00
             467.85,91.39 477.56,68.23 477.96,58.00
             479.18,26.94 445.79,6.14 419.00,22.95
             404.04,32.34 399.20,53.10 393.32,69.00
             393.32,69.00 371.95,126.00 371.95,126.00
             371.95,126.00 341.00,209.00 341.00,209.00 Z
           M 341.00,34.00
           C 341.00,34.00 265.00,34.00 265.00,34.00
             265.00,34.00 265.00,51.00 265.00,51.00
             265.00,51.00 341.00,51.00 341.00,51.00
             341.00,51.00 341.00,34.00 341.00,34.00 Z
           M 329.00,68.00
           C 329.00,68.00 267.00,68.00 267.00,68.00
             256.03,68.02 254.55,72.45 247.00,80.00
             242.50,84.50 237.71,88.81 234.00,94.00
             234.00,94.00 296.00,94.00 296.00,94.00
             306.97,93.98 308.45,89.55 316.00,82.00
             320.50,77.50 325.29,73.19 329.00,68.00 Z
           M 316.00,214.00
           C 317.98,213.02 319.95,212.12 321.49,210.47
             324.05,207.73 330.19,189.71 331.95,185.00
             331.95,185.00 356.68,119.00 356.68,119.00
             356.68,119.00 366.53,91.00 366.53,91.00
             366.59,86.65 355.81,75.56 352.00,73.74
             347.62,71.66 342.77,78.23 340.00,81.00
             335.95,85.05 318.80,101.44 317.02,105.00
             316.02,107.00 316.04,108.83 316.00,111.00
             316.00,111.00 316.00,214.00 316.00,214.00 Z
           M 425.00,74.00
           C 425.00,74.00 432.33,94.00 432.33,94.00
             432.33,94.00 442.00,126.00 442.00,126.00
             438.49,126.80 429.26,130.68 426.51,128.94
             424.00,127.35 422.18,118.98 421.28,116.00
             418.49,106.74 410.74,87.20 410.00,79.00
             410.00,79.00 425.00,74.00 425.00,74.00 Z
           M 299.00,111.00
           C 299.00,111.00 222.00,111.00 222.00,111.00
             222.00,111.00 222.00,166.00 222.00,166.00
             228.95,164.43 235.78,162.03 243.00,162.03
             261.72,162.03 279.33,172.70 289.64,188.00
             296.91,198.78 295.59,204.37 299.00,211.00
             299.00,211.00 299.00,111.00 299.00,111.00 Z
           M 385.00,139.00
           C 385.00,139.00 401.00,134.00 401.00,134.00
             401.00,134.00 417.00,185.00 417.00,185.00
             417.00,185.00 401.00,190.00 401.00,190.00
             401.00,190.00 385.00,139.00 385.00,139.00 Z
           M 189.00,209.00
           C 189.67,197.45 185.86,195.16 181.42,185.00
             181.42,185.00 174.31,170.00 174.31,170.00
             168.46,157.26 165.14,146.26 150.00,142.16
             145.70,140.99 141.41,140.63 137.00,141.47
             113.75,145.85 104.55,176.61 123.00,192.00
             123.00,192.00 136.00,181.65 136.00,181.65
             137.51,180.48 141.23,177.45 142.96,177.11
             146.74,176.35 153.36,185.46 151.98,188.91
             151.16,190.94 147.74,193.30 146.00,194.65
             141.46,198.18 136.56,201.45 133.00,206.00
             133.00,206.00 147.00,216.00 147.00,216.00
             147.00,216.00 154.00,219.08 154.00,219.08
             154.00,219.08 178.00,205.52 178.00,205.52
             178.00,205.52 189.00,209.00 189.00,209.00 Z
           M 205.00,220.00
           C 205.00,220.00 222.00,209.00 222.00,209.00
             225.03,207.03 228.18,204.68 232.00,205.55
             235.12,206.26 245.60,213.63 249.00,215.78
             251.27,217.22 254.19,219.40 257.00,219.03
             259.60,218.68 272.35,210.02 274.94,207.96
             277.12,206.23 278.51,204.97 277.89,201.99
             277.05,197.95 271.94,191.88 268.99,189.09
             251.54,172.65 221.81,177.26 209.88,198.00
             205.34,205.90 205.00,211.22 205.00,220.00 Z
           M 427.00,230.00
           C 419.30,232.45 413.73,239.41 408.00,238.25
             403.18,237.28 390.09,226.47 386.00,225.19
             382.41,224.06 379.87,226.13 377.00,228.00
             367.73,234.04 367.02,233.98 367.00,243.00
             367.00,243.00 367.00,495.00 367.00,495.00
             367.00,495.00 389.00,495.00 389.00,495.00
             400.39,495.00 409.86,496.44 418.91,487.82
             422.12,484.75 424.31,481.27 425.51,477.00
             426.83,472.31 426.99,468.80 427.00,464.00
             427.00,464.00 427.00,230.00 427.00,230.00 Z
           M 69.00,341.00
           C 84.54,343.83 96.53,349.19 101.07,366.00
             102.37,370.79 102.00,376.97 102.00,382.00
             111.50,377.92 116.14,375.33 127.00,375.74
             132.89,375.97 137.51,376.56 143.00,378.87
             160.87,386.42 169.48,401.23 170.82,420.00
             171.08,423.63 170.33,425.55 170.09,429.00
             168.93,445.91 166.00,461.35 159.14,477.00
             156.24,483.60 153.13,491.38 148.62,497.00
             139.64,508.21 125.30,514.37 111.00,511.33
             111.00,511.33 94.00,505.78 94.00,505.78
             91.44,505.78 87.56,507.97 85.00,508.94
             80.83,510.51 75.46,511.79 71.00,511.96
             60.69,512.36 49.49,508.14 42.17,500.83
             37.59,496.24 35.08,490.70 32.25,485.00
             25.20,470.80 21.29,457.60 18.75,442.00
             18.75,442.00 17.00,423.00 17.00,423.00
             16.96,414.21 18.11,406.88 22.32,399.00
             34.66,375.96 62.88,369.46 85.00,382.00
             85.00,376.54 85.66,371.75 82.35,367.00
             80.48,364.32 77.88,361.98 75.00,360.44
             73.26,359.51 70.15,358.77 69.00,357.28
             66.94,354.62 68.10,344.18 69.00,341.00 Z
           M 56.00,393.32
           C 34.93,398.10 32.90,414.89 34.84,433.00
             35.74,441.47 37.28,449.82 39.72,458.00
             39.72,458.00 44.01,470.00 44.01,470.00
             45.84,474.40 50.52,484.38 53.53,487.70
             61.13,496.11 71.22,496.31 81.00,492.13
             85.04,490.40 90.67,486.64 95.00,487.11
             101.43,487.81 109.42,496.36 121.00,494.70
             133.41,492.92 137.17,484.08 141.77,474.00
             149.12,457.89 151.88,445.53 153.09,428.00
             153.83,417.20 154.11,409.63 145.90,401.04
             136.35,391.06 120.05,390.30 109.00,398.17
             104.67,401.26 98.00,409.40 93.00,408.86
             87.72,408.28 83.36,401.45 78.00,397.64
             71.11,392.72 64.10,392.44 56.00,393.32 Z" />
</svg>
