<?xml version="1.0" encoding="UTF-8" standalone="no"?>
<!DOCTYPE svg PUBLIC "-//W3C//DTD SVG 20010904//EN"
              "http://www.w3.org/TR/2001/REC-SVG-20010904/DTD/svg10.dtd">

<svg xmlns="http://www.w3.org/2000/svg"
     width="3.99333in" height="1.18333in"
     viewBox="0 0 1198 355">
  <path id="kilowogWings"
        fill="white" stroke="white" stroke-width="1"
        d="M 1104.25,353.75
           C 1106.98,353.75 1105.09,334.14 1105.00,327.00
             1105.00,327.00 1105.00,179.00 1105.00,179.00
             1105.00,179.00 1155.00,179.00 1155.00,179.00
             1155.00,179.00 1197.00,178.00 1197.00,178.00
             1197.00,178.00 1197.00,155.00 1197.00,155.00
             1197.00,155.00 1155.00,154.00 1155.00,154.00
             1155.00,154.00 1105.00,154.00 1105.00,154.00
             1105.00,154.00 1105.00,39.00 1105.00,39.00
             1105.00,27.68 1108.19,7.34 1095.00,2.61
             1090.84,1.12 1086.36,1.01 1082.00,1.00
             1082.00,1.00 388.00,1.00 388.00,1.00
             388.00,1.00 168.00,1.00 168.00,1.00
             168.00,1.00 115.00,1.00 115.00,1.00
             102.81,1.17 101.02,9.67 101.00,20.00
             101.00,20.00 101.00,155.00 101.00,155.00
             101.00,155.00 18.00,155.00 18.00,155.00
             18.00,155.00 1.00,156.00 1.00,156.00
             1.00,156.00 1.00,180.00 1.00,180.00
             1.00,180.00 20.00,181.00 20.00,181.00
             20.00,181.00 101.00,181.00 101.00,181.00
             101.00,181.00 101.00,307.00 101.00,307.00
             101.00,316.54 99.27,339.76 104.51,346.98
             108.52,352.51 111.69,352.48 117.00,355.00
             117.00,355.00 1109.01,355.64 1104.25,353.75 Z
           M 127.00,27.00
           C 127.00,27.00 1079.00,27.00 1079.00,27.00
             1079.00,27.00 1079.00,329.00 1079.00,329.00
             1079.00,329.00 127.00,329.00 127.00,329.00
             127.00,329.00 127.00,27.00 127.00,27.00 Z
           M 195.00,40.00
           C 195.00,40.00 173.00,40.00 173.00,40.00
             173.00,40.00 173.00,258.00 173.00,258.00
             173.00,258.00 195.00,258.00 195.00,258.00
             195.00,258.00 195.00,216.00 195.00,216.00
             195.00,216.00 196.00,193.00 196.00,193.00
             198.48,198.34 206.22,207.12 210.25,212.00
             210.25,212.00 235.60,243.00 235.60,243.00
             238.46,246.57 245.12,255.90 249.04,257.40
             250.89,258.12 253.98,258.00 256.00,258.00
             256.00,258.00 276.00,258.00 276.00,258.00
             276.00,258.00 259.42,237.00 259.42,237.00
             259.42,237.00 230.92,202.00 230.92,202.00
             230.92,202.00 220.39,189.00 220.39,189.00
             218.89,187.09 216.46,184.65 217.19,182.00
             217.90,179.42 229.39,168.52 232.00,166.09
             240.02,158.62 264.80,136.26 270.00,129.00
             270.00,129.00 250.00,129.00 250.00,129.00
             238.49,129.02 237.05,134.26 229.00,141.96
             229.00,141.96 195.00,174.00 195.00,174.00
             195.00,174.00 195.00,40.00 195.00,40.00 Z
           M 392.00,40.00
           C 392.00,40.00 370.00,40.00 370.00,40.00
             370.00,40.00 370.00,258.00 370.00,258.00
             370.00,258.00 392.00,258.00 392.00,258.00
             392.00,258.00 392.00,40.00 392.00,40.00 Z
           M 308.00,61.42
           C 288.50,68.29 297.48,96.02 317.00,90.43
             328.38,87.17 331.04,73.06 322.89,65.13
             318.43,60.78 313.83,60.57 308.00,61.42 Z
           M 656.00,120.00
           C 656.00,120.00 642.32,155.00 642.32,155.00
             642.32,155.00 621.00,212.00 621.00,212.00
             621.00,212.00 602.58,165.00 602.58,165.00
             602.58,165.00 589.00,129.00 589.00,129.00
             589.00,129.00 564.00,129.00 564.00,129.00
             564.00,129.00 578.15,166.00 578.15,166.00
             578.15,166.00 600.40,221.00 600.40,221.00
             600.40,221.00 612.00,250.00 612.00,250.00
             612.00,250.00 620.00,267.00 620.00,267.00
             620.00,267.00 645.68,201.00 645.68,201.00
             645.68,201.00 655.00,175.00 655.00,175.00
             659.25,179.45 663.59,192.75 666.28,199.00
             666.28,199.00 684.99,244.00 684.99,244.00
             684.99,244.00 695.00,267.00 695.00,267.00
             695.00,267.00 714.42,220.00 714.42,220.00
             714.42,220.00 734.60,170.00 734.60,170.00
             734.60,170.00 751.00,129.00 751.00,129.00
             751.00,129.00 734.00,129.00 734.00,129.00
             734.00,129.00 726.50,130.02 726.50,130.02
             726.50,130.02 718.00,149.00 718.00,149.00
             718.00,149.00 700.20,195.00 700.20,195.00
             700.20,195.00 693.00,213.00 693.00,213.00
             693.00,213.00 656.00,120.00 656.00,120.00 Z
           M 487.00,126.30
           C 487.00,126.30 471.00,128.65 471.00,128.65
             455.33,132.38 441.76,142.48 433.09,156.00
             420.42,175.76 419.50,205.11 429.97,226.00
             433.88,233.79 441.18,242.12 448.00,247.48
             459.10,256.21 473.98,260.67 488.00,260.99
             497.30,261.20 507.33,259.25 516.00,255.94
             554.35,241.26 567.14,190.84 546.54,157.00
             535.27,138.49 517.19,128.61 496.00,126.92
             492.10,126.60 491.24,126.08 487.00,126.30 Z
           M 822.00,126.30
           C 822.00,126.30 806.00,128.65 806.00,128.65
             790.33,132.38 776.76,142.48 768.09,156.00
             755.42,175.76 754.50,205.11 764.97,226.00
             768.88,233.79 776.18,242.12 783.00,247.48
             794.10,256.21 808.98,260.67 823.00,260.99
             832.30,261.20 842.33,259.25 851.00,255.94
             889.35,241.26 902.14,190.84 881.54,157.00
             870.27,138.49 852.19,128.61 831.00,126.92
             827.10,126.60 826.24,126.08 822.00,126.30 Z
           M 1019.00,150.00
           C 1014.25,145.61 1012.57,141.74 1006.00,136.33
             998.06,129.78 983.25,125.56 973.00,126.32
             961.24,127.20 951.29,129.03 941.00,135.21
             931.39,140.98 922.84,149.94 917.81,160.00
             905.52,184.58 909.09,221.68 928.17,241.96
             939.00,253.47 951.77,258.23 967.00,260.42
             975.89,261.70 987.80,260.39 996.00,256.69
             1007.62,251.45 1011.05,246.17 1019.00,237.00
             1019.00,258.74 1020.51,278.73 1001.00,293.24
             977.10,311.01 937.49,298.03 936.00,266.00
             936.00,266.00 922.00,266.00 922.00,266.00
             919.81,266.00 915.49,265.63 914.03,267.60
             912.87,269.25 913.74,273.06 914.03,275.00
             915.14,283.37 917.38,289.90 922.10,297.00
             932.83,313.12 953.01,321.97 972.00,322.00
             972.00,322.00 980.00,322.00 980.00,322.00
             1005.30,321.96 1028.33,305.91 1036.91,282.00
             1042.63,266.08 1041.00,243.13 1041.00,226.00
             1041.00,226.00 1041.00,129.00 1041.00,129.00
             1041.00,129.00 1019.00,129.00 1019.00,129.00
             1019.00,129.00 1019.00,150.00 1019.00,150.00 Z
           M 324.00,258.00
           C 324.00,258.00 324.00,159.00 324.00,159.00
             324.00,159.00 324.00,137.00 324.00,137.00
             324.00,137.00 322.98,130.60 322.98,130.60
             322.98,130.60 315.00,129.00 315.00,129.00
             315.00,129.00 301.00,129.00 301.00,129.00
             301.00,129.00 301.00,258.00 301.00,258.00
             301.00,258.00 324.00,258.00 324.00,258.00 Z
           M 487.00,147.38
           C 487.00,147.38 491.00,147.38 491.00,147.38
             503.74,148.28 514.17,151.92 522.68,162.00
             532.55,173.72 533.17,183.55 533.00,198.00
             532.79,215.44 521.48,231.48 505.00,237.30
             500.16,239.01 493.14,240.16 488.00,239.96
             469.61,239.25 453.29,227.89 447.77,210.00
             446.37,205.44 445.82,199.77 445.51,195.00
             444.90,185.35 448.15,172.86 453.79,165.00
             462.88,152.30 472.59,149.44 487.00,147.38 Z
           M 822.00,147.38
           C 822.00,147.38 826.00,147.38 826.00,147.38
             838.74,148.28 849.17,151.92 857.68,162.00
             867.55,173.72 868.17,183.55 868.00,198.00
             867.79,215.44 856.48,231.48 840.00,237.30
             835.16,239.01 828.14,240.16 823.00,239.96
             804.61,239.25 788.29,227.89 782.77,210.00
             781.37,205.44 780.82,199.77 780.51,195.00
             779.90,185.35 783.15,172.86 788.79,165.00
             797.88,152.30 807.59,149.44 822.00,147.38 Z
           M 975.00,147.44
           C 991.02,146.16 1007.11,156.83 1014.02,171.00
             1016.87,176.84 1018.82,187.50 1018.82,194.00
             1018.82,217.31 1004.02,237.47 980.00,239.83
             963.17,241.49 945.81,232.07 938.28,217.00
             934.84,210.13 933.99,202.56 933.51,195.00
             933.02,187.31 935.19,175.77 938.90,169.00
             947.29,153.69 958.92,149.67 975.00,147.44 Z" />
</svg>
