<?xml version="1.0" encoding="UTF-8" standalone="no"?>
<!DOCTYPE svg PUBLIC "-//W3C//DTD SVG 20010904//EN"
              "http://www.w3.org/TR/2001/REC-SVG-20010904/DTD/svg10.dtd">

<svg xmlns="http://www.w3.org/2000/svg"
     width="3.99333in" height="1.18333in"
     viewBox="0 0 1198 355">
  <path id="kilowogInvWings"
        fill="white" stroke="black" stroke-width="1"
        d="M 101.00,155.00
           C 101.00,155.00 101.00,36.00 101.00,36.00
             101.00,30.50 100.39,10.91 101.89,7.00
             102.85,4.51 104.63,2.26 107.02,1.02
             109.35,-0.19 112.43,0.01 115.00,0.00
             115.00,0.00 874.00,0.00 874.00,0.00
             874.00,0.00 1051.00,0.00 1051.00,0.00
             1051.00,0.00 1087.00,0.72 1087.00,0.72
             1091.67,1.27 1095.91,0.45 1099.95,3.51
             1105.13,7.43 1104.99,12.16 1105.00,18.00
             1105.00,18.00 1105.00,154.00 1105.00,154.00
             1105.00,154.00 1198.00,154.00 1198.00,154.00
             1198.00,154.00 1198.00,179.00 1198.00,179.00
             1198.00,179.00 1105.00,179.00 1105.00,179.00
             1105.00,179.00 1105.00,324.00 1105.00,324.00
             1105.15,332.69 1107.32,328.61 1107.00,346.00
             1106.95,348.72 1107.03,351.29 1104.69,353.15
             1102.05,355.24 1097.22,354.99 1094.00,355.00
             1094.00,355.00 332.00,355.00 332.00,355.00
             332.00,355.00 155.00,355.00 155.00,355.00
             155.00,355.00 125.00,355.00 125.00,355.00
             120.99,355.00 113.41,355.53 110.00,353.83
             102.25,349.94 101.01,343.77 101.00,336.00
             101.00,336.00 101.00,181.00 101.00,181.00
             101.00,181.00 0.00,181.00 0.00,181.00
             0.00,181.00 0.00,155.00 0.00,155.00
             0.00,155.00 101.00,155.00 101.00,155.00 Z
           M 217.00,52.00
           C 217.00,52.00 196.00,52.00 196.00,52.00
             196.00,52.00 196.00,255.00 196.00,255.00
             196.00,255.00 217.00,255.00 217.00,255.00
             217.00,255.00 217.00,195.00 217.00,195.00
             217.00,195.00 253.92,240.00 253.92,240.00
             253.92,240.00 267.09,254.40 267.09,254.40
             267.09,254.40 273.00,255.00 273.00,255.00
             273.00,255.00 292.00,255.00 292.00,255.00
             292.00,255.00 250.25,203.00 250.25,203.00
             250.25,203.00 239.75,190.01 239.75,190.01
             239.75,190.01 236.68,184.66 236.68,184.66
             236.68,184.66 249.00,172.00 249.00,172.00
             249.00,172.00 274.00,148.04 274.00,148.04
             274.00,148.04 286.00,136.00 286.00,136.00
             286.00,136.00 268.00,136.00 268.00,136.00
             256.61,136.02 256.00,140.45 248.00,147.91
             248.00,147.91 217.00,177.00 217.00,177.00
             217.00,177.00 217.00,52.00 217.00,52.00 Z
           M 400.00,52.00
           C 400.00,52.00 380.00,52.00 380.00,52.00
             380.00,52.00 380.00,255.00 380.00,255.00
             380.00,255.00 400.00,255.00 400.00,255.00
             400.00,255.00 400.00,52.00 400.00,52.00 Z
           M 323.00,72.34
           C 304.07,77.45 311.41,103.56 329.00,99.61
             339.14,97.33 343.38,85.02 336.61,77.10
             332.72,72.56 328.64,71.74 323.00,72.34 Z
           M 645.00,128.00
           C 645.00,128.00 636.19,150.00 636.19,150.00
             636.19,150.00 612.00,213.00 612.00,213.00
             612.00,213.00 589.95,154.00 589.95,154.00
             589.95,154.00 582.35,136.99 582.35,136.99
             582.35,136.99 575.00,136.00 575.00,136.00
             575.00,136.00 560.00,136.00 560.00,136.00
             560.00,136.00 578.40,183.00 578.40,183.00
             578.40,183.00 596.60,228.00 596.60,228.00
             596.60,228.00 611.00,263.00 611.00,263.00
             611.00,263.00 620.80,240.00 620.80,240.00
             620.80,240.00 646.00,177.00 646.00,177.00
             646.00,177.00 668.58,233.00 668.58,233.00
             668.58,233.00 682.00,263.00 682.00,263.00
             682.00,263.00 716.80,177.00 716.80,177.00
             716.80,177.00 733.00,136.00 733.00,136.00
             733.00,136.00 718.00,136.00 718.00,136.00
             718.00,136.00 710.50,137.02 710.50,137.02
             710.50,137.02 702.42,155.00 702.42,155.00
             702.42,155.00 680.00,213.00 680.00,213.00
             680.00,213.00 656.20,154.00 656.20,154.00
             656.20,154.00 645.00,128.00 645.00,128.00 Z
           M 483.00,133.29
           C 461.78,136.53 444.15,146.72 434.90,167.00
             427.60,183.01 427.05,205.89 434.31,222.00
             438.06,230.32 442.43,235.70 449.00,241.96
             458.43,250.95 471.89,256.84 485.00,257.00
             499.86,257.17 510.76,257.15 524.00,248.94
             556.61,228.69 562.94,179.98 536.91,152.00
             522.58,136.60 503.48,131.37 483.00,133.29 Z
           M 794.00,133.29
           C 772.78,136.53 755.15,146.72 745.90,167.00
             738.60,183.01 738.05,205.89 745.31,222.00
             749.06,230.32 753.43,235.70 760.00,241.96
             769.43,250.95 782.89,256.84 796.00,257.00
             810.86,257.17 821.76,257.15 835.00,248.94
             867.61,228.69 873.94,179.98 847.91,152.00
             833.58,136.60 814.48,131.37 794.00,133.29 Z
           M 981.00,155.00
           C 976.01,143.31 963.98,136.43 952.00,134.00
             927.12,128.96 901.35,140.40 889.32,163.00
             877.14,185.89 880.26,220.80 898.17,239.96
             911.85,254.59 927.12,257.22 946.00,257.00
             953.14,256.91 959.82,254.90 966.00,251.32
             972.73,247.43 977.71,241.35 982.00,235.00
             982.00,246.15 983.20,259.52 979.45,270.00
             971.78,291.48 946.41,301.17 926.00,291.68
             918.80,288.33 911.95,282.14 908.38,275.00
             905.49,269.24 906.48,265.77 904.26,263.99
             902.19,262.33 888.39,263.00 885.00,263.00
             885.00,269.56 885.05,274.71 887.47,281.00
             903.20,321.98 966.14,325.75 991.24,292.00
             1004.53,274.13 1003.00,254.90 1003.00,234.00
             1003.00,234.00 1003.00,136.00 1003.00,136.00
             1003.00,136.00 982.00,136.00 982.00,136.00
             982.00,136.00 981.00,155.00 981.00,155.00 Z
           M 336.00,136.00
           C 336.00,136.00 316.00,136.00 316.00,136.00
             316.00,136.00 316.00,255.00 316.00,255.00
             316.00,255.00 336.00,255.00 336.00,255.00
             336.00,255.00 336.00,136.00 336.00,136.00 Z
           M 486.00,152.43
           C 494.13,151.42 503.78,152.91 511.00,156.90
             539.00,172.38 539.04,218.14 511.00,233.48
             503.82,237.41 496.98,238.09 489.00,238.00
             454.13,237.59 439.35,195.48 457.60,169.01
             464.75,158.63 474.00,154.40 486.00,152.43 Z
           M 797.00,152.43
           C 805.13,151.42 814.78,152.91 822.00,156.90
             850.00,172.38 850.04,218.14 822.00,233.48
             814.82,237.41 807.98,238.09 800.00,238.00
             765.13,237.59 750.35,195.48 768.60,169.01
             775.75,158.63 785.00,154.40 797.00,152.43 Z
           M 939.00,152.43
           C 944.58,151.74 947.56,151.89 953.00,153.43
             968.12,157.69 979.45,170.37 981.85,186.00
             981.85,186.00 981.85,199.00 981.85,199.00
             981.82,213.67 973.24,227.98 960.00,234.62
             953.92,237.67 948.63,238.07 942.00,238.00
             916.58,237.71 902.73,217.96 903.00,194.00
             903.11,185.03 905.51,175.36 910.79,168.00
             917.96,158.00 927.35,154.34 939.00,152.43 Z" />
</svg>
