<?xml version="1.0" encoding="UTF-8" standalone="no"?>
<!DOCTYPE svg PUBLIC "-//W3C//DTD SVG 20010904//EN"
              "http://www.w3.org/TR/2001/REC-SVG-20010904/DTD/svg10.dtd">

<svg xmlns="http://www.w3.org/2000/svg"
     width="3.6in" height="3.6in"
     viewBox="0 0 1080 1080">
  <path id="kwg-favicon"
        fill="white" stroke="black" stroke-width="1"
        d="M 456.00,404.00
           C 456.00,404.00 643.00,404.00 643.00,404.00
             643.00,404.00 643.00,494.00 643.00,494.00
             643.00,494.00 737.00,494.00 737.00,494.00
             737.00,494.00 737.00,518.00 737.00,518.00
             737.00,518.00 643.00,518.00 643.00,518.00
             643.00,518.00 643.00,597.00 643.00,597.00
             643.00,597.00 456.00,597.00 456.00,597.00
             456.00,597.00 456.00,518.00 456.00,518.00
             456.00,518.00 352.00,518.00 352.00,518.00
             352.00,518.00 352.00,494.00 352.00,494.00
             352.00,494.00 456.00,494.00 456.00,494.00
             456.00,494.00 456.00,404.00 456.00,404.00 Z
           M 532.00,411.00
           C 532.00,411.00 514.00,411.00 514.00,411.00
             514.00,411.00 514.00,580.00 514.00,580.00
             514.00,580.00 532.00,580.00 532.00,580.00
             532.00,580.00 532.00,532.00 532.00,532.00
             532.00,532.00 560.60,567.00 560.60,567.00
             566.33,574.16 568.36,579.93 578.00,580.00
             578.00,580.00 594.00,580.00 594.00,580.00
             591.44,574.33 586.87,569.82 583.00,565.00
             583.00,565.00 561.00,538.00 561.00,538.00
             558.69,535.12 549.57,525.12 549.88,522.00
             550.17,519.01 557.66,512.30 560.00,510.01
             560.00,510.01 580.00,491.01 580.00,491.01
             584.11,487.00 587.47,485.24 590.00,480.00
             590.00,480.00 573.00,480.00 573.00,480.00
             564.57,480.16 561.69,485.38 556.00,491.00
             556.00,491.00 532.00,514.00 532.00,514.00
             532.00,514.00 532.00,411.00 532.00,411.00 Z" />
</svg>
