<?xml version="1.0" encoding="UTF-8" standalone="no"?>
<!DOCTYPE svg PUBLIC "-//W3C//DTD SVG 20010904//EN"
              "http://www.w3.org/TR/2001/REC-SVG-20010904/DTD/svg10.dtd">

<svg xmlns="http://www.w3.org/2000/svg"
     width="3.35333in" height="1.18333in"
     viewBox="0 0 1006 355">
  <path id="kilowog"
        fill="white" stroke="black" stroke-width="1"
        d="M 0.00,0.00
           C 0.00,0.00 1006.00,0.00 1006.00,0.00
             1006.00,0.00 1006.00,355.00 1006.00,355.00
             1006.00,355.00 0.00,355.00 0.00,355.00
             0.00,355.00 0.00,0.00 0.00,0.00 Z
           M 97.00,40.00
           C 97.00,40.00 75.00,40.00 75.00,40.00
             75.00,40.00 75.00,258.00 75.00,258.00
             75.00,258.00 97.00,258.00 97.00,258.00
             97.00,258.00 97.00,216.00 97.00,216.00
             97.00,216.00 98.00,193.00 98.00,193.00
             101.30,199.25 107.10,205.37 111.60,211.00
             111.60,211.00 137.75,243.00 137.75,243.00
             140.67,246.54 147.19,255.92 151.04,257.40
             152.89,258.12 155.98,258.00 158.00,258.00
             158.00,258.00 178.00,258.00 178.00,258.00
             178.00,258.00 132.80,202.00 132.80,202.00
             132.80,202.00 121.43,188.00 121.43,188.00
             121.43,188.00 118.61,182.17 118.61,182.17
             118.61,182.17 132.00,168.00 132.00,168.00
             132.00,168.00 172.00,129.00 172.00,129.00
             172.00,129.00 152.00,129.00 152.00,129.00
             140.63,129.06 137.77,135.40 130.00,142.99
             130.00,142.99 97.00,174.00 97.00,174.00
             97.00,174.00 97.00,40.00 97.00,40.00 Z
           M 294.00,40.00
           C 294.00,40.00 272.00,40.00 272.00,40.00
             272.00,40.00 272.00,258.00 272.00,258.00
             272.00,258.00 294.00,258.00 294.00,258.00
             294.00,258.00 294.00,40.00 294.00,40.00 Z
           M 211.00,61.34
           C 190.89,67.04 198.89,94.96 218.00,90.61
             228.37,88.25 233.18,75.47 226.57,67.04
             222.31,61.60 217.49,60.60 211.00,61.34 Z
           M 558.00,121.00
           C 558.00,121.00 545.95,151.00 545.95,151.00
             545.95,151.00 523.00,212.00 523.00,212.00
             523.00,212.00 498.20,149.00 498.20,149.00
             496.68,145.12 492.53,131.97 489.59,130.02
             487.70,128.78 484.22,129.00 482.00,129.00
             482.00,129.00 466.00,129.00 466.00,129.00
             466.00,129.00 477.40,159.00 477.40,159.00
             477.40,159.00 501.60,219.00 501.60,219.00
             501.60,219.00 513.80,249.00 513.80,249.00
             513.80,249.00 522.00,267.00 522.00,267.00
             522.00,267.00 545.20,207.00 545.20,207.00
             545.20,207.00 557.00,175.00 557.00,175.00
             561.46,179.67 567.54,197.13 570.42,204.00
             570.42,204.00 587.01,244.00 587.01,244.00
             587.01,244.00 596.00,266.00 596.00,266.00
             596.00,266.00 598.00,266.00 598.00,266.00
             598.00,266.00 611.60,232.00 611.60,232.00
             611.60,232.00 641.80,157.00 641.80,157.00
             641.80,157.00 653.00,129.00 653.00,129.00
             653.00,129.00 636.00,129.00 636.00,129.00
             636.00,129.00 628.51,130.02 628.51,130.02
             628.51,130.02 619.68,150.00 619.68,150.00
             619.68,150.00 595.00,213.00 595.00,213.00
             595.00,213.00 574.00,160.00 574.00,160.00
             574.00,160.00 558.00,121.00 558.00,121.00 Z
           M 380.00,127.29
           C 363.69,129.99 350.09,137.04 339.46,150.00
             320.39,173.26 319.89,212.32 338.52,236.00
             355.01,256.98 378.55,263.15 404.00,259.71
             436.91,255.26 457.96,226.04 458.00,194.00
             458.01,182.20 455.63,169.26 449.55,159.00
             433.82,132.46 409.32,124.51 380.00,127.29 Z
           M 715.00,127.29
           C 698.69,129.99 685.09,137.04 674.46,150.00
             655.39,173.26 654.89,212.32 673.52,236.00
             690.01,256.98 713.55,263.15 739.00,259.71
             771.91,255.26 792.96,226.04 793.00,194.00
             793.01,182.20 790.63,169.26 784.55,159.00
             768.82,132.46 744.32,124.51 715.00,127.29 Z
           M 920.00,151.00
           C 913.60,137.96 900.29,129.15 886.00,127.15
             886.00,127.15 871.00,127.15 871.00,127.15
             849.95,127.25 829.28,141.39 820.15,160.00
             810.54,178.86 810.37,209.30 820.15,228.00
             831.63,249.25 851.58,259.58 875.00,260.91
             882.98,261.36 894.99,258.55 902.00,254.69
             910.89,249.79 915.03,243.71 921.00,236.00
             921.00,258.69 922.90,279.26 902.00,294.21
             879.01,310.67 839.41,297.32 838.00,267.00
             838.00,267.00 815.00,267.00 815.00,267.00
             817.40,280.37 817.38,289.82 827.18,301.00
             854.40,332.04 911.94,329.25 933.55,293.00
             945.00,273.79 943.00,253.36 943.00,232.00
             943.00,232.00 943.00,129.00 943.00,129.00
             943.00,129.00 921.00,129.00 921.00,129.00
             921.00,129.00 920.00,151.00 920.00,151.00 Z
           M 225.00,129.00
           C 225.00,129.00 203.00,129.00 203.00,129.00
             203.00,129.00 203.00,258.00 203.00,258.00
             203.00,258.00 225.00,258.00 225.00,258.00
             225.00,258.00 225.00,129.00 225.00,129.00 Z
           M 387.00,147.26
           C 389.35,147.14 390.57,146.95 393.00,147.26
             407.88,147.94 420.24,154.31 428.45,167.00
             433.03,174.07 434.52,180.75 435.08,189.00
             436.49,209.61 429.07,228.03 409.00,236.66
             403.32,239.11 396.16,240.13 390.00,239.99
             363.73,239.39 348.94,219.75 347.18,195.00
             346.51,185.57 350.30,172.66 355.79,165.00
             364.25,153.18 373.34,149.66 387.00,147.26 Z
           M 722.00,147.26
           C 724.35,147.14 725.57,146.95 728.00,147.26
             742.88,147.94 755.24,154.31 763.45,167.00
             768.03,174.07 769.52,180.75 770.08,189.00
             771.49,209.61 764.07,228.03 744.00,236.66
             738.32,239.11 731.16,240.13 725.00,239.99
             698.73,239.39 683.94,219.75 682.18,195.00
             681.51,185.57 685.30,172.66 690.79,165.00
             699.25,153.18 708.34,149.66 722.00,147.26 Z
           M 875.00,147.42
           C 880.09,146.82 883.01,147.23 888.00,148.29
             932.78,157.71 932.15,233.43 884.00,239.71
             878.67,240.41 874.20,239.90 869.00,238.79
             843.59,233.39 832.95,211.19 835.85,187.00
             836.92,178.07 838.48,171.44 843.93,164.00
             851.87,153.17 862.30,149.34 875.00,147.42 Z" />
</svg>
